<svg width="320" height="320" viewBox="0 0 320 320" fill="none" xmlns="http://www.w3.org/2000/svg">
<g clip-path="url(#clip0_306_276)">
<path d="M160 320C248.368 320 320 248.366 320 160C320 71.6344 248.366 0 160 0C71.6344 0 0 71.6344 0 160C0 248.366 71.6344 320 160 320Z" fill="url(#paint0_linear_306_276)"/>
<path fill-rule="evenodd" clip-rule="evenodd" d="M154.256 83.8164L231.694 218.128L239.996 203.724L170.861 83.8196L154.256 83.8164ZM79.9961 203.48L146.275 88.5284L146.414 88.766L146.547 88.5428L225.088 224.775H208.483L188.638 190.357C179.624 187.508 170.023 185.972 160.066 185.972C154.934 185.972 149.92 186.328 145.053 187.048L154.619 170.484C156.428 170.394 158.243 170.352 160.066 170.352C166.148 170.352 172.118 170.84 177.934 171.79L146.408 117.116L88.3057 217.9L79.9961 203.488V203.48ZM125.055 201.728L154.836 150.07L146.534 135.665L95.1697 224.761H111.774L111.934 224.488C126.179 215.914 142.526 211.578 160.373 211.578C171.769 211.578 182.697 213.589 192.814 217.283L181.691 198.018C174.666 196.649 167.53 195.958 160.373 195.958C148.021 195.958 136.143 197.985 125.055 201.728Z" fill="white"/>
</g>
<defs>
<linearGradient id="paint0_linear_306_276" x1="275.048" y1="273.368" x2="45.0072" y2="46.6864" gradientUnits="userSpaceOnUse">
<stop stop-color="#5B77B9"/>
<stop offset="0.524" stop-color="#E40D5C"/>
<stop offset="1" stop-color="#EA4E41"/>
</linearGradient>
<clipPath id="clip0_306_276">
<rect width="320" height="320" fill="white"/>
</clipPath>
</defs>
</svg>
