<svg width="48" height="48" viewBox="0 0 48 48" fill="none"
  xmlns="http://www.w3.org/2000/svg">
  <g clip-path="url(#clip0_383_4968)">
    <rect width="48" height="48" rx="24" fill="#F2F2F2"/>
    <path fill-rule="evenodd" clip-rule="evenodd" d="M23.9995 47.9996C37.254 47.9996 47.9995 37.2552 47.9995 23.9996C47.9995 10.7439 37.254 -0.000488281 23.9995 -0.000488281C10.745 -0.000488281 -0.000488281 10.7472 -0.000488281 23.9996C-0.000488281 37.2519 10.7439 47.9996 23.9995 47.9996ZM24.0975 45.7483C36.1082 45.7483 45.8439 36.0113 45.8439 24.0007C45.8439 11.99 36.1082 2.25307 24.0975 2.25307C12.0868 2.25307 2.34991 11.9854 2.34991 23.9996C2.34991 36.0136 12.0868 45.7469 24.0975 45.7469V45.7483ZM23.9995 44.0822C27.9714 44.0822 31.8539 42.9044 35.1563 40.6981C38.4587 38.4914 41.0325 35.3549 42.5524 31.6856C44.0728 28.0161 44.4701 23.9784 43.6954 20.0829C42.9203 16.1875 41.008 12.6093 38.1995 9.80086C35.3909 6.99231 31.8127 5.07975 27.9173 4.30487C24.0218 3.53003 19.9841 3.9277 16.3146 5.44766C12.6452 6.96758 9.5089 9.54147 7.3023 12.8439C5.0957 16.1463 3.91794 20.0289 3.91794 24.0007C3.91821 29.3264 6.03407 34.434 9.80015 38.1998C13.5661 41.9654 18.6738 44.0814 23.9995 44.0814V44.0822ZM24.048 41.634C27.5451 41.634 30.9636 40.5969 33.8713 38.6542C36.779 36.7113 39.0454 33.9499 40.3839 30.719C41.722 27.4882 42.0722 23.933 41.3902 20.5031C40.7077 17.0733 39.024 13.9226 36.5512 11.4497C34.0785 8.97684 30.928 7.29277 27.4982 6.61041C24.0683 5.928 20.5132 6.278 17.2823 7.61609C14.0513 8.95426 11.2897 11.2204 9.34667 14.128C7.40369 17.0356 6.36643 20.4541 6.36621 23.9511C6.36621 28.6406 8.22909 33.138 11.545 36.454C14.8611 39.7699 19.3585 41.6331 24.048 41.6331V41.634ZM24.0874 26.9408C23.2198 26.9399 22.3537 27.0122 21.4984 27.157L22.7872 24.9304C23.2217 24.9012 23.6561 24.8866 24.0874 24.8866C25.1011 24.8871 26.1132 24.9681 27.1142 25.1286L22.1254 16.488L13.8158 30.8751L12.6282 28.8184L22.1062 12.4019L22.1254 12.4356L22.1445 12.403L33.5833 32.2146H31.2082L28.5348 27.5847C27.092 27.1525 25.5935 26.9352 24.0874 26.9397V26.9408ZM34.3184 30.9088L23.2442 11.7277H25.6194L35.506 28.8522L34.3184 30.9088ZM23.3275 21.1921L18.7799 29.0717C20.4077 28.5809 22.3223 28.3614 24.1291 28.3614C24.2754 28.3614 24.4217 28.3614 24.5681 28.3671C25.594 28.3914 26.6163 28.4975 27.6253 28.6845L29.1426 31.3129C27.5371 30.7215 25.8401 30.4167 24.1291 30.4123C21.636 30.4035 19.18 31.0164 16.9833 32.1954L17.0171 32.1357L16.971 32.2146H14.5959L22.1479 19.1355L23.3275 21.1921Z" fill="url(#paint0_linear_383_4968)"/>
  </g>
  <defs>
    <linearGradient id="paint0_linear_383_4968" x1="37.8169" y1="45.1718" x2="9.75106" y2="2.16749" gradientUnits="userSpaceOnUse">
      <stop offset="0.01" stop-color="#645AFF"/>
      <stop offset="0.5" stop-color="#E40C5B"/>
      <stop offset="1" stop-color="#FF4C3B"/>
    </linearGradient>
    <clipPath id="clip0_383_4968">
      <rect width="48" height="48" rx="24" fill="white"/>
    </clipPath>
  </defs>
</svg>
