<svg width="48" height="48" viewBox="0 0 48 48" fill="none" xmlns="http://www.w3.org/2000/svg">
<g clip-path="url(#clip0_383_4965)">
<path d="M47.9428 22.3713C47.0433 9.14752 35.5945 -0.843465 22.3709 0.056027C15.7835 0.504096 9.99953 3.57128 5.9633 8.17061L5.96332 8.17058L5.95206 8.16246C5.92486 8.20009 5.89946 8.23722 5.87245 8.27482C1.86317 12.8966 -0.391759 19.042 0.0562434 25.6286C0.0989343 26.2562 0.172811 26.8739 0.262082 27.4861C0.262108 27.4863 0.262109 27.4864 0.262135 27.4866C0.266157 27.5142 0.270258 27.5418 0.274146 27.5695C0.334495 27.9735 0.404563 28.3737 0.484512 28.7703C0.484566 28.7705 0.484592 28.7708 0.484646 28.771C0.48611 28.7782 0.487495 28.7854 0.488907 28.7926C0.561692 29.1519 0.642546 29.5077 0.731018 29.8606L0.731178 29.8613C0.731258 29.8616 0.731337 29.8618 0.731391 29.8621C3.50306 40.9157 13.8593 48.7444 25.6281 47.9439C38.8516 47.0444 48.8422 35.5951 47.9428 22.3713H47.9428ZM42.7188 22.7267C42.8295 24.3547 42.7271 25.9487 42.4372 27.4823C42.4336 27.4736 42.4308 27.4643 42.4273 27.4556V27.4556C40.6874 23.2026 37.2457 20.132 34.2191 18.4359C34.8316 11.2294 32.3869 8.19341 29.62 7.69942C29.5448 7.68493 29.469 7.67258 29.3921 7.66304C27.1961 7.38138 25.1878 8.93366 24.9065 11.1296C24.6249 13.3257 26.1771 15.3341 28.373 15.6158C28.5646 15.6401 28.7541 15.6468 28.9417 15.6438C28.9539 15.8871 28.9615 16.1455 28.9637 16.4158C26.4052 15.7817 24.0137 15.6576 21.8332 15.8537C21.0178 15.908 20.2018 16.0108 19.3903 16.1624C19.6625 13.729 20.5754 10.997 22.3469 8.99771C24.0594 7.06503 26.6054 5.95727 29.3828 6.24155C29.9093 6.29543 30.4711 6.4247 30.9769 6.59457C31.0001 6.60237 31.0248 6.60897 31.0478 6.61696C31.0481 6.61651 31.0486 6.6159 31.0489 6.61545C37.482 9.23621 42.2165 15.3418 42.7188 22.7267V22.7267ZM25.9914 26.3924C25.9897 26.395 25.9878 26.3976 25.9861 26.4002C25.4134 27.2261 24.7324 28.0405 23.9329 28.8282C22.7344 27.553 21.7717 26.1798 21.0412 24.7592C21.0038 24.6831 20.9638 24.6106 20.9272 24.5333C20.9259 24.5304 20.9246 24.5276 20.9231 24.5247C20.4941 23.6155 20.1292 22.6181 19.8468 21.5314C21.5522 21.1301 23.2246 20.9826 24.8218 21.0604C24.9064 21.066 24.9891 21.0676 25.0744 21.0746C25.0775 21.0748 25.0807 21.0751 25.0838 21.0753C26.0841 21.1582 27.1287 21.3406 28.2091 21.6385C27.704 23.3153 26.9957 24.8369 26.1301 26.1808C26.0829 26.2512 26.0401 26.3221 25.9914 26.3924V26.3924ZM17.7908 6.29729C17.7863 6.30307 17.7812 6.30853 17.7767 6.31431L17.7767 6.31434C14.965 9.94581 14.0263 14.459 14.0697 17.9276C7.523 21.0003 6.11624 24.6354 7.07193 27.2786C7.09696 27.351 7.12416 27.4228 7.15433 27.4941C8.00844 29.5369 10.3568 30.5 12.3992 29.6456C14.4418 28.7915 15.4049 26.443 14.551 24.4004C14.4762 24.2223 14.3873 24.0549 14.291 23.8938C14.4979 23.7601 14.72 23.6228 14.956 23.4842C15.6861 26.0175 16.7663 28.1601 18.0265 29.9507C18.4804 30.6284 18.9763 31.2824 19.5121 31.9082C17.2685 32.8896 14.4455 33.4653 11.8278 32.9307C9.2978 32.4139 7.06551 30.7629 5.923 28.2154C5.70643 27.7325 5.53756 27.1814 5.43172 26.6585C5.36661 26.2016 5.31204 25.741 5.28024 25.2733C4.69545 16.6761 10.029 9.02259 17.7908 6.29729V6.29729ZM25.2728 42.7197C20.1677 43.067 15.3957 41.3257 11.7891 38.2304C16.3399 38.8498 20.7176 37.4061 23.6997 35.6342C29.6365 39.7709 33.4895 39.172 35.3011 37.0223C35.3513 36.9644 35.3999 36.9049 35.4466 36.8431C36.7885 35.082 36.4484 32.5667 34.6873 31.2251C32.9263 29.8831 30.4109 30.2233 29.069 31.9841C28.9522 32.1379 28.8516 32.2986 28.7604 32.4626C28.5426 32.351 28.314 32.2279 28.0778 32.094C29.908 30.1941 31.2123 28.1836 32.1334 26.1959C32.494 25.4624 32.813 24.7044 33.0874 23.9258C35.0603 25.3782 36.972 27.5361 37.8184 30.0719C38.6358 32.5214 38.3221 35.2802 36.6873 37.5434C36.3774 37.9724 35.9845 38.3943 35.5845 38.7474C35.5787 38.7526 35.573 38.7579 35.5672 38.7632C32.707 41.0113 29.1681 42.4548 25.2728 42.7197V42.7197Z" fill="url(#paint0_linear_383_4965)"/>
<path style="mix-blend-mode:overlay" opacity="0.9" d="M29.622 7.70597C29.5468 7.69148 29.471 7.67912 29.3941 7.66959C29.0055 7.61976 28.6236 7.63004 28.2553 7.68844C30.5512 8.93746 32.225 12.4176 31.345 19.2823C31.0535 21.5559 30.3775 23.7195 29.4012 25.7049C28.6102 27.412 27.5339 29.1354 26.0872 30.7915C26.7819 31.3126 27.4594 31.7488 28.0798 32.1005C29.91 30.2007 31.2143 28.1902 32.1354 26.2024C33.1116 24.2171 33.7876 22.0534 34.0791 19.7798C35.1269 11.6062 32.5545 8.22951 29.622 7.70597V7.70597Z" fill="url(#paint1_radial_383_4965)"/>
<g style="mix-blend-mode:overlay" opacity="0.8">
<path d="M31.345 19.2816C32.225 12.4169 30.5512 8.93676 28.2553 7.68774C28.1657 7.70197 28.0777 7.72106 27.9899 7.74122C30.2375 9.03333 31.8548 12.5102 30.9868 19.2816C30.6952 21.5552 30.0192 23.7188 29.043 25.7041C28.2781 27.3547 27.2437 29.0201 25.8687 30.6257C25.9418 30.6822 26.0144 30.7363 26.0872 30.7908C27.5339 29.1346 28.6102 27.4112 29.4012 25.7041C30.3775 23.7188 31.0535 21.5552 31.345 19.2816V19.2816Z" fill="white"/>
</g>
<path style="mix-blend-mode:overlay" opacity="0.5" d="M22.6191 34.8518C22.4033 34.6874 22.1957 34.5153 21.9881 34.3433C18.6 35.7569 13.9032 36.6432 9.2395 35.5609C10.0032 36.5344 10.8555 37.4333 11.7916 38.2368C16.3424 38.8561 20.7201 37.4125 23.7023 35.6405C23.3483 35.3939 22.988 35.1329 22.6191 34.8518V34.8518Z" fill="url(#paint2_radial_383_4965)"/>
<path style="mix-blend-mode:overlay" opacity="0.6" d="M21.9877 34.343C21.8839 34.257 21.7794 34.1718 21.6777 34.084C18.2639 35.4483 13.5458 36.2638 8.89258 35.1041C9.00595 35.258 9.12124 35.4104 9.23911 35.5607C13.9028 36.643 18.5996 35.7567 21.9877 34.343V34.343Z" fill="url(#paint3_linear_383_4965)"/>
<path style="mix-blend-mode:overlay" opacity="0.9" d="M7.07472 27.2817C7.09977 27.354 7.12695 27.4258 7.15713 27.4972C7.30828 27.8586 7.50817 28.1843 7.74289 28.474C7.6766 25.8612 9.85345 22.6715 16.2383 20.0013C18.353 19.1169 20.5647 18.6206 22.7722 18.4734C24.646 18.3049 26.6766 18.3753 28.8343 18.8002C28.9381 17.938 28.9771 17.1331 28.9715 16.42C26.4112 15.7848 24.0179 15.6606 21.836 15.8567C19.6285 16.0039 17.4168 16.5003 15.3021 17.3846C7.69987 20.564 6.06182 24.4801 7.07472 27.2817L7.07472 27.2817Z" fill="url(#paint4_radial_383_4965)"/>
<g style="mix-blend-mode:overlay" opacity="0.8">
<path d="M16.2388 20.0029C9.85396 22.6731 7.67712 25.8628 7.74341 28.4756C7.80054 28.5461 7.86106 28.6128 7.92243 28.6787C7.91757 26.0861 10.1199 22.9471 16.418 20.3131C18.5327 19.4288 20.7444 18.9325 22.9518 18.7853C24.7636 18.6224 26.7231 18.6856 28.801 19.0736C28.8135 18.982 28.8239 18.8921 28.8348 18.8018C26.6772 18.3769 24.6466 18.3065 22.7727 18.475C20.5652 18.6222 18.3535 19.1185 16.2388 20.0029Z" fill="white"/>
</g>
<path style="mix-blend-mode:overlay" opacity="0.4" d="M34.0851 19.7739C34.0506 20.0429 34.0054 20.3088 33.9602 20.5746C36.8785 22.8021 39.9944 26.4266 41.389 31.0067C41.8502 29.8586 42.2025 28.671 42.4302 27.4585C40.6912 23.2076 37.2521 20.1381 34.2265 18.4414C34.1899 18.8713 34.1441 19.3139 34.0851 19.7739V19.7739Z" fill="url(#paint5_radial_383_4965)"/>
<path style="mix-blend-mode:overlay" opacity="0.5" d="M33.9602 20.5725C33.9376 20.7054 33.9161 20.8384 33.8909 20.9705C36.7792 23.2448 39.8446 26.9232 41.1668 31.533C41.2435 31.3578 41.3178 31.1818 41.389 31.0046C39.9944 26.4244 36.8785 22.7999 33.9602 20.5725V20.5725Z" fill="url(#paint6_linear_383_4965)"/>
<path style="mix-blend-mode:overlay" opacity="0.9" d="M35.3058 37.015C35.3559 36.9571 35.4045 36.8977 35.4512 36.8359C35.6887 36.5242 35.8708 36.1883 36.0043 35.8401C33.7747 37.204 29.924 36.9135 24.4192 32.7191C22.596 31.3298 21.0603 29.6625 19.8291 27.8244C18.7463 26.2857 17.792 24.4919 17.0811 22.4109C16.2824 22.7521 15.5659 23.1207 14.9512 23.4821C15.6813 26.0171 16.7703 28.1519 18.0312 29.9435C19.2623 31.7816 20.798 33.4489 22.6212 34.8382C29.1757 39.8324 33.3861 39.293 35.3058 37.015V37.015Z" fill="url(#paint7_radial_383_4965)"/>
<g style="mix-blend-mode:overlay" opacity="0.8">
<path d="M24.4192 32.721C29.924 36.9155 33.7747 37.2059 36.0043 35.8421C36.0368 35.7573 36.0643 35.6716 36.0907 35.5855C33.8479 36.886 30.0283 36.5482 24.5983 32.4107C22.7751 31.0215 21.2394 29.3542 20.0082 27.516C18.9613 26.0283 18.0363 24.2998 17.3334 22.3062C17.2478 22.3412 17.1647 22.3771 17.0811 22.4128C17.7919 24.4939 18.7463 26.2877 19.8291 27.8263C21.0603 29.6645 22.596 31.3317 24.4192 32.721V32.721Z" fill="white"/>
</g>
<path style="mix-blend-mode:overlay" opacity="0.3" d="M15.2983 17.3792C15.5486 17.2745 15.8014 17.1808 16.0543 17.087C16.5241 13.4459 18.1049 8.93505 21.374 5.43726C20.1492 5.61192 18.9446 5.90058 17.7807 6.30962C14.9689 9.94111 14.0303 14.4543 14.0737 17.9229C14.4643 17.7397 14.8705 17.5581 15.2983 17.3792V17.3792Z" fill="url(#paint8_radial_383_4965)"/>
<path style="mix-blend-mode:overlay" opacity="0.4" d="M16.0547 17.0858C16.181 17.0389 16.3071 16.991 16.434 16.9469C16.9594 13.3082 18.6122 8.81429 21.9432 5.36426C21.7531 5.38546 21.5635 5.40913 21.3745 5.43608C18.1054 8.93387 16.5245 13.4447 16.0547 17.0858V17.0858Z" fill="url(#paint9_linear_383_4965)"/>
<path style="mix-blend-mode:multiply" opacity="0.4" d="M22.3717 0.0552712C15.7843 0.50334 10.0004 3.57052 5.96413 8.16985C5.93363 8.20461 5.90333 8.23944 5.87305 8.27438L5.87329 8.27406C6.65909 9.05354 9.22721 10.5905 10.2681 11.2315C12.3118 9.03354 14.8809 7.31852 17.7916 6.29653C17.9949 6.0346 18.2056 5.77616 18.4288 5.52427C21.1397 2.46513 24.8417 0.848206 29.1357 0.848206C29.6136 0.848206 30.587 0.924283 30.6079 0.925829C28.0047 0.177931 25.2304 -0.139183 22.3717 0.0552712Z" fill="url(#paint10_linear_383_4965)"/>
<path style="mix-blend-mode:multiply" opacity="0.4" d="M25.274 42.7169C20.1689 43.0642 15.3969 41.3229 11.7903 38.2276H11.7903L11.7902 38.2276C11.4545 38.1819 11.1181 38.1271 10.7811 38.0583C6.77642 37.24 3.52514 34.8424 1.37817 31.1236C1.1392 30.7097 0.925375 30.288 0.732666 29.8596C3.50442 40.9131 13.8606 48.7416 25.6293 47.9411C25.6816 46.7291 25.3243 43.9169 25.274 42.7169V42.7169Z" fill="url(#paint11_linear_383_4965)"/>
<path style="mix-blend-mode:multiply" opacity="0.4" d="M47.9436 22.3695C47.2063 22.2939 43.6051 22.5782 42.7196 22.7249C42.8304 24.3529 42.728 25.9469 42.4381 27.4805C42.5624 27.7856 42.6802 28.0952 42.786 28.4124C44.0798 32.2898 43.629 36.3044 41.4821 40.0232C41.2475 40.4294 40.9944 40.8184 40.7255 41.193C40.7204 41.2 40.7145 41.2083 40.7102 41.2142C40.7099 41.2144 40.7212 41.2048 40.7275 41.199C45.602 36.4565 48.4413 29.6865 47.9436 22.3695V22.3695Z" fill="url(#paint12_linear_383_4965)"/>
<path style="mix-blend-mode:multiply" opacity="0.5" d="M29.3837 6.24083C29.9102 6.29471 30.472 6.42398 30.9778 6.59385C31.001 6.60165 31.0257 6.60825 31.0487 6.61624C31.049 6.61579 31.0495 6.61518 31.0498 6.61473C33.1201 7.45813 35.0129 8.66411 36.6469 10.1558C36.6504 10.1588 36.6539 10.1612 36.6575 10.1641C37.445 9.26375 38.9613 8.27442 38.9613 8.27442C38.9613 8.27442 36.6394 5.89932 33.0884 5.16223C30.6024 4.64622 24.9951 4.14603 21.4587 10.1641C21.4587 10.1641 21.4728 10.1508 21.4935 10.1317C21.7551 9.73632 22.0332 9.35198 22.3478 8.99699C24.0603 7.06431 26.6063 5.95655 29.3837 6.24083V6.24083Z" fill="url(#paint13_linear_383_4965)"/>
<path style="mix-blend-mode:multiply" opacity="0.5" d="M36.688 37.5438C36.3781 37.9728 35.9852 38.3947 35.5852 38.7478C35.5669 38.7641 35.5488 38.7821 35.5304 38.798C35.5306 38.7985 35.5309 38.7993 35.5311 38.7998C33.7656 40.171 31.7748 41.2073 29.666 41.8766C29.6617 41.8782 29.6579 41.88 29.6536 41.8816C30.0395 43.0138 30.1381 44.8217 30.1381 44.8217C30.1381 44.8217 33.3559 43.9984 35.7697 41.2915C37.4596 39.3965 40.6964 34.7905 37.2529 28.7188C37.2529 28.7188 37.2574 28.7376 37.2636 28.765C37.4752 29.1893 37.669 29.6224 37.8191 30.0723C38.6365 32.5217 38.3229 35.2806 36.688 37.5438V37.5438Z" fill="url(#paint14_linear_383_4965)"/>
<path style="mix-blend-mode:multiply" opacity="0.5" d="M5.93307 28.2285C5.71647 27.7456 5.54751 27.1943 5.44172 26.6714C5.43686 26.6474 5.43023 26.6227 5.42566 26.5988C5.42511 26.5987 5.42434 26.5986 5.42379 26.5986C5.11903 24.3839 5.21702 22.1417 5.69185 19.9807C5.69262 19.9761 5.69295 19.9719 5.69372 19.9674C4.52026 19.7355 2.90535 18.917 2.90535 18.917C2.90535 18.917 2.00943 22.1154 3.14665 25.5593C3.94278 27.9703 6.31323 33.0766 13.2931 33.1302C13.2931 33.1302 13.2746 33.1247 13.2477 33.1163C12.7744 33.0874 12.3025 33.0387 11.8378 32.9438C9.30787 32.427 7.07557 30.776 5.93307 28.2285V28.2285Z" fill="url(#paint15_linear_383_4965)"/>
<path style="mix-blend-mode:multiply" opacity="0.6" d="M28.3742 15.6207C28.5658 15.645 28.7553 15.6517 28.9429 15.6487C28.9429 15.6487 28.8176 13.155 28.5114 11.8756C28.2052 10.5962 27.7536 9.7489 27.2575 9.26936C26.9021 8.92582 25.7802 8.49797 24.9078 11.1345C24.6261 13.3306 26.1784 15.3389 28.3742 15.6207Z" fill="url(#paint16_linear_383_4965)"/>
<path style="mix-blend-mode:multiply" opacity="0.5" d="M14.5535 24.4104C14.4787 24.2323 14.3898 24.0648 14.2934 23.9038C14.2934 23.9038 12.1965 25.2592 11.2416 26.1641C10.2867 27.069 9.77883 27.8838 9.61158 28.5532C9.49176 29.0327 9.6822 30.2183 12.4017 29.6556C14.4443 28.8015 15.4074 26.4529 14.5535 24.4104V24.4104Z" fill="url(#paint17_linear_383_4965)"/>
<path style="mix-blend-mode:multiply" opacity="0.6" d="M29.0738 31.981C28.957 32.1348 28.8564 32.2955 28.7651 32.4595C28.7651 32.4595 30.9874 33.5978 32.2484 33.9724C33.5095 34.3469 34.4691 34.3794 35.1324 34.1895C35.6076 34.0535 36.5391 33.2958 34.692 31.222C32.9311 29.88 30.4157 30.2202 29.0738 31.981V31.981Z" fill="url(#paint18_linear_383_4965)"/>
<path style="mix-blend-mode:multiply" opacity="0.3" d="M28.2113 21.6406C27.7061 23.3175 26.9979 24.8391 26.1323 26.183C26.0851 26.2534 26.0423 26.3242 25.9936 26.3946C25.9918 26.3972 25.99 26.3998 25.9883 26.4024C25.4156 27.2283 24.7346 28.0427 23.9351 28.8304C24.4844 29.415 25.0786 29.9809 25.7311 30.5179C26.5505 31.1645 27.3537 31.6843 28.08 32.0961C29.9102 30.1963 31.2145 28.1858 32.1355 26.198C32.4962 25.4646 32.8152 24.7066 33.0896 23.9279C32.2453 23.3063 31.3899 22.8117 30.6018 22.4756C29.7867 22.1282 28.99 21.8553 28.2113 21.6406V21.6406Z" fill="url(#paint19_linear_383_4965)"/>
<path style="mix-blend-mode:multiply" opacity="0.3" d="M11.791 38.2333C16.3417 38.8527 20.7195 37.409 23.7016 35.6371C23.3476 35.3904 22.9873 35.1294 22.6184 34.8484C21.4674 33.9713 20.4316 32.9829 19.514 31.9111C17.2704 32.8925 14.4474 33.4682 11.8297 32.9336C9.29968 32.4168 7.06738 30.7658 5.92487 28.2183C5.7083 27.7354 5.53943 27.1843 5.43359 26.6614C6.09476 31.3008 8.43584 35.3538 11.791 38.2333V38.2333Z" fill="url(#paint20_linear_383_4965)"/>
<path style="mix-blend-mode:multiply" opacity="0.3" d="M23.9347 28.8327C22.7362 27.5575 21.7734 26.1843 21.043 24.7636C21.0055 24.6875 20.9656 24.6151 20.929 24.5377C20.9276 24.5349 20.9263 24.532 20.9249 24.5292C20.4959 23.62 20.131 22.6226 19.8486 21.5359C19.0693 21.7192 18.2839 21.9504 17.4945 22.2463C16.5269 22.6318 15.6765 23.0665 14.9578 23.4887C15.6879 26.022 16.7681 28.1646 18.0283 29.9552C18.4822 30.6329 18.9781 31.2869 19.5139 31.9127C20.4759 31.4919 21.3332 30.9978 22.0191 30.4826C22.7264 29.9513 23.3602 29.3987 23.9347 28.8327V28.8327Z" fill="url(#paint21_linear_383_4965)"/>
<path style="mix-blend-mode:multiply" opacity="0.3" d="M17.7788 6.31735C14.9671 9.94882 14.0283 14.462 14.0717 17.9306C14.4638 17.7466 14.8718 17.5642 15.3014 17.3846C16.6349 16.8269 18.0071 16.4243 19.3924 16.1654C19.6645 13.732 20.5775 11 22.349 9.00073C24.0615 7.06805 26.6075 5.96028 29.3848 6.24456C29.9113 6.29844 30.4732 6.42772 30.9789 6.59758C31.0022 6.60538 31.0269 6.61199 31.0499 6.61998C31.0502 6.61952 31.0507 6.61891 31.051 6.61846C28.4922 5.57606 25.6655 5.08338 22.7283 5.28318C21.0033 5.40052 19.3503 5.75346 17.7928 6.3003C17.7884 6.30608 17.7833 6.31154 17.7788 6.31732L17.7788 6.31735V6.31735Z" fill="url(#paint22_linear_383_4965)"/>
<path style="mix-blend-mode:multiply" opacity="0.3" d="M42.4292 27.4618C40.6893 23.2088 37.2476 20.1383 34.221 18.4421C34.1843 18.8736 34.1382 19.3178 34.0791 19.7796C33.8952 21.2132 33.5578 22.6029 33.0894 23.932C35.0622 25.3845 36.9739 27.5424 37.8203 30.0781C38.6377 32.5276 38.324 35.2864 36.6892 37.5497C36.3793 37.9787 35.9864 38.4006 35.5864 38.7537C35.5806 38.7588 35.5749 38.7642 35.5691 38.7695C39.0926 36.0002 41.5846 32.0089 42.4391 27.4886C42.4356 27.4798 42.4327 27.4706 42.4292 27.4619V27.4618V27.4618Z" fill="url(#paint23_linear_383_4965)"/>
<path style="mix-blend-mode:multiply" opacity="0.3" d="M19.3782 19.0546C19.4846 19.9323 19.6462 20.7571 19.849 21.5374C21.5543 21.1361 23.2268 20.9885 24.8239 21.0663C24.9085 21.0719 24.9913 21.0736 25.0765 21.0806C25.0797 21.0808 25.0828 21.0811 25.086 21.0813C26.0863 21.1642 27.1308 21.3465 28.2113 21.6444C28.4424 20.8774 28.635 20.081 28.7736 19.2487C28.9241 18.2141 28.9726 17.2575 28.9658 16.4217C26.4073 15.7877 24.0158 15.6636 21.8354 15.8596C21.0199 15.914 20.204 16.0167 19.3925 16.1684C19.2757 17.2124 19.275 18.2025 19.3782 19.0546H19.3782Z" fill="url(#paint24_linear_383_4965)"/>
</g>
<defs>
<linearGradient id="paint0_linear_383_4965" x1="7.62126" y1="40.3797" x2="38.2254" y2="9.77635" gradientUnits="userSpaceOnUse">
<stop offset="0.001139" stop-color="#E6007A"/>
<stop offset="0.207149" stop-color="#703AC2"/>
<stop offset="0.456011" stop-color="#0070EB"/>
<stop offset="0.768132" stop-color="#0297FB"/>
<stop offset="1" stop-color="#0AE2FF"/>
</linearGradient>
<radialGradient id="paint1_radial_383_4965" cx="0" cy="0" r="1" gradientUnits="userSpaceOnUse" gradientTransform="translate(30.8424 19.1483) scale(9.12509 9.12534)">
<stop stop-color="white"/>
<stop offset="1" stop-color="white" stop-opacity="0"/>
</radialGradient>
<radialGradient id="paint2_radial_383_4965" cx="0" cy="0" r="1" gradientUnits="userSpaceOnUse" gradientTransform="translate(17.3549 36.0768) scale(5.30905 5.3092)">
<stop stop-color="white"/>
<stop offset="1" stop-color="white" stop-opacity="0"/>
</radialGradient>
<linearGradient id="paint3_linear_383_4965" x1="9.3872" y1="35.1785" x2="14.5048" y2="35.1074" gradientUnits="userSpaceOnUse">
<stop stop-color="white" stop-opacity="0"/>
<stop offset="1" stop-color="white"/>
</linearGradient>
<radialGradient id="paint4_radial_383_4965" cx="0" cy="0" r="1" gradientUnits="userSpaceOnUse" gradientTransform="translate(16.3736 20.5035) rotate(-119.999) scale(9.12527 9.12514)">
<stop stop-color="white"/>
<stop offset="1" stop-color="white" stop-opacity="0"/>
</radialGradient>
<radialGradient id="paint5_radial_383_4965" cx="0" cy="0" r="1" gradientUnits="userSpaceOnUse" gradientTransform="translate(37.778 23.7204) rotate(-119.999) scale(5.30916 5.30909)">
<stop stop-color="white"/>
<stop offset="1" stop-color="white" stop-opacity="0"/>
</radialGradient>
<linearGradient id="paint6_linear_383_4965" x1="40.984" y1="31.0674" x2="38.3635" y2="26.6709" gradientUnits="userSpaceOnUse">
<stop stop-color="white" stop-opacity="0"/>
<stop offset="1" stop-color="white"/>
</linearGradient>
<radialGradient id="paint7_radial_383_4965" cx="0" cy="0" r="1" gradientUnits="userSpaceOnUse" gradientTransform="translate(24.3556 31.9288) rotate(119.999) scale(9.12527 9.12515)">
<stop stop-color="white"/>
<stop offset="1" stop-color="white" stop-opacity="0"/>
</radialGradient>
<radialGradient id="paint8_radial_383_4965" cx="0" cy="0" r="1" gradientUnits="userSpaceOnUse" gradientTransform="translate(16.8696 12.2076) rotate(119.999) scale(5.30916 5.30909)">
<stop stop-color="white"/>
<stop offset="1" stop-color="white" stop-opacity="0"/>
</radialGradient>
<linearGradient id="paint9_linear_383_4965" x1="21.6314" y1="5.7554" x2="19.134" y2="10.223" gradientUnits="userSpaceOnUse">
<stop stop-color="white" stop-opacity="0"/>
<stop offset="1" stop-color="white"/>
</linearGradient>
<linearGradient id="paint10_linear_383_4965" x1="22.743" y1="3.48405" x2="14.9245" y2="5.75848" gradientUnits="userSpaceOnUse">
<stop stop-color="#231F20"/>
<stop offset="1" stop-color="white"/>
</linearGradient>
<linearGradient id="paint11_linear_383_4965" x1="7.9679" y1="33.3021" x2="14.5072" y2="40.1256" gradientUnits="userSpaceOnUse">
<stop stop-color="#231F20"/>
<stop offset="1" stop-color="white"/>
</linearGradient>
<linearGradient id="paint12_linear_383_4965" x1="43.0633" y1="32.2747" x2="45.3379" y2="25.3563" gradientUnits="userSpaceOnUse">
<stop stop-color="#231F20"/>
<stop offset="1" stop-color="white"/>
</linearGradient>
<linearGradient id="paint13_linear_383_4965" x1="26.3057" y1="7.4404" x2="36.7882" y2="9.84052" gradientUnits="userSpaceOnUse">
<stop stop-color="#231F20"/>
<stop offset="1" stop-color="white"/>
</linearGradient>
<linearGradient id="paint14_linear_383_4965" x1="37.1882" y1="34.2783" x2="29.8681" y2="42.1563" gradientUnits="userSpaceOnUse">
<stop stop-color="#231F20"/>
<stop offset="1" stop-color="white"/>
</linearGradient>
<linearGradient id="paint15_linear_383_4965" x1="8.51089" y1="30.2944" x2="5.34813" y2="20.016" gradientUnits="userSpaceOnUse">
<stop stop-color="#231F20"/>
<stop offset="1" stop-color="white"/>
</linearGradient>
<linearGradient id="paint16_linear_383_4965" x1="28.5977" y1="11.3123" x2="25.2806" y2="14.6293" gradientUnits="userSpaceOnUse">
<stop stop-color="#231F20"/>
<stop offset="1" stop-color="white"/>
</linearGradient>
<linearGradient id="paint17_linear_383_4965" x1="10.7107" y1="26.371" x2="15.2418" y2="27.5851" gradientUnits="userSpaceOnUse">
<stop stop-color="#231F20"/>
<stop offset="1" stop-color="white"/>
</linearGradient>
<linearGradient id="paint18_linear_383_4965" x1="32.6931" y1="34.3287" x2="31.4789" y2="29.7976" gradientUnits="userSpaceOnUse">
<stop stop-color="#231F20"/>
<stop offset="1" stop-color="white"/>
</linearGradient>
<linearGradient id="paint19_linear_383_4965" x1="25.7969" y1="30.2984" x2="27.7871" y2="27.55" gradientUnits="userSpaceOnUse">
<stop stop-color="#231F20"/>
<stop offset="1" stop-color="white"/>
</linearGradient>
<linearGradient id="paint20_linear_383_4965" x1="18.9438" y1="29.1092" x2="14.9634" y2="31.0046" gradientUnits="userSpaceOnUse">
<stop stop-color="#231F20"/>
<stop offset="1" stop-color="white"/>
</linearGradient>
<linearGradient id="paint21_linear_383_4965" x1="17.4993" y1="22.485" x2="18.7314" y2="25.0438" gradientUnits="userSpaceOnUse">
<stop stop-color="#231F20"/>
<stop offset="1" stop-color="white"/>
</linearGradient>
<linearGradient id="paint22_linear_383_4965" x1="23.2309" y1="14.5808" x2="22.3779" y2="11.6429" gradientUnits="userSpaceOnUse">
<stop stop-color="#231F20"/>
<stop offset="1" stop-color="white"/>
</linearGradient>
<linearGradient id="paint23_linear_383_4965" x1="32.4232" y1="28.0354" x2="34.8873" y2="28.604" gradientUnits="userSpaceOnUse">
<stop stop-color="#231F20"/>
<stop offset="1" stop-color="white"/>
</linearGradient>
<linearGradient id="paint24_linear_383_4965" x1="28.5565" y1="19.7111" x2="25.4291" y2="19.1425" gradientUnits="userSpaceOnUse">
<stop stop-color="#231F20"/>
<stop offset="1" stop-color="white"/>
</linearGradient>
<clipPath id="clip0_383_4965">
<rect width="48" height="48" rx="24" fill="white"/>
</clipPath>
</defs>
</svg>
