<svg width="320" height="320" viewBox="0 0 320 320" fill="none" xmlns="http://www.w3.org/2000/svg">
<path d="M319.625 149.142C313.628 60.9847 237.301 -5.62143 149.142 0.375138C105.225 3.36224 66.6648 23.81 39.7561 54.4719L39.7563 54.4718L39.6812 54.4176C39.4999 54.6685 39.3305 54.916 39.1505 55.1667C12.4214 85.9784 -2.61178 126.947 0.374963 170.858C0.659575 175.042 1.1521 179.16 1.74725 183.241C1.74742 183.242 1.74742 183.243 1.7476 183.244C1.77441 183.428 1.80176 183.612 1.82768 183.797C2.23001 186.49 2.69714 189.158 3.23015 191.802C3.2305 191.804 3.23068 191.805 3.23103 191.807C3.2408 191.855 3.25003 191.903 3.25944 191.951C3.74469 194.346 4.28373 196.718 4.87355 199.071L4.87461 199.076C4.87515 199.077 4.87568 199.079 4.87603 199.081C23.3542 272.771 92.397 324.962 170.858 319.625C259.016 313.628 325.621 237.3 319.625 149.142H319.625ZM284.798 151.512C285.536 162.365 284.853 172.992 282.92 183.216C282.897 183.157 282.878 183.096 282.854 183.038V183.037C271.254 154.684 248.31 134.214 228.132 122.906C232.215 74.8639 215.917 54.6239 197.47 51.3307C196.969 51.2341 196.464 51.1518 195.951 51.0882C181.311 49.2104 167.922 59.5589 166.047 74.1986C164.169 88.839 174.518 102.228 189.157 104.106C190.434 104.268 191.697 104.313 192.948 104.293C193.03 105.915 193.081 107.638 193.095 109.439C176.038 105.212 160.094 104.385 145.557 105.692C140.121 106.054 134.681 106.739 129.271 107.75C131.086 91.5277 137.172 73.3146 148.982 59.9859C160.399 47.1015 177.373 39.7165 195.889 41.6116C199.399 41.9708 203.145 42.8327 206.516 43.9651C206.671 44.0171 206.836 44.0611 206.989 44.1144C206.991 44.1114 206.995 44.1073 206.997 44.1043C249.885 61.5759 281.449 102.279 284.798 151.512V151.512ZM173.28 175.95C173.268 175.967 173.256 175.984 173.244 176.002C169.426 181.508 164.886 186.937 159.556 192.188C151.566 183.687 145.147 174.532 140.277 165.061C140.028 164.554 139.761 164.071 139.518 163.555C139.508 163.537 139.5 163.517 139.49 163.499C136.63 157.437 134.197 150.788 132.314 143.543C143.684 140.868 154.834 139.884 165.482 140.403C166.046 140.44 166.597 140.451 167.166 140.498C167.187 140.5 167.208 140.501 167.229 140.503C173.898 141.055 180.861 142.271 188.064 144.257C184.697 155.436 179.975 165.58 174.204 174.539C173.889 175.009 173.604 175.481 173.28 175.95V175.95ZM118.607 41.9833C118.578 42.0218 118.544 42.0582 118.514 42.0967L118.514 42.0969C99.7685 66.3065 93.5102 96.394 93.7996 119.518C50.1543 140.003 40.7758 164.237 47.1471 181.858C47.314 182.34 47.4953 182.819 47.6965 183.295C53.3907 196.913 69.047 203.333 82.663 197.637C96.2809 191.943 102.702 176.287 97.0088 162.669C96.5101 161.483 95.9174 160.366 95.2749 159.292C96.6543 158.401 98.1356 157.486 99.7085 156.562C104.576 173.45 111.778 187.734 120.179 199.672C123.205 204.19 126.511 208.549 130.084 212.721C115.125 219.264 96.3052 223.102 78.8535 219.538C61.9866 216.093 47.1043 205.086 39.4874 188.103C38.0436 184.884 36.9178 181.209 36.2122 177.723C35.7781 174.677 35.4143 171.607 35.2023 168.489C31.3036 111.175 66.8616 60.1518 118.607 41.9833V41.9833ZM168.489 284.798C134.454 287.113 102.64 275.504 78.5955 254.869C108.935 258.998 138.12 249.374 158.001 237.561C197.581 265.139 223.268 261.147 235.345 246.815C235.68 246.429 236.004 246.033 236.315 245.621C245.262 233.88 242.994 217.111 231.253 208.167C219.513 199.221 202.744 201.489 193.797 213.227C193.019 214.253 192.348 215.324 191.74 216.418C190.288 215.674 188.764 214.853 187.189 213.96C199.391 201.294 208.086 187.891 214.227 174.639C216.631 169.75 218.758 164.696 220.587 159.506C233.74 169.188 246.485 183.574 252.127 200.479C257.577 216.809 255.486 235.201 244.587 250.289C242.52 253.149 239.901 255.962 237.235 258.316C237.196 258.35 237.158 258.386 237.12 258.421C218.051 273.408 194.458 283.031 168.489 284.798V284.798Z" fill="url(#paint0_linear_306_288)"/>
<path style="mix-blend-mode:overlay" opacity="0.9" d="M197.471 51.3309C196.969 51.2343 196.464 51.1519 195.952 51.0883C193.361 50.7561 190.814 50.8247 188.359 51.214C203.665 59.5408 214.825 82.7412 208.958 128.506C207.014 143.663 202.507 158.087 195.999 171.323C190.725 182.703 183.55 194.192 173.905 205.233C178.537 208.707 183.053 211.615 187.189 213.96C199.391 201.295 208.086 187.891 214.227 174.64C220.735 161.404 225.242 146.98 227.186 131.823C234.171 77.3324 217.022 54.8212 197.471 51.3309V51.3309Z" fill="url(#paint1_radial_306_288)"/>
<g style="mix-blend-mode:overlay" opacity="0.8">
<path d="M208.958 128.505C214.824 82.741 203.665 59.5406 188.359 51.2139C187.761 51.3087 187.175 51.436 186.59 51.5704C201.574 60.1844 212.356 83.363 206.569 128.505C204.626 143.663 200.119 158.087 193.61 171.322C188.511 182.326 181.615 193.429 172.448 204.132C172.935 204.509 173.42 204.869 173.905 205.233C183.55 194.192 190.725 182.703 195.999 171.322C202.507 158.087 207.014 143.663 208.958 128.505V128.505Z" fill="white"/>
</g>
<path style="mix-blend-mode:overlay" opacity="0.5" d="M150.78 232.303C149.342 231.207 147.958 230.06 146.573 228.913C123.985 238.337 92.6727 244.246 61.5811 237.03C66.6725 243.52 72.3544 249.513 78.5957 254.869C108.935 258.998 138.12 249.374 158.002 237.561C155.641 235.917 153.239 234.177 150.78 232.303V232.303Z" fill="url(#paint2_radial_306_288)"/>
<path style="mix-blend-mode:overlay" opacity="0.6" d="M146.573 228.913C145.882 228.339 145.185 227.771 144.507 227.186C121.748 236.281 90.2929 241.718 59.271 233.986C60.0268 235.013 60.7954 236.029 61.5813 237.03C92.6729 244.246 123.986 238.337 146.573 228.913V228.913Z" fill="url(#paint3_linear_306_288)"/>
<path style="mix-blend-mode:overlay" opacity="0.9" d="M47.1546 181.885C47.3216 182.367 47.5028 182.846 47.704 183.321C48.7116 185.731 50.0443 187.902 51.6092 189.834C51.1672 172.415 65.6798 151.15 108.246 133.349C122.345 127.453 137.09 124.145 151.806 123.163C164.299 122.04 177.837 122.51 192.221 125.342C192.913 119.594 193.174 114.228 193.136 109.474C176.067 105.24 160.111 104.411 145.565 105.719C130.848 106.7 116.103 110.009 102.005 115.905C51.3223 137.1 40.4018 163.208 47.1546 181.885L47.1546 181.885Z" fill="url(#paint4_radial_306_288)"/>
<g style="mix-blend-mode:overlay" opacity="0.8">
<path d="M108.247 133.349C65.68 151.15 51.1674 172.415 51.6094 189.834C51.9903 190.304 52.3938 190.748 52.8028 191.188C52.7705 173.904 67.4528 152.977 109.441 135.418C123.539 129.522 138.284 126.213 153.001 125.232C165.08 124.146 178.143 124.567 191.996 127.154C192.079 126.543 192.149 125.944 192.221 125.342C177.837 122.51 164.299 122.04 151.806 123.163C137.09 124.145 122.345 127.454 108.247 133.349Z" fill="white"/>
</g>
<path style="mix-blend-mode:overlay" opacity="0.4" d="M227.226 131.834C226.996 133.627 226.695 135.4 226.394 137.172C245.849 152.022 266.623 176.185 275.92 206.719C278.994 199.064 281.343 191.147 282.861 183.064C271.268 154.725 248.34 134.262 228.169 122.951C227.925 125.817 227.619 128.767 227.226 131.834V131.834Z" fill="url(#paint5_radial_306_288)"/>
<path style="mix-blend-mode:overlay" opacity="0.5" d="M226.393 137.172C226.243 138.058 226.099 138.945 225.931 139.825C245.187 154.987 265.623 179.51 274.439 210.241C274.949 209.074 275.445 207.9 275.919 206.719C266.622 176.185 245.849 152.022 226.393 137.172V137.172Z" fill="url(#paint6_linear_306_288)"/>
<path style="mix-blend-mode:overlay" opacity="0.9" d="M235.364 246.779C235.698 246.393 236.022 245.997 236.333 245.584C237.916 243.507 239.13 241.267 240.021 238.946C225.156 248.038 199.485 246.102 162.785 218.139C150.63 208.878 140.392 197.762 132.184 185.508C124.965 175.251 118.603 163.292 113.863 149.419C108.539 151.693 103.762 154.151 99.6636 156.56C104.531 173.46 111.791 187.692 120.197 199.636C128.405 211.89 138.644 223.005 150.798 232.267C194.496 265.561 222.566 261.965 235.364 246.779V246.779Z" fill="url(#paint7_radial_306_288)"/>
<g style="mix-blend-mode:overlay" opacity="0.8">
<path d="M162.784 218.139C199.484 246.102 225.156 248.038 240.02 238.946C240.237 238.381 240.42 237.81 240.596 237.236C225.644 245.906 200.179 243.654 163.978 216.071C151.824 206.809 141.585 195.694 133.377 183.44C126.397 173.522 120.23 161.998 115.544 148.708C114.974 148.941 114.42 149.181 113.862 149.419C118.602 163.292 124.964 175.251 132.183 185.508C140.391 197.762 150.629 208.878 162.784 218.139V218.139Z" fill="white"/>
</g>
<path style="mix-blend-mode:overlay" opacity="0.3" d="M101.982 115.857C103.65 115.159 105.336 114.534 107.022 113.909C110.154 89.6353 120.693 59.5633 142.488 36.2449C134.322 37.4093 126.291 39.3337 118.531 42.0606C99.786 66.2704 93.5282 96.3579 93.8176 119.482C96.4219 118.26 99.1298 117.05 101.982 115.857V115.857Z" fill="url(#paint8_radial_306_288)"/>
<path style="mix-blend-mode:overlay" opacity="0.4" d="M107.022 113.909C107.864 113.597 108.704 113.278 109.551 112.983C113.054 88.7257 124.073 58.7664 146.279 35.7664C145.012 35.9077 143.748 36.0655 142.488 36.2452C120.693 59.5636 110.154 89.6357 107.022 113.909V113.909Z" fill="url(#paint9_linear_306_288)"/>
<path style="mix-blend-mode:multiply" opacity="0.4" d="M149.143 0.375064C105.226 3.36217 66.6654 23.8099 39.7566 54.4719C39.5533 54.7036 39.3513 54.9358 39.1494 55.1688L39.151 55.1666C44.3898 60.3631 61.5109 70.6096 68.4502 74.8825C82.075 60.2298 99.2033 48.7964 118.608 41.9832C119.963 40.237 121.368 38.514 122.856 36.8348C140.929 16.4407 165.61 5.66126 194.237 5.66126C197.423 5.66126 203.912 6.16843 204.052 6.17874C186.697 1.19279 168.201 -0.92129 149.143 0.375064Z" fill="url(#paint10_linear_306_288)"/>
<path style="mix-blend-mode:multiply" opacity="0.4" d="M168.489 284.798C134.455 287.113 102.64 275.504 78.5959 254.869H78.5957L78.5955 254.869C76.3575 254.564 74.1145 254.199 71.8678 253.74C45.1694 248.285 23.4938 232.301 9.18041 207.509C7.58725 204.75 6.16171 201.938 4.87695 199.083C23.3556 272.772 92.3981 324.962 170.858 319.625C171.206 311.545 168.824 292.797 168.489 284.798V284.798Z" fill="url(#paint11_linear_306_288)"/>
<path style="mix-blend-mode:multiply" opacity="0.4" d="M319.626 149.142C314.711 148.639 290.702 150.534 284.799 151.511C285.537 162.365 284.854 172.992 282.922 183.215C283.75 185.249 284.536 187.314 285.242 189.428C293.867 215.277 290.862 242.041 276.548 266.833C274.985 269.541 273.297 272.134 271.504 274.631C271.47 274.678 271.431 274.733 271.402 274.773C271.401 274.774 271.476 274.71 271.518 274.672C304.015 243.055 322.944 197.922 319.626 149.142V149.142Z" fill="url(#paint12_linear_306_288)"/>
<path style="mix-blend-mode:multiply" opacity="0.5" d="M195.89 41.6116C199.4 41.9708 203.145 42.8327 206.517 43.9651C206.672 44.0171 206.837 44.0611 206.99 44.1144C206.992 44.1114 206.995 44.1073 206.997 44.1043C220.8 49.7269 233.418 57.7667 244.312 67.7115C244.336 67.731 244.359 67.747 244.383 67.7665C249.633 61.7643 259.742 55.1688 259.742 55.1688C259.742 55.1688 244.262 39.3349 220.588 34.4211C204.014 30.981 166.632 27.6465 143.056 67.7665C143.056 67.7665 143.15 67.6781 143.287 67.5508C145.032 64.9147 146.886 62.3525 148.983 59.9859C160.4 47.1015 177.373 39.7165 195.89 41.6116V41.6116Z" fill="url(#paint13_linear_306_288)"/>
<path style="mix-blend-mode:multiply" opacity="0.5" d="M244.584 250.275C242.518 253.135 239.898 255.948 237.232 258.302C237.109 258.41 236.989 258.531 236.866 258.637C236.868 258.64 236.87 258.645 236.871 258.648C225.101 267.79 211.829 274.699 197.769 279.16C197.741 279.171 197.715 279.183 197.687 279.194C200.26 286.742 200.917 298.794 200.917 298.794C200.917 298.794 222.369 293.305 238.462 275.26C249.728 262.627 271.307 231.92 248.35 191.442C248.35 191.442 248.38 191.568 248.421 191.751C249.832 194.579 251.124 197.466 252.125 200.465C257.574 216.795 255.483 235.187 244.584 250.275V250.275Z" fill="url(#paint14_linear_306_288)"/>
<path style="mix-blend-mode:multiply" opacity="0.5" d="M39.544 188.15C38.0999 184.93 36.9735 181.256 36.2683 177.769C36.2358 177.609 36.1917 177.445 36.1612 177.285C36.1575 177.285 36.1524 177.284 36.1487 177.284C34.117 162.519 34.7702 147.571 37.9359 133.165C37.941 133.135 37.9432 133.106 37.9483 133.076C30.1251 131.531 19.3588 126.074 19.3588 126.074C19.3588 126.074 13.3859 147.396 20.9675 170.356C26.2751 186.429 42.0785 220.47 88.6117 220.828C88.6117 220.828 88.4882 220.791 88.309 220.735C85.154 220.543 82.008 220.218 78.9099 219.585C62.0431 216.14 47.1608 205.133 39.544 188.15V188.15Z" fill="url(#paint15_linear_306_288)"/>
<path style="mix-blend-mode:multiply" opacity="0.6" d="M189.157 104.107C190.435 104.268 191.698 104.313 192.949 104.293C192.949 104.293 192.113 87.6688 190.072 79.1393C188.031 70.6098 185.02 64.9614 181.712 61.7644C179.343 59.4742 171.864 56.6219 166.047 74.1988C164.169 88.8392 174.518 102.228 189.157 104.107Z" fill="url(#paint16_linear_306_288)"/>
<path style="mix-blend-mode:multiply" opacity="0.5" d="M97.0166 162.697C96.5179 161.51 95.9251 160.393 95.2826 159.32C95.2826 159.32 81.3032 168.356 74.9371 174.388C68.5709 180.421 65.1847 185.852 64.0697 190.315C63.2709 193.512 64.5405 201.416 82.6708 197.664C96.2886 191.97 102.709 176.314 97.0166 162.697V162.697Z" fill="url(#paint17_linear_306_288)"/>
<path style="mix-blend-mode:multiply" opacity="0.6" d="M193.819 213.185C193.041 214.21 192.37 215.282 191.762 216.375C191.762 216.375 206.577 223.964 214.984 226.461C223.392 228.957 229.789 229.174 234.211 227.908C237.379 227.002 243.589 221.95 231.275 208.125C219.535 199.178 202.766 201.446 193.819 213.185V213.185Z" fill="url(#paint18_linear_306_288)"/>
<path style="mix-blend-mode:multiply" opacity="0.3" d="M188.065 144.257C184.697 155.436 179.975 165.58 174.204 174.539C173.889 175.009 173.604 175.481 173.28 175.95C173.268 175.967 173.256 175.984 173.244 176.002C169.426 181.508 164.886 186.937 159.556 192.188C163.218 196.086 167.179 199.859 171.529 203.438C176.992 207.749 182.347 211.215 187.189 213.96C199.391 201.294 208.086 187.891 214.227 174.639C216.631 169.75 218.758 164.696 220.587 159.506C214.958 155.362 209.256 152.064 204.002 149.824C198.568 147.507 193.256 145.688 188.065 144.257V144.257Z" fill="url(#paint19_linear_306_288)"/>
<path style="mix-blend-mode:multiply" opacity="0.3" d="M78.5957 254.869C108.935 258.998 138.12 249.374 158.002 237.561C155.641 235.917 153.239 234.177 150.78 232.303C143.106 226.456 136.201 219.867 130.084 212.722C115.126 219.264 96.3054 223.102 78.8537 219.538C61.9868 216.093 47.1046 205.086 39.4877 188.103C38.0438 184.884 36.918 181.209 36.2124 177.723C40.6203 208.653 56.2278 235.673 78.5957 254.869V254.869Z" fill="url(#paint20_linear_306_288)"/>
<path style="mix-blend-mode:multiply" opacity="0.3" d="M159.556 192.189C151.566 183.687 145.147 174.532 140.277 165.062C140.028 164.554 139.761 164.071 139.518 163.556C139.508 163.537 139.5 163.518 139.49 163.499C136.63 157.437 134.197 150.788 132.314 143.543C127.12 144.766 121.883 146.307 116.62 148.28C110.17 150.85 104.5 153.747 99.7085 156.562C104.576 173.45 111.778 187.735 120.179 199.672C123.205 204.19 126.511 208.549 130.084 212.722C136.497 209.917 142.212 206.622 146.785 203.188C151.5 199.646 155.726 195.962 159.556 192.189V192.189Z" fill="url(#paint21_linear_306_288)"/>
<path style="mix-blend-mode:multiply" opacity="0.3" d="M118.514 42.097C99.7684 66.3066 93.5102 96.394 93.7996 119.518C96.4136 118.291 99.1334 117.076 101.997 115.878C110.888 112.16 120.036 109.476 129.271 107.75C131.086 91.5278 137.172 73.3147 148.982 59.986C160.399 47.1016 177.373 39.7166 195.889 41.6117C199.399 41.9709 203.145 42.8327 206.516 43.9652C206.671 44.0172 206.836 44.0612 206.989 44.1145C206.991 44.1115 206.995 44.1074 206.997 44.1044C189.938 37.1551 171.093 33.8706 151.511 35.2025C140.011 35.9848 128.991 38.3377 118.607 41.9833C118.578 42.0219 118.544 42.0583 118.514 42.0968L118.514 42.097V42.097Z" fill="url(#paint22_linear_306_288)"/>
<path style="mix-blend-mode:multiply" opacity="0.3" d="M282.854 183.037C271.254 154.684 248.31 134.214 228.132 122.906C227.887 125.783 227.58 128.745 227.186 131.823C225.96 141.38 223.711 150.645 220.587 159.506C233.74 169.188 246.485 183.574 252.127 200.479C257.577 216.809 255.486 235.201 244.587 250.289C242.52 253.149 239.901 255.962 237.235 258.316C237.196 258.35 237.158 258.386 237.12 258.421C260.61 239.959 277.224 213.351 282.92 183.216C282.897 183.157 282.878 183.096 282.854 183.038V183.037V183.037Z" fill="url(#paint23_linear_306_288)"/>
<path style="mix-blend-mode:multiply" opacity="0.3" d="M129.176 126.992C129.886 132.844 130.963 138.342 132.314 143.544C143.684 140.868 154.834 139.885 165.482 140.403C166.046 140.441 166.597 140.452 167.166 140.498C167.187 140.5 167.208 140.502 167.229 140.503C173.898 141.056 180.861 142.271 188.064 144.257C189.605 139.144 190.889 133.834 191.813 128.286C192.817 121.389 193.14 115.011 193.095 109.44C176.038 105.213 160.094 104.385 145.557 105.692C140.121 106.055 134.681 106.74 129.271 107.751C128.493 114.711 128.488 121.312 129.176 126.992H129.176Z" fill="url(#paint24_linear_306_288)"/>
<defs>
<linearGradient id="paint0_linear_306_288" x1="50.8094" y1="269.197" x2="254.836" y2="65.1713" gradientUnits="userSpaceOnUse">
<stop offset="0.001139" stop-color="#E6007A"/>
<stop offset="0.207149" stop-color="#703AC2"/>
<stop offset="0.456011" stop-color="#0070EB"/>
<stop offset="0.768132" stop-color="#0297FB"/>
<stop offset="1" stop-color="#0AE2FF"/>
</linearGradient>
<radialGradient id="paint1_radial_306_288" cx="0" cy="0" r="1" gradientUnits="userSpaceOnUse" gradientTransform="translate(205.607 127.613) scale(60.8351 60.8351)">
<stop stop-color="white"/>
<stop offset="1" stop-color="white" stop-opacity="0"/>
</radialGradient>
<radialGradient id="paint2_radial_306_288" cx="0" cy="0" r="1" gradientUnits="userSpaceOnUse" gradientTransform="translate(115.685 240.47) scale(35.3944 35.3944)">
<stop stop-color="white"/>
<stop offset="1" stop-color="white" stop-opacity="0"/>
</radialGradient>
<linearGradient id="paint3_linear_306_288" x1="62.5686" y1="234.483" x2="96.6865" y2="234.009" gradientUnits="userSpaceOnUse">
<stop stop-color="white" stop-opacity="0"/>
<stop offset="1" stop-color="white"/>
</linearGradient>
<radialGradient id="paint4_radial_306_288" cx="0" cy="0" r="1" gradientUnits="userSpaceOnUse" gradientTransform="translate(109.148 136.697) rotate(-120) scale(60.8351 60.8351)">
<stop stop-color="white"/>
<stop offset="1" stop-color="white" stop-opacity="0"/>
</radialGradient>
<radialGradient id="paint5_radial_306_288" cx="0" cy="0" r="1" gradientUnits="userSpaceOnUse" gradientTransform="translate(251.846 158.144) rotate(-120) scale(35.3944 35.3944)">
<stop stop-color="white"/>
<stop offset="1" stop-color="white" stop-opacity="0"/>
</radialGradient>
<linearGradient id="paint6_linear_306_288" x1="273.22" y1="207.137" x2="255.75" y2="177.827" gradientUnits="userSpaceOnUse">
<stop stop-color="white" stop-opacity="0"/>
<stop offset="1" stop-color="white"/>
</linearGradient>
<radialGradient id="paint7_radial_306_288" cx="0" cy="0" r="1" gradientUnits="userSpaceOnUse" gradientTransform="translate(162.361 212.871) rotate(120) scale(60.8351 60.8351)">
<stop stop-color="white"/>
<stop offset="1" stop-color="white" stop-opacity="0"/>
</radialGradient>
<radialGradient id="paint8_radial_306_288" cx="0" cy="0" r="1" gradientUnits="userSpaceOnUse" gradientTransform="translate(112.457 81.3805) rotate(120) scale(35.3944 35.3944)">
<stop stop-color="white"/>
<stop offset="1" stop-color="white" stop-opacity="0"/>
</radialGradient>
<linearGradient id="paint9_linear_306_288" x1="144.201" y1="38.374" x2="127.552" y2="68.1579" gradientUnits="userSpaceOnUse">
<stop stop-color="white" stop-opacity="0"/>
<stop offset="1" stop-color="white"/>
</linearGradient>
<linearGradient id="paint10_linear_306_288" x1="151.618" y1="23.2334" x2="99.4937" y2="38.3969" gradientUnits="userSpaceOnUse">
<stop stop-color="#231F20"/>
<stop offset="1" stop-color="white"/>
</linearGradient>
<linearGradient id="paint11_linear_306_288" x1="53.1128" y1="222.033" x2="96.7079" y2="267.523" gradientUnits="userSpaceOnUse">
<stop stop-color="#231F20"/>
<stop offset="1" stop-color="white"/>
</linearGradient>
<linearGradient id="paint12_linear_306_288" x1="287.09" y1="215.177" x2="302.254" y2="169.054" gradientUnits="userSpaceOnUse">
<stop stop-color="#231F20"/>
<stop offset="1" stop-color="white"/>
</linearGradient>
<linearGradient id="paint13_linear_306_288" x1="175.369" y1="49.6087" x2="245.254" y2="65.6102" gradientUnits="userSpaceOnUse">
<stop stop-color="#231F20"/>
<stop offset="1" stop-color="white"/>
</linearGradient>
<linearGradient id="paint14_linear_306_288" x1="247.918" y1="228.505" x2="199.118" y2="281.026" gradientUnits="userSpaceOnUse">
<stop stop-color="#231F20"/>
<stop offset="1" stop-color="white"/>
</linearGradient>
<linearGradient id="paint15_linear_306_288" x1="56.7298" y1="201.922" x2="35.6454" y2="133.4" gradientUnits="userSpaceOnUse">
<stop stop-color="#231F20"/>
<stop offset="1" stop-color="white"/>
</linearGradient>
<linearGradient id="paint16_linear_306_288" x1="190.647" y1="75.3842" x2="168.534" y2="97.4977" gradientUnits="userSpaceOnUse">
<stop stop-color="#231F20"/>
<stop offset="1" stop-color="white"/>
</linearGradient>
<linearGradient id="paint17_linear_306_288" x1="71.3974" y1="175.768" x2="101.605" y2="183.862" gradientUnits="userSpaceOnUse">
<stop stop-color="#231F20"/>
<stop offset="1" stop-color="white"/>
</linearGradient>
<linearGradient id="paint18_linear_306_288" x1="217.949" y1="228.836" x2="209.855" y2="198.629" gradientUnits="userSpaceOnUse">
<stop stop-color="#231F20"/>
<stop offset="1" stop-color="white"/>
</linearGradient>
<linearGradient id="paint19_linear_306_288" x1="171.968" y1="201.975" x2="185.236" y2="183.653" gradientUnits="userSpaceOnUse">
<stop stop-color="#231F20"/>
<stop offset="1" stop-color="white"/>
</linearGradient>
<linearGradient id="paint20_linear_306_288" x1="126.282" y1="194.042" x2="99.7459" y2="206.679" gradientUnits="userSpaceOnUse">
<stop stop-color="#231F20"/>
<stop offset="1" stop-color="white"/>
</linearGradient>
<linearGradient id="paint21_linear_306_288" x1="116.653" y1="149.871" x2="124.866" y2="166.93" gradientUnits="userSpaceOnUse">
<stop stop-color="#231F20"/>
<stop offset="1" stop-color="white"/>
</linearGradient>
<linearGradient id="paint22_linear_306_288" x1="154.862" y1="97.1862" x2="149.176" y2="77.6" gradientUnits="userSpaceOnUse">
<stop stop-color="#231F20"/>
<stop offset="1" stop-color="white"/>
</linearGradient>
<linearGradient id="paint23_linear_306_288" x1="216.147" y1="186.861" x2="232.574" y2="190.652" gradientUnits="userSpaceOnUse">
<stop stop-color="#231F20"/>
<stop offset="1" stop-color="white"/>
</linearGradient>
<linearGradient id="paint24_linear_306_288" x1="190.366" y1="131.369" x2="169.516" y2="127.578" gradientUnits="userSpaceOnUse">
<stop stop-color="#231F20"/>
<stop offset="1" stop-color="white"/>
</linearGradient>
</defs>
</svg>
