<svg width="320" height="320" viewBox="0 0 320 320" fill="none" xmlns="http://www.w3.org/2000/svg">
<g clip-path="url(#clip0_306_283)">
<path d="M160 320C248.366 320 320 248.366 320 160C320 71.6344 248.366 0 160 0C71.6344 0 0 71.6344 0 160C0 248.366 71.6344 320 160 320Z" fill="#F4B731"/>
<path fill-rule="evenodd" clip-rule="evenodd" d="M92.77 80H158.29C198.14 80 228.35 101.16 239.59 131.94H260V150.55H243.89C244.2 153.49 244.36 156.49 244.36 159.53V159.99C244.36 163.41 244.16 166.79 243.76 170.09H260V188.69H239.2C227.67 219.05 197.7 240 158.3 240H92.77V188.69H70V170.09H92.77V150.55H70V131.95H92.77V80V80ZM111.08 188.69V223.31H158.28C187.42 223.31 209.06 209.44 219.13 188.69H111.08V188.69ZM224.74 170.09H111.08V150.55H224.78C225.19 153.62 225.41 156.77 225.41 159.99V160.44C225.41 163.73 225.18 166.94 224.74 170.08V170.09ZM158.3 96.65C187.56 96.65 209.27 110.89 219.28 131.93H111.08V96.66H158.28L158.3 96.65Z" fill="white"/>
</g>
<defs>
<clipPath id="clip0_306_283">
<rect width="320" height="320" rx="160" fill="white"/>
</clipPath>
</defs>
</svg>
