<svg width="48" height="48" viewBox="0 0 48 48" fill="none" xmlns="http://www.w3.org/2000/svg">
<rect width="48" height="48" rx="24" fill="#E6007A"/>
<path d="M24.0003 14.1534C27.3706 14.1534 30.1028 12.5636 30.1028 10.6026C30.1028 8.64151 27.3706 7.05176 24.0003 7.05176C20.63 7.05176 17.8978 8.64151 17.8978 10.6026C17.8978 12.5636 20.63 14.1534 24.0003 14.1534Z" fill="white"/>
<path d="M24.0003 40.8982C27.3706 40.8982 30.1028 39.3085 30.1028 37.3474C30.1028 35.3864 27.3706 33.7966 24.0003 33.7966C20.63 33.7966 17.8978 35.3864 17.8978 37.3474C17.8978 39.3085 20.63 40.8982 24.0003 40.8982Z" fill="white"/>
<path d="M15.4947 19.0643C17.1799 16.1455 17.1692 12.9845 15.4709 12.004C13.7726 11.0235 11.0297 12.5947 9.34457 15.5135C7.65941 18.4323 7.67009 21.5933 9.36841 22.5738C11.0667 23.5543 13.8096 21.9831 15.4947 19.0643Z" fill="white"/>
<path d="M38.6562 32.4367C40.3414 29.5179 40.3307 26.3569 38.6324 25.3764C36.9341 24.3959 34.1912 25.9671 32.5061 28.8859C30.8209 31.8047 30.8316 34.9657 32.5299 35.9462C34.2282 36.9267 36.9711 35.3555 38.6562 32.4367Z" fill="white"/>
<path d="M15.4709 35.946C17.1692 34.9655 17.1799 31.8045 15.4947 28.8857C13.8096 25.967 11.0667 24.3957 9.3684 25.3762C7.67008 26.3568 7.65941 29.5178 9.34456 32.4365C11.0297 35.3553 13.7726 36.9266 15.4709 35.946Z" fill="white"/>
<path d="M38.6322 22.5739C40.3306 21.5934 40.3412 18.4324 38.6561 15.5136C36.9709 12.5948 34.2281 11.0236 32.5298 12.0041C30.8314 12.9846 30.8208 16.1456 32.5059 19.0644C34.1911 21.9832 36.9339 23.5544 38.6322 22.5739Z" fill="white"/>
</svg>
