<svg width="320" height="320" viewBox="0 0 320 320" fill="none" xmlns="http://www.w3.org/2000/svg">
<path d="M160 320C248.366 320 320 248.366 320 160C320 71.6344 248.366 0 160 0C71.6344 0 0 71.6344 0 160C0 248.366 71.6344 320 160 320Z" fill="#FF0066"/>
<path d="M160.002 98.0818C182.595 98.0818 200.91 88.0645 200.91 75.7076C200.91 63.3507 182.595 53.3335 160.002 53.3335C137.409 53.3335 119.094 63.3507 119.094 75.7076C119.094 88.0645 137.409 98.0818 160.002 98.0818Z" fill="white"/>
<path d="M160.002 266.667C182.595 266.667 200.91 256.65 200.91 244.293C200.91 231.936 182.595 221.919 160.002 221.919C137.409 221.919 119.094 231.936 119.094 244.293C119.094 256.65 137.409 266.667 160.002 266.667Z" fill="white"/>
<path d="M102.994 129.053C114.29 110.653 114.217 90.7256 102.83 84.543C91.4432 78.3604 73.0546 88.2641 61.7581 106.664C50.4616 125.063 50.535 144.991 61.9219 151.173C73.3088 157.356 91.6974 147.452 102.994 129.053Z" fill="white"/>
<path d="M258.229 213.335C269.525 194.936 269.458 175.012 258.079 168.833C246.7 162.655 228.317 172.562 217.021 190.961C205.724 209.361 205.791 229.285 217.171 235.463C228.55 241.642 246.932 231.735 258.229 213.335Z" fill="white"/>
<path d="M102.836 235.458C114.223 229.276 114.296 209.348 103 190.949C91.7031 172.549 73.3146 162.645 61.9277 168.828C50.5408 175.011 50.4674 194.938 61.7639 213.338C73.0604 231.737 91.4489 241.641 102.836 235.458Z" fill="white"/>
<path d="M258.088 151.178C269.468 145 269.535 125.076 258.238 106.676C246.942 88.2766 228.559 78.3695 217.18 84.548C205.801 90.7264 205.734 110.651 217.03 129.05C228.327 147.45 246.709 157.357 258.088 151.178Z" fill="white"/>
</svg>
