<svg width="320" height="320" viewBox="0 0 320 320" fill="none" xmlns="http://www.w3.org/2000/svg">
<g clip-path="url(#clip0_306_260)">
<path d="M320 160C320 248 248 320 160 320C72 320 0 248 0 160C0 72 72 0 160 0C248 0 320 72 320 160Z" fill="white"/>
<path d="M160 40L232.8 160.8L160 129.6V40Z" fill="#62678F"/>
<path d="M87.2002 160.8L160 40V129.6L87.2002 160.8Z" fill="#8C92B2"/>
<path d="M160 205.6L87.2002 160.8L160 129.6V205.6Z" fill="#62678F"/>
<path d="M232.8 160.8L160 129.6V205.6L232.8 160.8Z" fill="#444971"/>
<path d="M160 220.8L232.8 177.6L160 280V220.8Z" fill="#62678F"/>
<path d="M160 220.8L87.2002 177.6L160 280V220.8Z" fill="#8C92B2"/>
</g>
<defs>
<clipPath id="clip0_306_260">
<rect width="320" height="320" fill="white"/>
</clipPath>
</defs>
</svg>
