<svg width="320" height="320" viewBox="0 0 320 320" fill="none" xmlns="http://www.w3.org/2000/svg">
<g clip-path="url(#clip0_306_269)">
<path d="M173.698 0.618008C241.618 6.21801 298.338 54.25 315.122 119.882C318.322 132.69 319.122 141.498 319.922 155.906C320.722 183.122 315.922 206.338 303.938 230.354C295.146 247.954 286.362 260.77 271.978 274.378C252.002 294.386 227.234 307.994 200.066 315.202C173.698 321.602 144.938 321.602 119.37 315.202C55.4418 298.386 7.50584 243.154 0.313844 176.722C-0.486156 165.514 0.313844 143.898 1.91384 133.49C8.30585 99.874 21.8898 71.858 45.0578 48.642C65.7257 27.134 92.03 11.8776 120.962 4.61801C138.546 0.618009 156.122 -0.981992 173.698 0.618008Z" fill="black"/>
<path d="M271.096 92.449C267.32 89.473 262.824 85.409 254.616 84.393C246.936 83.377 239.096 88.529 233.792 91.937C228.496 95.345 218.488 105.361 214.352 108.409C210.216 111.457 199.616 114.289 182.568 124.521C165.512 134.745 98.6084 177.705 98.6084 177.705L116.024 177.921L38.3844 217.905H46.1444L34.9844 226.401C34.9844 226.401 44.8484 229.017 53.1204 223.793V226.193C53.1204 226.193 145.568 189.761 163.416 199.193L152.536 202.393C153.48 202.393 171.04 203.545 171.04 203.545C171.466 207.181 172.687 210.679 174.617 213.79C176.547 216.901 179.139 219.549 182.208 221.545C192.808 228.505 193.024 232.353 193.024 232.353C193.024 232.353 187.504 234.601 187.504 237.433C187.504 237.433 195.632 234.969 203.184 235.185C207.975 235.366 212.726 236.121 217.336 237.433C217.336 237.433 216.752 234.393 209.416 232.353C202.096 230.321 194.84 222.337 191.28 217.985C189.103 215.214 187.684 211.924 187.162 208.439C186.64 204.953 187.034 201.392 188.304 198.105C190.848 191.497 199.696 187.873 217.984 178.441C239.536 167.265 244.464 158.993 247.52 152.537C250.56 146.081 255.064 133.233 257.6 127.209C260.8 119.449 264.72 115.313 267.976 112.841C271.248 110.377 285.76 104.937 285.76 104.937C285.76 104.937 274.656 95.281 271.104 92.457L271.096 92.449Z" fill="white"/>
</g>
<defs>
<clipPath id="clip0_306_269">
<rect width="320" height="320" fill="white"/>
</clipPath>
</defs>
</svg>
