<svg width="48" height="48" viewBox="0 0 48 48" fill="none" xmlns="http://www.w3.org/2000/svg">
<rect width="48" height="48" rx="24" fill="black"/>
<path d="M40.702 13.8438C40.1348 13.3965 39.4584 12.7856 38.2257 12.6329C37.0693 12.4801 35.8911 13.2547 35.0948 13.7674C34.2984 14.2801 32.793 15.7856 32.1711 16.2438C31.5493 16.702 29.9566 17.1274 27.393 18.6656C24.8293 20.2038 14.7711 26.662 14.7711 26.662L17.3893 26.6947L5.71658 32.7056H6.88386L5.20386 33.982C5.20386 33.982 6.68749 34.3747 7.93113 33.5892V33.9492C7.93113 33.9492 21.8293 28.4729 24.513 29.8911L22.8766 30.3711C23.0184 30.3711 25.6584 30.5456 25.6584 30.5456C25.6584 30.5456 25.7457 32.1929 27.3384 33.2511C28.9311 34.2983 28.9639 34.8765 28.9639 34.8765C28.9639 34.8765 28.1348 35.2147 28.1348 35.6401C28.1348 35.6401 29.3566 35.2692 30.4911 35.302C31.6257 35.3347 32.6184 35.6401 32.6184 35.6401C32.6184 35.6401 32.5311 35.182 31.4293 34.8765C30.3166 34.5601 29.2366 33.3711 28.702 32.7165C28.1675 32.062 27.7966 30.8947 28.2548 29.7274C28.6366 28.7347 29.9675 28.1892 32.7166 26.7711C35.9566 25.0911 36.6984 23.8474 37.1566 22.8765C37.6148 21.9056 38.2911 19.9747 38.673 19.0692C39.153 17.902 39.742 17.2801 40.233 16.9092C40.713 16.5383 42.9057 15.7201 42.9057 15.7201C42.9057 15.7201 41.2366 14.2692 40.702 13.8438Z" fill="white"/>
</svg>
