<svg width="320" height="320" viewBox="0 0 320 320" fill="none" xmlns="http://www.w3.org/2000/svg">
<g clip-path="url(#clip0_306_257)">
<path d="M160 0C248 0 320 72 320 160C320 248 248 320 160 320C72 320 0 248 0 160C0 72 72 0 160 0Z" fill="url(#paint0_linear_306_257)"/>
<path d="M244 58.3998C223.2 67.1998 203.2 70.3998 186.4 69.5998C172.8 68.7998 164 65.5998 162.4 64.7998L160 63.9998L158.4 64.7998C156 65.5998 148 68.7998 134.4 69.5998C116.8 70.3998 97.6004 67.1998 76.8004 58.3998L70.4004 56.7998V63.1998C70.4004 63.9998 70.4004 107.2 73.6004 136.8C75.2004 158.4 84.8004 185.6 100 214.4C108 228 116 241.6 125.6 255.2C136 268.8 146.4 280.8 157.6 291.2L160 293.6L162.4 291.2C173.6 280.8 184 268.8 194.4 255.2C204 242.4 212.8 228.8 220 214.4C234.4 186.4 244 159.2 246.4 136.8C248.8 105.6 249.6 63.1998 249.6 63.1998V56.7998C251.2 56.7998 244 58.3998 244 58.3998ZM134.4 77.5998C147.2 76.7998 156 74.3998 160 72.7998C164 74.3998 172.8 77.5998 185.6 77.5998H192C207.2 77.5998 224 74.3998 240.8 67.9998C240.8 80.7998 240 112 238.4 136H160.8V134.4C161.6 130.4 161.6 126.4 160.8 122.4C160.8 121.6 160.8 120 160 119.2C160 117.6 160 116.8 160.8 115.2V114.4C162.4 114.4 162.4 115.2 162.4 116C162.4 117.6 162.4 118.4 164 119.2C165.6 120.8 167.2 120.8 170.4 120.8V119.2C172 119.2 172.8 119.2 172.8 118.4C172.8 117.6 172.8 116.8 172 115.2H172.8C175.2 116 177.6 114.4 180.8 112.8C181.6 112 181.6 112 180.8 111.2C180 109.6 179.2 108.8 176.8 108.8L178.4 107.2C179.2 106.4 179.2 105.6 180 105.6C180.8 104 180.8 104 179.2 102.4C177.6 100.8 175.2 100.8 172 100.8H170.4C171.2 99.9998 171.2 99.1998 172 98.3998C173.6 95.9998 172.8 93.5998 172 90.3998C172 89.5998 171.2 89.5998 171.2 89.5998C169.6 89.5998 168 90.3998 167.2 90.3998C167.2 90.3998 166.4 90.3998 166.4 91.1998C166.4 89.5998 165.6 87.9998 164.8 87.1998C164 86.3998 164 86.3998 163.2 86.3998C160.8 87.1998 159.2 87.9998 158.4 90.3998C158.4 88.7998 157.6 87.9998 157.6 87.1998C156.8 85.5998 156 83.9998 154.4 83.1998C153.6 82.3998 152.8 82.3998 151.2 83.1998C149.6 83.9998 148.8 85.5998 148 87.9998H144C143.2 87.9998 142.4 87.9998 142.4 89.5998C141.6 91.1998 141.6 93.5998 142.4 95.9998C140.8 96.7998 140 96.7998 138.4 97.5998C137.6 97.5998 137.6 98.3998 137.6 98.3998C137.6 100.8 137.6 102.4 139.2 104.8C137.6 105.6 136 105.6 135.2 107.2C136 109.6 137.6 112 141.6 113.6C140.8 114.4 139.2 115.2 138.4 116C137.6 116.8 137.6 117.6 138.4 118.4C140 120.8 142.4 122.4 146.4 122.4H149.6C150.4 122.4 152 121.6 152 120C152 119.2 152 118.4 152.8 117.6H153.6C156 116.8 156 116.8 157.6 119.2C158.4 120 158.4 120.8 158.4 122.4C157.6 126.4 157.6 131.2 155.2 135.2C155.2 136.8 155.2 136.8 152 136.8H84.0004C81.6004 113.6 81.6004 81.5998 81.6004 68.7998C98.4004 75.9998 116.8 78.3998 134.4 77.5998ZM199.2 188C189.6 188 181.6 180 181.6 170.4C181.6 160.8 189.6 152.8 199.2 152.8C208.8 152.8 216.8 160.8 216.8 170.4C216.8 180 208.8 188 199.2 188ZM149.6 204C149.6 204 149.6 204.8 148.8 204.8C148 206.4 146.4 207.2 144.8 207.2C143.2 206.4 140.8 206.4 138.4 206.4C137.6 206.4 136.8 206.4 136 207.2C135.2 208 134.4 208 133.6 207.2C132.8 207.2 132 208 131.2 208H129.6C128.8 208.8 127.2 208 127.2 207.2C126.4 207.2 125.6 208.8 124 208V206.4C122.4 206.4 121.6 208 120 208C120.8 207.2 121.6 205.6 122.4 204.8C121.6 205.6 120.8 206.4 120 206.4C119.2 206.4 118.4 207.2 116.8 207.2L120 204C117.6 204.8 115.2 207.2 112 206.4C113.6 205.6 114.4 204.8 115.2 204C113.6 204 112 205.6 110.4 204.8C112.8 203.2 116.8 201.6 119.2 200C117.6 199.2 116.8 200 116 200.8C114.4 201.6 112.8 201.6 111.2 201.6C112.8 200.8 114.4 200.8 116 200L123.2 197.6C124 197.6 124.8 196.8 125.6 196.8C128 196 128.8 194.4 130.4 192.8C132 191.2 134.4 189.6 137.6 189.6C138.4 189.6 139.2 189.6 140 190.4C140.8 190.4 141.6 191.2 142.4 192V190.4C141.6 189.6 141.6 188.8 142.4 188C143.2 187.2 144 187.2 144.8 187.2C145.6 187.2 146.4 188 147.2 188.8C148 188.8 148.8 188.8 148.8 188V184.8C148 181.6 149.6 177.6 152.8 176C155.2 174.4 157.6 172 160.8 169.6L165.6 164.8C166.4 164 166.4 164 167.2 164C166.4 165.6 165.6 166.4 164.8 168C167.2 167.2 168.8 165.6 172 165.6C171.2 166.4 171.2 167.2 170.4 167.2C171.2 168 172 166.4 173.6 167.2C174.4 168 172.8 168.8 172.8 169.6C173.6 169.6 173.6 170.4 173.6 170.4C173.6 171.2 172.8 171.2 172.8 172C172.8 172.8 172 172.8 172 173.6C172.8 173.6 173.6 173.6 175.2 174.4L172.8 176V176.8C172 177.6 171.2 178.4 171.2 179.2C171.2 180 170.4 180.8 169.6 181.6C169.6 182.4 169.6 182.4 168.8 183.2C168.8 183.2 168.8 184 168 184C166.4 184.8 166.4 186.4 166.4 188C166.4 189.6 166.4 190.4 165.6 192L164.8 192.8C164 193.6 162.4 194.4 161.6 195.2C165.6 193.6 169.6 192 173.6 191.2C174.4 192 174.4 192.8 175.2 193.6V204C175.2 204.8 174.4 204.8 174.4 205.6C174.4 206.4 173.6 206.4 173.6 207.2C173.6 208.8 173.6 209.6 172 209.6C171.2 211.2 170.4 212 169.6 213.6H168C167.2 213.6 166.4 213.6 166.4 214.4C166.4 215.2 165.6 215.2 165.6 215.2H164.8C164 216.8 162.4 216.8 161.6 217.6H160C159.2 217.6 158.4 216.8 158.4 217.6C157.6 218.4 156.8 217.6 156.8 217.6C156 216.8 155.2 216.8 154.4 217.6H152C150.4 216.8 148.8 216.8 147.2 216C146.4 215.2 145.6 215.2 146.4 214.4C147.2 212.8 148 210.4 148 208C148.8 206.4 148.8 204.8 149.6 203.2C150.4 204.8 150.4 204 149.6 204ZM159.2 108.8C160 108.8 160.8 109.6 161.6 109.6C161.6 111.2 160.8 112 160 113.6C160 112 160 110.4 159.2 108.8ZM157.6 116C156.8 115.2 156 115.2 155.2 114.4C154.4 113.6 153.6 113.6 153.6 112.8C153.6 112.8 153.6 112 154.4 111.2C155.2 110.4 156 110.4 156.8 111.2V112C157.6 112 157.6 113.6 157.6 116ZM160 282.4C140 263.2 122.4 238.4 107.2 212H108C109.6 212 110.4 212.8 112 212.8C114.4 212.8 116.8 213.6 120 213.6C121.6 213.6 123.2 213.6 124.8 214.4C128 214.4 131.2 213.6 133.6 212.8C135.2 212 137.6 212 140 212C140 212.8 140 213.6 139.2 214.4C137.6 217.6 140 221.6 143.2 223.2C144.8 224 147.2 224.8 149.6 225.6H156.8C158.4 225.6 160 225.6 161.6 224.8C162.4 224.8 164 224 164.8 223.2L172.8 218.4C173.6 217.6 173.6 217.6 173.6 216.8C174.4 216 174.4 215.2 175.2 215.2C176.8 214.4 176.8 212.8 177.6 212C178.4 210.4 178.4 210.4 179.2 210.4C185.6 210.4 191.2 210.4 196.8 211.2C199.2 211.2 201.6 211.2 205.6 212C207.2 212 208.8 212 210.4 212.8C197.6 238.4 180 263.2 160 282.4Z" fill="white"/>
</g>
<defs>
<linearGradient id="paint0_linear_306_257" x1="57.0712" y1="63.52" x2="246" y2="240.608" gradientUnits="userSpaceOnUse">
<stop stop-color="#0360B6"/>
<stop offset="1" stop-color="#043A9C"/>
</linearGradient>
<clipPath id="clip0_306_257">
<rect width="320" height="320" fill="white"/>
</clipPath>
</defs>
</svg>
