<svg width="320" height="320" viewBox="0 0 320 320" fill="none" xmlns="http://www.w3.org/2000/svg">
<path fill-rule="evenodd" clip-rule="evenodd" d="M149.539 0.128383C64.3088 6.69106 0.140085 75.1407 0.000227068 159.641C-0.175201 266.266 101.327 342.88 204.21 313.778C257.846 298.605 300.755 254.626 314.772 200.46C339.218 105.989 275.295 12.636 178.09 0.848046C173.034 0.23512 154.29 -0.237917 149.539 0.128383Z" fill="#050404"/>
<path fill-rule="evenodd" clip-rule="evenodd" d="M71.9553 43.3134C68.0336 43.708 61.9906 54.8838 59.7424 65.8995C57.4675 77.0478 57.6122 93.1957 60.1264 108.619L60.8418 113.011L59.6397 116.426C54.3219 131.527 51.2256 148.631 50.7891 165.32L51 173.5C97.5 227 121 160.643 160 160.643C204.5 160.643 216.5 226.5 267 176L267.716 168.429C268.548 154.842 264.613 123.747 260.788 113.684C260.628 113.265 260.696 111.449 260.958 109.153C263.73 84.8128 261.356 62.0933 254.703 49.293C251.985 44.063 251.905 43.995 248.046 43.6376C232.86 42.2298 216.193 48.9486 203.431 61.6219L199.602 65.4256L195.363 63.7558C170.896 54.1164 144.99 54.1301 124.78 63.7955L121.124 65.5437L119.815 64.2814C109.186 54.0331 90.469 44.6557 78.1858 43.4242C74.8082 43.0862 74.3102 43.0773 71.9553 43.3134ZM112.492 148.449C119.961 150.032 127.041 159.042 123.384 162.31C121.474 164.018 119.31 163.081 118.229 160.077C115.225 151.744 100.798 152.168 98.9696 160.643C98.1757 164.322 93.0786 163.727 93.136 159.963C93.2476 152.557 103.395 146.52 112.492 148.449ZM214.683 148.467C220.733 149.749 225.774 154.369 226.515 159.308C227.205 163.909 221.899 164.664 220.587 160.15C218.197 151.927 205.125 151.99 201.365 160.243C200.229 162.736 199.258 163.446 197.51 163.062C195.112 162.536 194.713 160.151 196.443 156.693C199.713 150.154 207.043 146.849 214.683 148.467Z" fill="#DB8B24"/>
<path fill-rule="evenodd" clip-rule="evenodd" d="M81.4183 60.134C75.976 61.7901 75.1069 65.3471 74.4286 88.7418C74.1675 97.7312 74.621 98.784 78.761 98.7953L80.6438 98.8001L83.5921 96.3387C88.6893 92.0838 105.184 82.5034 107.412 82.5034C108.521 82.5034 110.592 79.7218 110.592 78.2348C110.592 71.4182 88.7895 57.891 81.4183 60.134ZM231.082 60.9273C220.155 64.6145 209.194 73.2529 209.194 78.1765C209.194 80.7115 209.614 81.0382 218.767 85.6077C227.409 89.9224 231.262 92.3175 236.235 96.4657C239.791 99.4317 242.068 99.7446 244.246 97.5654L245.277 96.5344L245.274 92.0798C245.266 80.9824 244.341 68.5436 243.25 64.8709C241.882 60.2658 237.373 58.8047 231.082 60.9273ZM104.452 119.137C88.4637 123.328 90.7475 138.636 107.333 138.458C121.924 138.301 129.46 125.849 118.367 120.227C114.87 118.454 108.855 117.984 104.452 119.137ZM204.657 119.002C189.487 123.083 195.7 138.426 212.537 138.461C224.56 138.485 230.371 129.759 222.841 122.988C218.736 119.296 210.376 117.464 204.657 119.002Z" fill="#ECC48A"/>
<path d="M151.264 274.881C145.238 278.416 141.95 284.628 142 291C142 293.495 142.479 295.966 143.408 298.271C144.338 300.576 145.701 302.671 147.419 304.435C149.136 306.199 151.176 307.599 153.42 308.554C155.665 309.509 158.071 310 160.5 310C162.929 310 165.335 309.509 167.58 308.554C169.824 307.599 171.864 306.199 173.581 304.435C174.672 303.315 175.619 302.063 176.403 300.708C180.847 293.493 179.922 284.083 173.746 277.906C171.928 276.087 167.863 273.36 167.572 273.765C167.53 273.824 167.326 274.46 167.12 275.178C165.657 280.277 160.382 282.321 156.872 279.149C155.731 278.118 154.038 275.163 154.038 274.202C154.038 273.462 153.431 273.61 151.264 274.881Z" fill="#C31B33"/>
<path fill-rule="evenodd" clip-rule="evenodd" d="M149.538 5.09204C148.856 5.15753 146.691 5.35888 144.728 5.54001C37.2277 15.4568 -27.3259 132.37 21.1901 229.28C74.6966 336.16 224.274 344.778 289.791 244.755C356.7 142.607 283.699 6.06479 161.641 5.06212C155.668 5.01279 150.221 5.02654 149.538 5.09204ZM83.7469 38.7351C94.7156 41.042 108.058 47.8141 119.363 56.8131L122.084 58.9786L125.045 57.6792C145.523 48.6963 172.442 49.044 197.33 58.6115C198.231 58.9576 198.336 58.8977 200.589 56.7541C213.116 44.8312 227.16 38.6857 242.949 38.2167C250.195 38.0016 253.885 38.541 255.122 39.9949C265.219 51.8701 269.65 78.2834 266.535 108.039L266.088 112.31L267.31 117.352C275.201 149.887 275.14 178.912 267.134 200.349C261.526 215.368 252.654 227.536 240.311 237.136C237.573 239.265 230.152 244.228 229.705 244.228C229.565 244.228 229.449 248.63 229.449 254.01V263.791L227.714 264.902C217.646 271.345 196.34 278.599 181.252 280.722C180.033 280.893 179.798 281.025 179.971 281.438C185.02 293.434 179.849 306.64 168.408 310.969C151.528 317.355 134.463 301.183 140.237 284.271C140.733 282.82 141.143 281.506 141.148 281.352C141.154 281.198 139.204 280.741 136.814 280.336C122.399 277.895 100.819 270.367 91.7382 264.612L90.4196 263.776L90.4132 246.557L87.5691 245.004C54.2628 226.831 40.0426 191.492 47.1624 144.588C48.5933 135.164 50.9653 125.25 53.8845 116.496C54.9944 113.168 55.1901 112.243 55.0001 111.219C50.3977 86.4139 52.5579 61.6502 60.5217 47.8958C63.4983 42.7555 67.7304 38.2725 69.8501 38.0138C72.6367 37.6734 80.687 38.0922 83.7469 38.7351Z" fill="#C31B33"/>
<path fill-rule="evenodd" clip-rule="evenodd" d="M154.58 157.009C144.638 158.575 133.386 164 125.646 170.961C101.837 192.37 74.5264 193.914 52.9487 175.071L51.0093 173.378V174.468C51.0093 176.351 51.6301 181.837 52.2809 185.715C59.0345 225.913 88.631 249.011 139.765 253.99C204.561 260.298 250.785 237.609 263.75 193.13C265.172 188.254 267.278 177.18 267.308 174.417C267.312 174.179 266.581 174.673 265.684 175.515C244.276 195.623 218.542 193.785 193.609 170.366C182.566 159.993 167.774 154.931 154.58 157.009ZM165.309 163.834C178.95 164.819 182.886 168.148 179.968 176.237C177.973 181.769 170.7 186.801 164.698 186.801C162.61 186.801 165.234 193.402 168.667 196.785C174.944 202.972 183.787 202.57 192.523 195.699C196.626 192.471 201.008 195.451 197.64 199.18C187.387 210.531 169.169 209.524 161.204 197.166L159.782 194.96L158.696 196.856C153.111 206.603 140.888 209.925 129.99 204.657C122.002 200.796 118.885 196.378 122.739 194.384C124.073 193.694 124.89 193.985 127.798 196.185C139.642 205.145 153.413 201.028 155.704 187.844L155.874 186.869L154.115 186.649C145.891 185.621 140.166 180.704 139.103 173.754C138.346 168.815 141.038 166.401 149.146 164.747C154.601 163.635 159.052 163.383 165.309 163.834ZM159.08 264.17C154.868 268.658 158.122 280.472 162.432 276.342C164.92 273.957 165.055 267.476 162.676 264.59C161.554 263.228 160.121 263.061 159.08 264.17ZM149.075 283.027V284.578H154.041H159.006V286.131V287.683H154.041H149.075V289.235V290.787H154.041C156.772 290.787 159.006 290.873 159.006 290.979C159.006 291.084 158.54 291.816 157.971 292.608C157.402 293.399 155.172 296.649 153.016 299.831L149.095 305.617L150.316 306.425L151.538 307.234L155.505 301.398C161.132 293.121 160.479 293.941 160.899 294.63C162.334 296.984 169.281 307.239 169.44 307.239C170.019 307.239 171.748 305.868 171.613 305.517C171.527 305.293 169.353 301.959 166.783 298.109C164.213 294.258 162.11 291.035 162.11 290.947C162.11 290.859 164.352 290.787 167.092 290.787H172.074L171.98 289.313L171.885 287.838L166.92 287.683L161.954 287.527V286.131V284.734L166.997 284.649L172.04 284.563V283.019V281.475H160.558H149.075V283.027Z" fill="#F8EDE0"/>
</svg>
