<svg width="48" height="48" viewBox="0 0 48 48" fill="none" xmlns="http://www.w3.org/2000/svg">
<rect width="48" height="48" rx="24" fill="#EE2233"/>
<path d="M12.6546 45.1636C16.3637 39.4909 20.2909 33.8182 24.2182 28.1455L35.5637 45.1636C36.2182 44.9455 36.6546 44.5091 37.3091 44.0727C37.9637 43.6364 38.4 43.4182 38.8364 42.9818C34.6909 36.6546 30.3273 30.3273 26.1818 24H38.8364V20.0727H26.1818V15.9273L38.8364 15.9273V12L9.38184 12V15.9273H22.0364V20.0727H9.38184V24H22.0364L9.38184 42.9818C9.8182 43.4182 10.2546 43.6364 10.9091 44.0727C11.5637 44.5091 12 44.9455 12.6546 45.1636Z" fill="white"/>
</svg>
