<svg xmlns="http://www.w3.org/2000/svg" fill="none" viewBox="0 0 30 30"><path fill="#706b6d" d="M15.011 5q.268 0 .514.134.245.135.38.358l2.972 4.848 5.452 1.117q.29.068.558.29.313.291.313.76 0 .448-.313.76l-3.977 4 .693 5.519a.5.5 0 0 1 .022.156 1 1 0 0 1-.335.76 1.01 1.01 0 0 1-1.14.223l-5.116-2.234-5.117 2.234q-.335.135-.581.067a.98.98 0 0 1-.715-.402 1.2 1.2 0 0 1-.201-.804l.692-5.52-3.977-3.999q-.112-.135-.313-.58a.7.7 0 0 1-.022-.202q0-.38.246-.67.269-.313.648-.38l5.496-1.117 2.928-4.826Q14.452 5 15.01 5"/></svg>