<svg xmlns="http://www.w3.org/2000/svg" fill="none" viewBox="0 0 30 30"><path fill="#706b6d" d="M4.8 21.55q0 .746.351 1.382a2.96 2.96 0 0 0 1.01 1.031q.59.351 1.25.351.329 0 .723-.11.988-.306 1.623-1.294.351-.592.351-1.272.022-.833.286-1.514a9 9 0 0 1 .482-.987q.264-.438.57-.811a4.1 4.1 0 0 1 1.01-.944l.197-.087.066-.044q.021 0 .044-.044.329-.153.723-.263.417-.11.527-.132.438-.066.987-.066a7 7 0 0 1 .987.066q.724.153 1.426.505l.11.043q.68.506 1.009.966.482.658.592.855.35.615.46.965.308.724.308 1.492v.066q0 .614.35 1.206a2.55 2.55 0 0 0 1.58 1.273q.395.11.746.11.68 0 1.272-.352.615-.372.965-1.009.373-.636.373-1.36 0-.615-.35-1.36-.242-.438-.878-.9h-.088q-.745-.526-1.14-1.03v-.066a3.5 3.5 0 0 1-.571-.834 8 8 0 0 1-.439-.943q-.262-.57-.307-1.447.022-.879.307-1.492.132-.373.439-.965.11-.263.307-.527.219-.263.285-.35.527-.637 1.163-1.032.636-.372.943-.899.351-.702.351-1.382 0-.745-.35-1.36a2.66 2.66 0 0 0-.988-.987q-.549-.351-1.294-.351-.395 0-.68.088a3 3 0 0 0-.965.482q-.418.33-.658.79-.373.68-.373 1.294a3.8 3.8 0 0 1-.285 1.492q-.11.351-.461.965l-.132.175-.46.659q-.33.504-1.12.987-.657.35-1.03.394h-.044a6 6 0 0 1-.35.066h-.023q-.373.088-.987.088-.57 0-.987-.088h-.022q-.154 0-.351-.066h-.044q-.33-.044-.855-.329l-.132-.065a.24.24 0 0 0-.088-.044l-.087-.088q-.637-.395-.944-.855-.131-.132-.592-.812a13 13 0 0 1-.439-.987 4.5 4.5 0 0 1-.307-1.492v-.088q-.066-.745-.329-1.206Q9.23 6.02 8.2 5.735a2.8 2.8 0 0 0-.724-.088 2.46 2.46 0 0 0-1.316.35q-.615.352-.965.988-.351.615-.351 1.36 0 .593.35 1.382.286.461.9.877h.066q.659.461 1.119 1.031v.066q.351.395.526.834.198.263.483.921.24.636.285 1.382v.263q-.044.768-.285 1.316-.242.549-.483.943-.132.33-.548.856a4.3 4.3 0 0 1-1.163 1.031q-.657.417-.943.943a2.86 2.86 0 0 0-.351 1.36"/></svg>