<svg xmlns="http://www.w3.org/2000/svg" width="30" height="30" fill="none"><path fill="#706B6D" fill-rule="evenodd" d="M21.965 7.476h1.523a2.12 2.12 0 0 1 2.121 2.12v1.06a2.12 2.12 0 0 1-2.12 2.121H6.525a2.12 2.12 0 0 1-2.12-2.12v-1.06a2.12 2.12 0 0 1 2.12-2.121h1.524A2.916 2.916 0 0 1 10.766 3.5a5.03 5.03 0 0 1 4.24 2.319A5.03 5.03 0 0 1 19.249 3.5a2.916 2.916 0 0 1 2.717 3.976m-11.995 0h4.075a3.45 3.45 0 0 0-3.28-2.386 1.325 1.325 0 0 0-.795 2.386m10.073 0a1.325 1.325 0 0 0-.795-2.386 3.45 3.45 0 0 0-3.28 2.386z" clip-rule="evenodd"/><path fill="#706B6D" d="M23.489 14.368H6.525v9.012c0 1.17.949 2.12 2.12 2.12h12.723a2.12 2.12 0 0 0 2.12-2.12z"/></svg>