<svg xmlns="http://www.w3.org/2000/svg" fill="none" viewBox="0 0 30 30"><path fill="#706b6d" d="M25.5 15q0 2.277-.923 4.286a10.7 10.7 0 0 1-2.543 3.486 10.8 10.8 0 0 1-3.691 2.215 1 1 0 0 1-.185.02.55.55 0 0 1-.369-.143q-.144-.143-.144-.43v-2.872q0-.696-.205-1.189-.204-.492-.512-.738 2.133-.247 3.445-1.354 1.333-1.107 1.333-3.794 0-1.66-1.087-2.85.205-.472.205-1.149a4.3 4.3 0 0 0-.328-1.62 1 1 0 0 0-.226-.02q-.369 0-1.045.225-.657.226-1.641.882-.944-.308-2.625-.308-1.251 0-2.645.308-.882-.636-1.539-.882-.635-.246-1.025-.246a.6.6 0 0 0-.267.041 3.8 3.8 0 0 0-.328 1.538q0 .739.246 1.23-1.087 1.231-1.087 2.851 0 2.687 1.292 3.794 1.312 1.108 3.466 1.395-.573.471-.635 1.415-.575.267-1.19.266-1.19 0-1.846-1.168a2.7 2.7 0 0 0-.676-.739 1.6 1.6 0 0 0-.923-.328q-.472 0-.472.205 0 .145.39.43.307.165.615.554.328.39.554.985.245.636.861 1.087.636.45 1.62.451.492 0 1.067-.123v1.805q0 .225-.164.369a.63.63 0 0 1-.431.143h-.123a11.3 11.3 0 0 1-3.733-2.235 10.8 10.8 0 0 1-2.563-3.507A10.15 10.15 0 0 1 4.5 15q0-2.87 1.415-5.27a10.4 10.4 0 0 1 3.814-3.815A10.26 10.26 0 0 1 15 4.5q2.85 0 5.25 1.415a10.37 10.37 0 0 1 3.835 3.814Q25.5 12.13 25.5 15"/></svg>