<svg xmlns="http://www.w3.org/2000/svg" fill="none" viewBox="0 0 30 30"><path fill="#706b6d" d="M25.5 14.968q0 1.353-.144 2.522-.143 1.149-.39 1.825-.225.677-.491.677-.451 0-.76-1.456-.306-1.476-.307-3.568 0-2.092.308-3.569.307-1.476.759-1.476.265 0 .492.677.246.676.39 1.845.143 1.149.143 2.523m-21 0q0-1.62.8-2.994A5.97 5.97 0 0 1 7.453 9.8a5.74 5.74 0 0 1 2.974-.8q1.62 0 2.973.8a5.97 5.97 0 0 1 2.154 2.174q.8 1.374.8 2.994t-.8 2.994a5.97 5.97 0 0 1-2.154 2.174q-1.353.8-2.973.8a5.74 5.74 0 0 1-2.974-.8A5.97 5.97 0 0 1 5.3 17.962a5.85 5.85 0 0 1-.8-2.994m12.428 0q0-1.539.39-2.83.41-1.293 1.086-2.03.677-.76 1.477-.76t1.476.76q.678.737 1.067 2.03.41 1.291.41 2.83 0 1.517-.41 2.81-.39 1.29-1.067 2.05t-1.476.759q-.8 0-1.477-.759-.675-.76-1.087-2.05a9.7 9.7 0 0 1-.39-2.81"/></svg>