<svg xmlns="http://www.w3.org/2000/svg" width="30" height="30" fill="none"><path fill="#706B6D" d="M24.358 17.68v-5.074A2.455 2.455 0 0 0 26 10.299c0-1.357-1.113-2.455-2.486-2.455-.58 0-1.114.198-1.537.528l-4.66-2.592q.024-.16.025-.325C17.342 4.098 16.229 3 14.856 3c-1.372 0-2.486 1.099-2.486 2.455q.001.187.03.367L7.935 8.306a2.5 2.5 0 0 0-1.449-.462C5.114 7.844 4 8.942 4 10.3c0 .985.59 1.832 1.437 2.222v5.243A2.45 2.45 0 0 0 4 19.987c0 1.356 1.114 2.454 2.486 2.454.655 0 1.248-.252 1.692-.66l4.229 2.353q-.036.2-.038.412c0 1.356 1.115 2.454 2.486 2.454 1.374 0 2.487-1.098 2.487-2.454 0-.126-.013-.248-.031-.369l4.433-2.467a2.5 2.5 0 0 0 1.77.731c1.373 0 2.486-1.098 2.486-2.454a2.45 2.45 0 0 0-1.642-2.307m-11.153 5.034-4.262-2.37a2.5 2.5 0 0 0 .03-.357 2.46 2.46 0 0 0-1.891-2.381v-4.927a2.5 2.5 0 0 0 1.052-.545l4.43 2.574a2.4 2.4 0 0 0-.038.406c0 1.078.706 1.991 1.685 2.321v4.743a2.5 2.5 0 0 0-1.006.536m3.393-9.491a2.5 2.5 0 0 0-1.585-.564 2.5 2.5 0 0 0-1.654.626l-4.424-2.571q.036-.202.038-.415a2.4 2.4 0 0 0-.092-.654l4.291-2.388a2.5 2.5 0 0 0 1.684.652c.666 0 1.27-.26 1.716-.68l4.522 2.516a2.4 2.4 0 0 0-.054.795zm-.06 9.52q-.301-.276-.681-.443v-4.88a2.455 2.455 0 0 0 1.59-2.807l4.295-2.594c.269.27.6.476.97.601v5.045a2.46 2.46 0 0 0-1.672 2.573z"/></svg>