<svg xmlns="http://www.w3.org/2000/svg" fill="none" viewBox="0 0 30 30"><path fill="#706b6d" d="M17.412 15.041q-.43 0-.76.329a1 1 0 0 0-.307.719q0 .452.308.76.329.308.759.308v.042h.041a1 1 0 0 0 .698-.33 1 1 0 0 0 .308-.739q0-.431-.308-.76a.98.98 0 0 0-.739-.329M4.5 15.021q0-2.835 1.396-5.26a10.54 10.54 0 0 1 3.839-3.843A10.26 10.26 0 0 1 15.01 4.5q2.854 0 5.255 1.418a10.4 10.4 0 0 1 3.819 3.842q1.416 2.404 1.416 5.26 0 2.857-1.416 5.26a10.5 10.5 0 0 1-3.819 3.802q-2.4 1.418-5.255 1.418a10.26 10.26 0 0 1-5.275-1.418 10.5 10.5 0 0 1-3.819-3.801Q4.5 17.877 4.5 15.02m3.9-1.069q-.39.41-.39 1.048 0 .678.472 1.089.247.206.431.288v.452q0 1.17.822 2.157.82.966 2.217 1.541 1.416.576 3.079.576t3.058-.576q1.417-.575 2.238-1.561.842-.987.842-2.137v-.452q.369-.165.595-.514.225-.35.226-.78 0-.638-.452-1.07a1.48 1.48 0 0 0-1.088-.451q-.595 0-1.047.41a7.24 7.24 0 0 0-4.044-1.294l.698-3.288 2.217.452q.062.411.35.678.286.247.677.247.471 0 .78-.287a1 1 0 0 0 .308-.74.96.96 0 0 0-.329-.76 1.1 1.1 0 0 0-.78-.309q-.513 0-.883.514l-2.566-.514h-.061a.5.5 0 0 0-.205.062.33.33 0 0 0-.144.185l-.76 3.657a8.2 8.2 0 0 0-2.155.37 6.3 6.3 0 0 0-1.91.925 1.5 1.5 0 0 0-1.067-.432q-.677 0-1.129.514m3.12 2.117q0-.432.288-.74.307-.309.739-.309.451 0 .739.309.308.308.308.74 0 .45-.308.76a1 1 0 0 1-.74.287q-.43 0-.738-.287a1.07 1.07 0 0 1-.287-.76m.883 2.876q1.13.822 2.422.822h.308q.616 0 1.253-.185a4 4 0 0 0 1.231-.637v.062q.103-.103.103-.206t-.103-.205a.27.27 0 0 0-.226-.103.25.25 0 0 0-.205.103q-.45.33-.965.493-.513.144-.985.144h-.452q-.472 0-1.005-.165a3.1 3.1 0 0 1-.965-.513q-.062-.082-.185-.082a.26.26 0 0 0-.185.082.3.3 0 0 0-.102.226q0 .102.061.164"/></svg>