<svg xmlns="http://www.w3.org/2000/svg" fill="none" viewBox="0 0 30 30"><path fill="#706b6d" d="M16.896 9.278a3.8 3.8 0 0 0 .088.817l-4.805 2.386a3.7 3.7 0 0 0-1.279-.928 3.6 3.6 0 0 0-1.587-.353q-1.587 0-2.71 1.105Q5.5 13.409 5.5 14.978q0 1.612 1.102 2.717Q7.726 18.8 9.313 18.8q.86 0 1.587-.354.75-.353 1.279-.95l4.805 2.409a3.7 3.7 0 0 0-.088.773q0 1.59 1.102 2.717 1.124 1.105 2.689 1.105 1.587 0 2.689-1.105a3.7 3.7 0 0 0 1.124-2.717q0-1.547-1.124-2.651-1.102-1.105-2.69-1.105-.859 0-1.608.354-.727.33-1.257.927l-4.805-2.408a3.7 3.7 0 0 0 .088-.817q0-.177-.022-.376a3 3 0 0 0-.066-.397l4.805-2.43q.53.596 1.257.95.75.353 1.609.353 1.587 0 2.689-1.105Q24.5 10.87 24.5 9.278q0-1.547-1.124-2.651Q22.274 5.5 20.686 5.5q-1.564 0-2.688 1.127-1.102 1.104-1.102 2.65"/></svg>