<svg xmlns="http://www.w3.org/2000/svg" width="30" height="30" fill="none"><path fill="#706B6D" d="M9.779 11.342q0-1.305.333-2.558.436-1.407 1.048-2.38.743-1.074 1.663-1.713A3.67 3.67 0 0 1 14.998 4q1.227 0 2.174.69.92.64 1.663 1.715.614.971 1.049 2.379.332 1.253.332 2.558v3.12q0 .256.103.487a.96.96 0 0 0 .332.358l3.351 2.507q.435.307.435.87v4.17q0 .435-.332.741a1 1 0 0 1-.742.307h-2.251q-.333 0-.614.205a.9.9 0 0 0-.384.486q-.128.41-.512.793-.614.615-1.458.614h-6.293a2 2 0 0 1-1.458-.614 2.4 2.4 0 0 1-.512-.793.9.9 0 0 0-.383-.486 1.02 1.02 0 0 0-.614-.205H6.633q-.435 0-.768-.307a1 1 0 0 1-.307-.741v-4.17q0-.563.435-.87l3.351-2.507a.8.8 0 0 0 .307-.358 1 1 0 0 0 .128-.486zm3.121 1.023q0 .895.614 1.51.665.613 1.484.613.844 0 1.483-.614.614-.614.614-1.509 0-.844-.614-1.458a2.02 2.02 0 0 0-1.483-.614q-.87 0-1.484.614t-.614 1.458"/></svg>