<svg xmlns="http://www.w3.org/2000/svg" fill="none" viewBox="0 0 30 30"><path fill="#706b6d" d="M24.843 21.153q.357.143.357.429-.048.38-.381.476l-8.294 3.07a.8.8 0 0 1-.238.048.9.9 0 0 1-.357-.071.9.9 0 0 1-.239-.239.4.4 0 0 1-.048-.19L15 17.535v-.024q0-.19.19-.357a.67.67 0 0 1 .454-.167q.118 0 .262.072l2.144.833q1.073-1.023 1.55-2.547.476-1.547.476-3.38 0-1.762-.381-3.523-.357-1.785-.858-3l-.024-.119q0-.143.12-.285a.7.7 0 0 1 .333-.214.7.7 0 0 1 .214-.024q.214 0 .382.095 2.335 1.404 3.67 4.047a11.95 11.95 0 0 1 1.334 5.498q0 1.666-.476 3.214a8.5 8.5 0 0 1-1.43 2.737zM4.8 8.347q.048-.358.381-.453l8.294-3.047a.8.8 0 0 1 .238-.047q.167 0 .334.095a.66.66 0 0 1 .262.19l.048.096a.2.2 0 0 1 .023.095l.62 7.141v.048a.46.46 0 0 1-.262.428.8.8 0 0 1-.358.072q-.095 0-.286-.048l-2.144-.833q-1.073 1.024-1.55 2.57-.476 1.524-.476 3.357 0 1.762.357 3.523.382 1.761.882 2.976l.024.118q0 .191-.12.334a.7.7 0 0 1-.309.214.7.7 0 0 1-.214.024.75.75 0 0 1-.406-.12q-2.335-1.403-3.67-4.022-1.334-2.642-1.334-5.523 0-1.665.476-3.19a8.5 8.5 0 0 1 1.43-2.76l-1.882-.762Q4.8 8.656 4.8 8.347"/></svg>