<svg xmlns="http://www.w3.org/2000/svg" fill="none" viewBox="0 0 30 30"><path fill="#706b6d" d="M5.936 13.465q5.331-2.338 11.238-4.84 4.06-1.66 5.352-2.133Q23.84 6 24.352 6q.533 0 .758.226.184.185.267.512.02.123.02.533v.226q-.204 2.174-.943 6.624-.717 4.45-1.271 7.198-.164 1.026-.513 1.497-.349.451-.78.493-.122.02-.225.02-.471 0-.964-.226-.471-.246-1.271-.82l-.616-.43q-.82-.533-2.091-1.395a104 104 0 0 0-2.215-1.477q-.964-.656-.964-1.23 0-.308.246-.615.246-.328.759-.82l.39-.37a529 529 0 0 0 3.076-2.912q2.152-2.03 2.235-2.256v-.143a.3.3 0 0 0-.102-.226.22.22 0 0 0-.165-.061.7.7 0 0 0-.225.04q-.144.042-8.1 5.353-1.19.759-1.97.759-.861 0-3.096-.718a4 4 0 0 0-.533-.164q-.882-.287-1.23-.492-.33-.205-.329-.533v-.082q.062-.246.43-.513.37-.287 1.006-.533"/></svg>