<svg xmlns="http://www.w3.org/2000/svg" fill="none" viewBox="0 0 30 30"><path fill="#706b6d" d="M7.15 22.019h-.642a.64.64 0 0 1-.462-.205.93.93 0 0 1-.18-.59v-8.367q0-.231.18-.41a.64.64 0 0 1 .462-.206h.976V7.647q0-.462.487-.462h.822q.128 0 .205.128.102.103.103.334v4.594h.975q.255 0 .539.205.282.18.282.41v8.367q0 .36-.282.59-.282.207-.54.206H8.794v3.798q0 .129-.129.231a.7.7 0 0 1-.36.077h-.82a.38.38 0 0 1-.231-.077.32.32 0 0 1-.103-.23zm14.141-.308h-.821q-.796 0-.796-.796V13.96q0-.23.206-.41a.86.86 0 0 1 .59-.206h.821v-3.002q0-.129.103-.206a.32.32 0 0 1 .23-.102h.642a.32.32 0 0 1 .231.102q.103.077.103.206v3.002h.641q.36 0 .59.206.232.18.232.41v6.955a.8.8 0 0 1-.231.59.86.86 0 0 1-.59.206H22.6v5.056a.32.32 0 0 1-.103.23.38.38 0 0 1-.23.078h-.642a.38.38 0 0 1-.231-.077.32.32 0 0 1-.103-.231zm-6.98-4.748h-.976a.86.86 0 0 1-.59-.205q-.231-.205-.231-.565V7.801q0-.36.23-.565a.86.86 0 0 1 .591-.205h.975V3.233q0-.129.077-.206a.32.32 0 0 1 .231-.102h.822q.255 0 .359.102.128.078.128.206V7.03h.975a.56.56 0 0 1 .437.205q.205.205.205.565v8.392q0 .36-.205.565a.56.56 0 0 1-.437.205h-.975v6.005q0 .129-.128.232-.103.076-.36.076h-.82a.38.38 0 0 1-.232-.076.38.38 0 0 1-.077-.232z"/></svg>