<svg width="30" height="30" viewBox="0 0 30 30" fill="none" xmlns="http://www.w3.org/2000/svg">
<path d="M14.12 25.6713C14.1526 25.6713 14.2341 25.655 14.3644 25.6224C14.5111 25.5246 14.5844 25.3779 14.5844 25.1824V20.489C14.5844 20.1468 14.4622 19.8535 14.2178 19.609C13.9733 19.3646 13.68 19.2424 13.3378 19.2424H9.72C9.52444 19.2424 9.38592 19.3076 9.30444 19.4379C9.22296 19.5846 9.20667 19.7313 9.25555 19.8779C9.71185 21.0839 10.323 22.1757 11.0889 23.1535C11.8711 24.115 12.7918 24.9298 13.8511 25.5979C13.9489 25.6468 14.0385 25.6713 14.12 25.6713ZM4 15.3068C4 15.9913 4.07333 16.7002 4.22 17.4335C4.26889 17.7268 4.40741 17.9631 4.63556 18.1424C4.88 18.3216 5.14889 18.4113 5.44222 18.4113H7.39778C7.54444 18.4113 7.67481 18.3542 7.78889 18.2402C7.88667 18.1098 7.91111 17.9876 7.86222 17.8735C7.73185 17.1076 7.66667 16.2765 7.66667 15.3802C7.66667 14.5002 7.74 13.6202 7.88667 12.7402C7.90296 12.7239 7.91111 12.6913 7.91111 12.6424C7.91111 12.5609 7.87852 12.4713 7.81333 12.3735C7.71555 12.2594 7.59333 12.2024 7.44667 12.2024H5.44222C5.14889 12.2024 4.88 12.292 4.63556 12.4713C4.40741 12.6505 4.26889 12.8868 4.22 13.1802C4.07333 13.9135 4 14.6224 4 15.3068ZM5.00222 19.9024C5.62148 21.2061 6.45259 22.355 7.49555 23.349C8.53852 24.3431 9.72 25.0927 11.04 25.5979C11.0889 25.6142 11.1459 25.6224 11.2111 25.6224C11.423 25.6224 11.5615 25.549 11.6267 25.4024C11.6756 25.3209 11.7 25.2313 11.7 25.1335C11.7 24.9705 11.6511 24.8565 11.5533 24.7913C10.1844 23.4876 9.15778 21.9068 8.47333 20.049C8.37555 19.8046 8.22074 19.609 8.00889 19.4624C7.79704 19.2994 7.56074 19.2179 7.3 19.2179H5.44222C5.27926 19.2179 5.14889 19.2994 5.05111 19.4624C4.96963 19.609 4.95333 19.7557 5.00222 19.9024ZM5.00222 10.7113C4.98593 10.7439 4.97778 10.809 4.97778 10.9068C4.97778 10.9883 5.00222 11.0698 5.05111 11.1513C5.13259 11.2979 5.26296 11.3713 5.44222 11.3713H7.32444C7.58518 11.3713 7.82148 11.3061 8.03333 11.1757C8.26148 11.029 8.42444 10.8335 8.52222 10.589C9.20667 8.74757 10.2496 7.13423 11.6511 5.74905C11.7489 5.65127 11.7978 5.54535 11.7978 5.43127C11.7978 5.3172 11.7733 5.22757 11.7244 5.16238C11.6267 5.01572 11.4963 4.94238 11.3333 4.94238L11.1622 4.96683C9.80963 5.47201 8.59555 6.22979 7.52 7.24016C6.46074 8.23423 5.62148 9.39127 5.00222 10.7113ZM8.44889 15.3802C8.44889 15.8528 8.49778 16.5128 8.59555 17.3602C8.66074 17.6698 8.80741 17.9224 9.03555 18.1179C9.2637 18.3135 9.53259 18.4113 9.84222 18.4113H13.3378C13.68 18.4113 13.9733 18.2972 14.2178 18.069C14.4622 17.8246 14.5844 17.5231 14.5844 17.1646V13.449C14.5844 13.0905 14.4622 12.7972 14.2178 12.569C13.9733 12.3246 13.68 12.2024 13.3378 12.2024H9.86667C9.55704 12.2024 9.28 12.3002 9.03555 12.4957C8.80741 12.6913 8.67704 12.9357 8.64444 13.229C8.51407 13.9787 8.44889 14.6957 8.44889 15.3802ZM9.30444 10.7357C9.28815 10.7683 9.28 10.8335 9.28 10.9313C9.28 11.0128 9.30444 11.0942 9.35333 11.1757C9.43481 11.3061 9.57333 11.3713 9.76889 11.3713H13.3378C13.68 11.3713 13.9733 11.249 14.2178 11.0046C14.4622 10.7602 14.5844 10.4668 14.5844 10.1246V5.43127C14.5844 5.23572 14.5111 5.08905 14.3644 4.99127C14.2993 4.97498 14.2178 4.96683 14.12 4.96683C14.0059 4.96683 13.9163 4.98312 13.8511 5.01572C11.7652 6.3846 10.2496 8.29127 9.30444 10.7357ZM15.4156 25.1824C15.4156 25.3779 15.4889 25.5246 15.6356 25.6224C15.7659 25.655 15.8474 25.6713 15.88 25.6713C15.9615 25.6713 16.0511 25.6468 16.1489 25.5979C17.2081 24.9298 18.1207 24.115 18.8867 23.1535C19.6689 22.1757 20.2881 21.0839 20.7444 19.8779C20.7607 19.8453 20.7689 19.7883 20.7689 19.7068C20.7689 19.5927 20.7444 19.5031 20.6956 19.4379C20.6141 19.3076 20.4756 19.2424 20.28 19.2424H16.6622C16.32 19.2424 16.0267 19.3646 15.7822 19.609C15.5378 19.8535 15.4156 20.1468 15.4156 20.489V25.1824ZM15.4156 17.1646C15.4156 17.5231 15.5378 17.8246 15.7822 18.069C16.0267 18.2972 16.32 18.4113 16.6622 18.4113H20.1578C20.4674 18.4113 20.7363 18.3135 20.9644 18.1179C21.1926 17.9224 21.3393 17.6698 21.4044 17.3602C21.5022 16.7246 21.5511 16.0646 21.5511 15.3802C21.5511 14.7772 21.4941 14.0602 21.38 13.229C21.3311 12.9194 21.1844 12.675 20.94 12.4957C20.7118 12.3002 20.443 12.2024 20.1333 12.2024H16.6622C16.32 12.2024 16.0267 12.3246 15.7822 12.569C15.5378 12.7972 15.4156 13.0905 15.4156 13.449V17.1646ZM15.4156 10.1246C15.4156 10.4668 15.5378 10.7602 15.7822 11.0046C16.0267 11.249 16.32 11.3713 16.6622 11.3713H20.2311C20.443 11.3713 20.5815 11.3061 20.6467 11.1757C20.7444 11.0616 20.7607 10.915 20.6956 10.7357C19.7504 8.29127 18.2348 6.3846 16.1489 5.01572C16.0837 4.98312 15.9941 4.96683 15.88 4.96683C15.7822 4.96683 15.7007 4.97498 15.6356 4.99127C15.4889 5.08905 15.4156 5.23572 15.4156 5.43127V10.1246ZM18.2756 5.16238C18.2267 5.22757 18.2022 5.30905 18.2022 5.40683C18.2022 5.55349 18.2511 5.67572 18.3489 5.77349C19.7504 7.12609 20.7933 8.73127 21.4778 10.589C21.5756 10.8335 21.7304 11.029 21.9422 11.1757C22.1704 11.3061 22.4148 11.3713 22.6756 11.3713H24.5578C24.737 11.3713 24.8756 11.2979 24.9733 11.1513C25.0059 11.1024 25.0222 11.0209 25.0222 10.9068C25.0222 10.8253 25.0141 10.7602 24.9978 10.7113C24.3785 9.39127 23.5311 8.23423 22.4556 7.24016C21.3963 6.22979 20.1904 5.47201 18.8378 4.96683L18.6911 4.94238C18.5118 4.94238 18.3733 5.01572 18.2756 5.16238ZM18.3733 25.4024C18.4548 25.549 18.5933 25.6224 18.7889 25.6224C18.8541 25.6224 18.9111 25.6142 18.96 25.5979C20.28 25.0927 21.4615 24.3431 22.5044 23.349C23.5474 22.355 24.3785 21.2061 24.9978 19.9024C25.0141 19.8698 25.0222 19.8127 25.0222 19.7313C25.0222 19.6172 24.9978 19.5276 24.9489 19.4624C24.8511 19.2994 24.7207 19.2179 24.5578 19.2179H22.7C22.4393 19.2179 22.203 19.2994 21.9911 19.4624C21.7793 19.609 21.6244 19.8046 21.5267 20.049C20.8422 21.9068 19.8156 23.4876 18.4467 24.7913C18.3489 24.889 18.3 25.0031 18.3 25.1335C18.3 25.2313 18.3244 25.3209 18.3733 25.4024ZM22.1133 12.7402C22.26 13.6202 22.3333 14.5002 22.3333 15.3802C22.3333 16.2765 22.2681 17.1076 22.1378 17.8735V17.9713C22.1378 18.069 22.1622 18.1587 22.2111 18.2402C22.3252 18.3542 22.4556 18.4113 22.6022 18.4113H24.5578C24.8511 18.4113 25.1119 18.3216 25.34 18.1424C25.5844 17.9631 25.7311 17.7268 25.78 17.4335C25.9267 16.7002 26 15.9913 26 15.3068C26 14.6061 25.9267 13.9053 25.78 13.2046C25.7311 12.9113 25.5844 12.675 25.34 12.4957C25.1119 12.3002 24.8511 12.2024 24.5578 12.2024H22.5533C22.423 12.2024 22.3007 12.2594 22.1867 12.3735C22.0889 12.5039 22.0644 12.6261 22.1133 12.7402Z" fill="#706B6D"/>
</svg>
