<svg xmlns="http://www.w3.org/2000/svg" fill="none" viewBox="0 0 30 30"><path fill="#706b6d" d="M23.347 10.245q.02.165.02.533 0 2.955-1.476 5.804-1.456 2.83-4.245 4.655-2.79 1.805-6.563 1.805-1.764 0-3.445-.492A12.3 12.3 0 0 1 4.5 21.114q.492.062 1.005.062 1.476 0 2.85-.472a8 8 0 0 0 2.502-1.394 4.04 4.04 0 0 1-2.46-.82 4.6 4.6 0 0 1-1.58-2.154q.534.082.82.082.595 0 1.15-.185a4.3 4.3 0 0 1-1.785-.779q-.78-.616-1.23-1.497a4.4 4.4 0 0 1-.431-1.907v-.062a3.76 3.76 0 0 0 1.948.534 4.14 4.14 0 0 1-1.435-1.56 4.4 4.4 0 0 1-.493-2.03q0-1.127.595-2.153a12.1 12.1 0 0 0 3.958 3.179 12.35 12.35 0 0 0 4.942 1.313 4.13 4.13 0 0 1 .226-2.667 4.6 4.6 0 0 1 1.005-1.435q.595-.574 1.353-.861a4.26 4.26 0 0 1 3.281.041 4.4 4.4 0 0 1 1.457 1.005q1.559-.309 2.727-1.067-.226.759-.718 1.374-.491.615-1.148 1.005a7 7 0 0 0 2.461-.677 8.7 8.7 0 0 1-2.153 2.256"/></svg>