<svg xmlns="http://www.w3.org/2000/svg" fill="none" viewBox="0 0 32 32"><path fill="#F06" d="M24.689 20.422a2.965 2.965 0 0 1 0 4.19 2.966 2.966 0 0 1-4.192 0c-1.156-1.155-3.556-7.746-3.556-7.746s6.592 2.4 7.748 3.556M15.209 16.866s-2.4 6.587-3.556 7.747a2.966 2.966 0 0 1-4.192 0 2.965 2.965 0 0 1 0-4.191c1.156-1.156 7.748-3.556 7.748-3.556M24.689 7.387a2.965 2.965 0 0 1 0 4.191c-1.156 1.156-7.748 3.556-7.748 3.556s2.4-6.587 3.556-7.747a2.96 2.96 0 0 1 4.192 0M11.653 7.387c1.156 1.156 3.556 7.747 3.556 7.747s-6.588-2.4-7.748-3.556a2.966 2.966 0 0 1 0-4.19 2.96 2.96 0 0 1 4.192 0M32 16a2.96 2.96 0 0 1-2.962 2.961c-1.637 0-11.26-2.961-11.26-2.961s9.623-2.962 11.26-2.962A2.96 2.96 0 0 1 32 16M14.222 16S4.599 18.96 2.962 18.96A2.96 2.96 0 0 1 0 16a2.96 2.96 0 0 1 2.962-2.962c1.637 0 11.26 2.962 11.26 2.962M15.997 32a2.96 2.96 0 0 1-2.961-2.962c0-1.636 2.961-11.258 2.961-11.258s2.962 9.622 2.962 11.258A2.96 2.96 0 0 1 15.997 32M15.997 14.22s-2.961-9.622-2.961-11.259A2.96 2.96 0 0 1 15.997 0a2.96 2.96 0 0 1 2.962 2.961c0 1.637-2.962 11.26-2.962 11.26"/></svg>