<svg viewBox="0 0 220 70" fill="none"
  xmlns="http://www.w3.org/2000/svg">
  <path d="M44.8643 46.2553C43.4903 46.2553 42.3075 45.9395 41.3364 45.3079C40.3602 44.6762 39.637 43.765 39.1825 42.6053C38.7331 41.4663 38.5781 40.027 38.7228 38.3339C38.8002 37.3865 39.0172 36.3717 39.3684 35.3207C39.7248 34.2645 40.2724 33.2498 40.9903 32.3127C41.7135 31.3756 42.6381 30.5627 43.7383 29.9C44.854 29.2321 46.1298 28.8645 47.5348 28.8127C47.6381 28.8076 47.7362 28.8076 47.8344 28.8076C49.3426 28.8076 50.5772 29.2062 51.5121 29.9984C52.4986 30.8319 53.1546 31.9451 53.4646 33.3067C53.8726 35.1084 53.697 36.6358 53.5265 37.6298C53.3303 38.7688 52.8292 40.2133 52.1474 41.5957C51.9408 42.0254 51.5482 42.5742 51.2331 43.0195L51.0317 43.3042C50.1329 44.4433 48.9656 45.2923 47.6536 45.7738C46.3623 46.2553 45.2362 46.2553 44.8643 46.2553ZM47.7156 31.7328C47.6536 31.7328 47.5864 31.7328 47.5193 31.738C46.9098 31.7638 46.2486 32.0434 45.5513 32.5715C44.8437 33.11 44.198 33.9591 43.6453 35.1033C43.0823 36.2526 42.7517 37.4176 42.6536 38.5618C42.5503 40.1616 42.7259 41.3989 43.1804 42.2273C43.6092 43.0039 44.2393 43.3767 45.1174 43.3767C45.8509 43.3767 46.3674 43.0971 46.7083 42.9107C47.23 42.626 47.6846 42.2325 48.0565 41.7458C48.3199 41.4714 48.5214 41.1867 48.6815 40.8812C48.9346 40.379 49.0637 40.0477 49.1309 39.8406C49.4046 39.0484 49.6836 37.8007 49.8695 36.5011C49.9935 35.6314 49.9935 34.8599 49.8747 33.9953C49.7817 33.3222 49.5286 32.7527 49.1205 32.3023C48.7693 31.9192 48.3096 31.7328 47.7156 31.7328Z" fill="#330066"/>
  <path d="M27.3895 24.8002C27.6942 24.8054 28.4639 24.8831 28.8564 25.3749C29.2903 25.9186 29.1973 26.7625 29.1612 27.0524C29.125 27.3423 29.0424 27.6581 28.9287 28.0982C28.8358 28.4606 28.4845 30.4488 28.4019 30.9251C28.2882 31.6033 28.4432 32.1625 28.9081 32.7268C29.3574 33.2652 30.0961 33.5397 30.7624 33.5604C30.876 33.5655 30.9587 33.5655 31.0413 33.5655C31.9556 33.5655 32.8285 33.5086 33.6498 33.2342C34.5744 32.9235 35.4267 32.4421 36.0104 31.5412C36.594 30.6403 37.0951 29.1803 37.1364 27.7203C37.1726 26.4725 36.5269 25.0539 35.9535 24.0961C35.3802 23.1383 34.342 22.341 33.2521 21.7249C32.157 21.1088 30.876 20.7567 29.4349 20.6842C29.249 20.6739 29.0682 20.6687 28.8874 20.6687C27.0692 20.6687 25.4112 21.1243 23.9545 22.0303C22.374 23.0089 21.5113 24.2618 21.2066 25.6959C20.9018 27.1301 21.501 28.7506 22.6271 30.0967C22.8337 30.4073 22.8492 30.7439 22.689 31.1218C22.5444 31.4687 22.2397 31.7535 21.7851 31.9606C21.5527 32.0693 21.3254 32.1211 21.1188 32.1211C20.8863 32.1211 20.6694 32.0589 20.4783 31.9295C19.6157 31.2668 19.0888 30.4022 18.6808 29.6359C18.2314 28.7868 18.1126 27.7928 18.0299 26.8505C17.9163 25.5354 18.1229 24.4275 18.7066 23.2574C19.2696 22.1287 19.6777 21.3314 20.9277 20.2597C21.9504 19.3847 23.0299 18.6702 24.4659 18.2457C25.814 17.8419 27.2448 17.6399 28.7221 17.6399H28.9907C30.0548 17.6658 31.2273 17.8367 32.4928 18.1421C33.7686 18.4528 34.9308 18.9446 35.9535 19.597C36.9763 20.2493 37.7356 21.0363 38.3967 21.8388C39.0631 22.6465 39.6881 23.6405 40.0135 24.6863C40.3389 25.7218 40.6127 27.0213 40.5558 28.1759C40.4732 29.8948 40.0548 31.3082 39.3007 32.5611C38.5465 33.8192 37.3688 34.8858 36.1447 35.5537C34.9257 36.2215 33.5052 36.5736 31.9298 36.5995H31.7232C31.0155 36.5995 30.2975 36.5373 29.5796 36.4183C29.4504 36.3976 29.3161 36.3872 29.187 36.3872C28.4639 36.3872 27.782 36.7755 27.4205 37.3398C27.2138 37.666 27.0434 38.0129 27.0434 38.1682L26.0103 44.495C26.0052 44.6296 25.9329 45.6081 25.1426 46.0482C24.7397 46.2708 24.3419 46.2501 24.2645 46.2449C23.6859 46.2087 23.1746 45.8618 22.8956 45.4787C22.4411 44.8574 22.5599 44.0808 22.6064 43.7908L25.499 27.011C25.6384 25.8927 26.3874 24.7899 27.3895 24.8002Z" fill="#330066"/>
  <path d="M159.383 55C158.954 55 158.582 54.8395 158.309 54.5392C157.932 54.1198 157.782 53.4571 157.875 52.6702C158.464 48.549 158.644 47.8915 159.264 43.8428C159.275 43.7651 159.259 43.6978 159.207 43.6408C159.156 43.5787 159.073 43.5425 159.001 43.5425C158.944 43.5425 158.887 43.5683 158.846 43.6149C157.482 45.0801 156.005 45.8257 154.455 45.8257C153.975 45.8257 153.458 45.6652 152.921 45.339C152.363 45.0077 151.919 44.4071 151.599 43.5528C151.506 43.3095 151.434 43.0454 151.382 42.7762C151.351 42.6209 151.222 42.5484 151.119 42.5484C151.067 42.5484 150.995 42.5639 150.938 42.652C150.272 43.7133 149.616 44.4951 148.985 44.9714C148.04 45.6911 147.007 46.069 145.927 46.1001H145.773C144.827 46.1001 143.98 45.8516 143.262 45.3649C142.508 44.8523 141.899 44.0602 141.459 43.0092C141.315 42.6727 141.206 42.2999 141.124 41.9064C141.093 41.7614 140.974 41.6838 140.871 41.6838C140.824 41.6838 140.778 41.6993 140.736 41.7304C140.442 41.9634 140.127 42.1653 139.796 42.331C139.259 42.6002 138.753 42.8332 138.257 43.0558C137.188 43.5425 136.181 43.9981 134.982 44.8006L134.9 44.8575C133.908 45.5202 133.056 46.0949 130.798 46.0949H130.643C129.43 46.0638 128.469 45.6134 127.782 44.754C127.405 44.2828 127.136 43.7237 126.976 43.0972C126.94 42.9471 126.816 42.8849 126.718 42.8849C126.651 42.8849 126.599 42.9108 126.552 42.9678C126.263 43.3354 125.948 43.6926 125.607 44.0188C124.889 44.7177 124.078 45.2407 123.195 45.5824C122.374 45.8982 121.558 46.0587 120.762 46.0587C120.7 46.0587 120.633 46.0587 120.571 46.0535C119.3 45.9965 118.314 45.4995 117.637 44.5831C117.084 43.8324 116.79 42.8332 116.759 41.6113C116.346 41.9996 115.917 42.2947 115.39 42.6623L115.122 42.8487C114.367 43.3768 113.536 43.7392 112.73 44.0861C112.348 44.2518 111.955 44.4226 111.568 44.609C111.501 44.6452 111.423 44.6918 111.32 44.7592C111.098 44.8989 110.757 45.1164 110.137 45.4322C109.218 45.9034 108.226 46.1415 107.188 46.1415H107.012C106.397 46.1415 105.757 45.9965 105.116 45.717C104.466 45.4322 103.908 45.0232 103.448 44.4951C102.988 43.967 102.658 43.3198 102.467 42.5691C102.275 41.8339 102.239 41.0263 102.358 40.172C102.446 39.851 102.637 39.6128 102.926 39.4161C103.154 39.266 103.422 39.1883 103.732 39.1883C103.83 39.1883 103.934 39.1935 104.037 39.209C104.119 39.2194 104.197 39.2349 104.269 39.2556C104.698 39.3747 104.992 39.8044 104.956 40.26C104.884 41.1246 105.034 41.8236 105.406 42.3413C105.803 42.8901 106.32 43.1593 106.997 43.1593C107.523 43.1593 107.88 42.9315 108.138 42.7607C108.231 42.6986 108.293 42.6623 108.35 42.6312C108.546 42.5122 108.577 42.4966 108.965 41.9375C109.45 41.2334 109.378 40.0529 109.321 39.5766L109.285 39.2711C109.238 38.8621 109.223 38.7379 109.135 38.303C108.954 37.4591 108.732 36.9568 108.288 35.9628C108.159 35.678 108.019 35.3519 107.854 34.9687C107.1 33.2188 106.645 32.0124 106.47 31.2721C106.434 31.1116 106.397 30.9614 106.366 30.8217C106.335 30.6819 106.217 30.6094 106.108 30.6094C106.041 30.6094 105.984 30.6353 105.948 30.6922C105.53 31.2566 105.101 31.9244 104.683 32.6855C104.145 33.6589 103.495 35.1292 102.756 37.0604C102.751 37.0966 102.74 37.1381 102.725 37.1847C102.57 37.6144 102.405 38.0337 102.239 38.4376L102.167 38.6343C102.157 38.655 102.141 38.6913 102.121 38.7172C101.237 40.814 100.251 42.4656 99.1763 43.6149C97.8127 45.0801 96.3354 45.8205 94.7858 45.8205C94.3054 45.8205 93.7889 45.66 93.2517 45.3338C92.6938 45.0025 92.2496 44.4019 91.9294 43.5476C91.8364 43.3043 91.7641 43.0403 91.7124 42.771C91.6814 42.6157 91.5523 42.5432 91.449 42.5432C91.3974 42.5432 91.325 42.5588 91.2682 42.6468C90.6019 43.7081 89.9459 44.4899 89.3157 44.9662C88.3705 45.6859 87.3426 46.0638 86.2579 46.0949H86.1029C85.1577 46.0949 84.3106 45.8464 83.5926 45.3597C82.8384 44.8472 82.2289 44.055 81.7899 43.004C81.6762 42.7296 81.5781 42.4397 81.5058 42.129C80.669 43.3457 79.7496 44.3035 78.7837 44.987C77.7093 45.7429 76.5884 46.126 75.4521 46.126C74.264 46.126 73.2568 45.7429 72.451 44.987C71.1184 43.7289 70.3694 41.5026 70.1628 38.1891C70.1421 37.8318 70.3332 37.516 70.6586 37.3814C71.7589 36.9258 72.7041 36.4029 73.4789 35.8333C74.326 35.2121 74.9562 34.5908 75.3539 33.9902C75.7361 33.4155 75.9221 32.903 75.9066 32.4681C75.8911 32.0901 75.7465 31.8313 75.4417 31.6552C75.2196 31.5206 74.982 31.4533 74.6979 31.4533C74.4655 31.4533 74.202 31.4999 73.9231 31.5879C73.2465 31.8002 72.544 32.2144 71.8312 32.8201C71.1132 33.4311 70.4675 34.1921 69.9252 35.0826C69.3828 35.968 69.0212 36.9051 68.856 37.8629C68.3911 40.638 68.0398 42.9885 67.8126 44.8472C67.7557 45.1474 67.5491 45.3804 67.1772 45.5824C66.8466 45.7636 66.3973 45.8568 65.8497 45.8568C65.2867 45.8568 64.8477 45.7636 64.5119 45.572C64.3105 45.4581 64.1607 45.308 64.0677 45.1319C63.9489 45.2148 63.825 45.2872 63.7062 45.3597C62.8074 45.8878 61.7743 46.1519 60.6328 46.1519C60.3074 46.1519 59.9716 46.1311 59.6307 46.0897C57.4716 45.836 56.0098 44.5262 55.2867 42.2015C54.5946 39.9753 54.6255 36.5427 55.3642 32.0073C55.8239 29.1028 56.516 26.395 57.4251 23.9616C58.3446 21.4972 59.4448 19.7524 60.6844 18.7739C61.3094 18.2717 61.9809 17.9507 62.6886 17.8264C62.8952 17.7902 63.1121 17.7695 63.3188 17.7695C63.8353 17.7695 64.357 17.8834 64.8735 18.106C65.6173 18.427 66.2165 19.0172 66.6504 19.856C67.0688 20.6636 67.3012 21.5593 67.3425 22.5275C67.3838 23.4801 67.2495 24.5104 66.9396 25.5925C66.5109 27.1146 65.8343 28.6161 64.92 30.0554C64.0057 31.4947 62.952 32.7269 61.7847 33.7158C60.7051 34.6322 59.6617 35.3881 58.6855 35.9576C58.6441 35.9783 58.5977 36.0249 58.5873 36.1026C58.484 37.019 58.4324 38.0286 58.4324 39.1055C58.4324 40.2341 58.6235 41.2126 59.0006 42.0048C59.3466 42.7296 59.8683 43.1179 60.5863 43.1852C60.7154 43.2008 60.8342 43.2111 60.953 43.2111C61.3973 43.2111 61.8725 43.1024 62.358 42.8953C62.9882 42.6261 63.6287 42.1187 64.2692 41.3887C64.3415 41.3058 64.4086 41.2178 64.4809 41.135L64.5068 41.1039C64.7702 39.4938 65.0595 37.7904 65.3694 36.0404C65.9221 32.9081 66.6452 29.2322 67.513 25.1162C68.3859 20.9743 68.8611 18.5875 68.9386 18.2458C68.9438 18.2303 68.9489 18.2096 68.9541 18.194C69.0987 17.842 69.5688 17.7436 69.9097 17.7022C70.0027 17.6918 70.0956 17.6867 70.1938 17.6867C70.5967 17.6867 71.0512 17.785 71.5522 17.9818C72.4665 18.339 72.6266 18.8308 72.606 19.1829C72.5956 19.2865 72.5646 19.6282 72.42 20.265C72.3167 20.7258 71.8932 22.6362 71.1442 25.9963C70.7465 27.7929 70.4211 29.315 70.1783 30.511C70.1628 30.5887 70.1783 30.6508 70.2248 30.7078C70.2764 30.7699 70.3539 30.8061 70.4262 30.8061C70.483 30.8061 70.5347 30.7854 70.576 30.7388C70.6586 30.6508 70.7413 30.568 70.8291 30.4799C71.5316 29.7862 72.389 29.2167 73.3808 28.7973C74.1607 28.4659 74.92 28.3003 75.638 28.3003C75.8498 28.3003 76.0616 28.3158 76.2682 28.3417C77.1876 28.4711 77.9004 28.7611 78.3808 29.2063C78.856 29.6464 79.2124 30.2366 79.45 30.9614C79.6876 31.6966 79.6411 32.6182 79.3209 33.7003C79.0006 34.7772 78.2826 35.8075 77.1824 36.7653C76.1855 37.6299 75.0078 38.3237 73.6752 38.8207C73.5822 38.8569 73.5202 38.945 73.5306 39.0433C73.6235 40.2341 73.8766 41.2282 74.2795 41.9944C74.6876 42.771 75.2506 43.1645 75.9892 43.1852C77.0946 43.1852 78.2052 42.5847 79.2847 41.4042C80.168 40.436 80.9531 39.1003 81.6194 37.4332C82.0585 35.5797 82.9314 33.8401 84.2124 32.2454C85.9118 30.1279 87.9159 28.8491 90.1783 28.4452C90.731 28.352 91.3147 28.2951 91.9191 28.3055C93.5771 28.3313 94.6102 28.875 95.1474 29.3668C95.1629 29.3772 95.1732 29.3927 95.1887 29.4082C95.4315 29.7137 95.4005 30.1279 95.1009 30.6301C94.8426 31.065 94.5585 31.3497 94.2434 31.5102C94.0523 31.6034 93.8819 31.65 93.7217 31.65C93.5616 31.65 93.4325 31.562 93.2879 31.5102C92.3994 31.1944 91.5833 31.2824 91.2992 31.3342C90.8343 31.4067 90.292 31.6241 89.6721 31.971C89.0523 32.3231 88.4273 32.8771 87.8126 33.6226C87.1928 34.3733 86.6711 35.2224 86.2682 36.144C85.6897 37.4228 85.3901 38.7586 85.3694 40.115C85.3488 41.4197 85.5915 42.3258 86.0874 42.8021C86.2837 42.9937 86.5161 43.0869 86.8002 43.0869C86.9345 43.0869 87.0792 43.0662 87.2341 43.0247C87.7765 42.8849 88.4118 42.3879 89.1195 41.5544C89.8478 40.6949 90.5709 39.4834 91.2579 37.9457C91.95 36.408 92.4356 34.9791 92.7145 33.1204C92.7197 33.0945 92.7248 33.0738 92.7352 33.0479C92.8488 32.7735 93.1381 32.4474 93.8767 32.4474C93.9438 32.4474 94.011 32.4473 94.0781 32.4525C94.7031 32.4939 95.2197 32.6493 95.6019 32.9081C95.7569 33.0117 95.8808 33.1152 95.9841 33.2136C96.2063 33.4362 96.3044 33.7572 96.2476 34.0575C95.6432 37.2727 95.3075 38.8828 95.2403 39.4161C95.1732 39.9545 95.1319 40.3325 95.1267 40.5344C95.0544 41.4197 95.0906 42.0773 95.23 42.4863C95.3385 42.8073 95.5038 42.9367 95.8034 42.9367C96.2269 42.9367 96.7228 42.6882 97.291 42.1963C97.8901 41.6786 98.5306 40.8761 99.1918 39.8096C99.6257 39.1106 100.023 38.3133 100.375 37.4435C102.007 32.6959 103.779 29.4031 105.643 27.6738C106.191 27.1664 106.764 26.8403 107.348 26.6953C107.596 26.6332 107.833 26.6021 108.055 26.6021C108.381 26.6021 108.686 26.6694 108.954 26.7988C109.435 27.0318 109.75 27.4098 109.858 27.8964C109.951 28.3106 109.868 28.7403 109.605 29.1701C109.584 29.2063 109.559 29.2633 109.564 29.3202C109.631 29.7085 109.729 30.1486 109.858 30.6301C110.008 31.1944 110.178 31.7277 110.364 32.2196C110.55 32.7166 111.098 34.0006 111.991 36.0353C112.684 37.6144 112.988 39.3747 112.854 40.99C112.849 41.0729 112.885 41.135 112.916 41.1661C112.968 41.223 113.04 41.2541 113.107 41.2541C113.138 41.2541 113.174 41.2489 113.205 41.2334C114.832 40.5085 116.465 38.5463 117.369 36.2372C117.57 35.2069 117.833 34.0627 118.148 32.7942C118.593 31.0287 118.866 29.9156 118.959 29.4807C118.975 29.4134 118.996 29.3254 119.052 29.2374C119.223 28.9682 119.528 28.7766 119.982 28.6472C120.173 28.5954 120.38 28.5643 120.602 28.5643C120.927 28.5643 121.294 28.6264 121.676 28.7507C122.694 29.0717 122.766 29.5998 122.72 29.8897C121.666 34.0213 120.989 37.3762 120.716 39.8769C120.514 41.4922 120.664 42.1756 120.819 42.4656C121.026 42.8487 121.33 43.0454 121.775 43.0869C121.795 43.0869 121.862 43.0869 121.862 43.0869C122.616 43.0869 123.484 42.5846 124.45 41.5906C125.483 40.524 126.273 39.0226 126.8 37.1277L128.608 29.4289C128.613 29.4134 128.619 29.3979 128.624 29.3823C128.712 29.1597 128.897 28.9733 129.182 28.8077C129.455 28.6472 129.812 28.5695 130.266 28.5695C130.7 28.5695 131.129 28.6523 131.547 28.8077C132.25 29.0717 132.353 29.5377 132.348 29.7914C132.348 29.8224 132.343 29.8483 132.338 29.8742C132.296 30.0192 132.105 30.7336 131.439 33.3068C130.902 35.3622 130.525 37.4228 130.308 39.4316C130.147 40.7829 130.153 41.7615 130.323 42.3465C130.504 42.9574 130.834 43.0351 131.134 43.0351C131.64 43.0351 132.162 42.8642 132.699 42.5277C133.19 42.2171 133.619 41.8184 133.97 41.3369C134.099 41.1402 134.187 41.0056 134.275 40.8761C134.445 40.6276 134.621 40.3687 135.173 39.4575C135.979 38.1269 136.62 36.2268 136.873 35.0205C137.219 33.3741 137.477 30.6146 137.513 29.3616C137.529 28.7766 138.293 28.6057 138.541 28.5488C138.768 28.497 139.001 28.4711 139.228 28.4711C139.584 28.4711 139.941 28.5333 140.292 28.6575C141.113 28.9526 141.32 29.4341 141.351 29.7914C141.418 30.8941 141.33 32.0901 141.098 33.3534C140.607 36.0301 140.483 36.5012 139.9 37.9561C139.765 38.2926 139.6 38.655 139.414 39.033C139.373 39.1158 139.378 39.1935 139.424 39.266C139.476 39.3436 139.564 39.3954 139.646 39.3954C139.698 39.3954 139.75 39.3747 139.796 39.3333C140.034 39.121 140.246 38.888 140.432 38.6395C140.84 38.0907 141.108 37.4435 141.346 36.8688C141.454 36.61 141.552 36.377 141.651 36.1751C142.136 34.7823 142.89 33.4466 143.887 32.1988C145.587 30.0813 147.591 28.8025 149.853 28.3986C150.406 28.3055 150.989 28.2174 151.594 28.2588C153.283 28.3727 154.362 28.554 154.9 29.051C154.915 29.0613 154.925 29.0769 154.936 29.0924C155.179 29.3979 155.153 29.8121 154.848 30.3143C154.585 30.7492 154.306 31.0391 153.991 31.1944C153.799 31.2876 153.629 31.3497 153.469 31.3342C152.983 31.2876 152.704 31.2358 151.852 31.21C151.547 31.21 151.248 31.2358 150.969 31.2928C150.504 31.3653 149.962 31.5827 149.342 31.9296C148.722 32.2817 148.097 32.8356 147.482 33.5812C146.857 34.3371 146.341 35.1862 145.938 36.1026C145.359 37.3814 145.06 38.7171 145.039 40.0736C145.018 41.3783 145.261 42.2844 145.757 42.7607C145.953 42.9522 146.186 43.0454 146.47 43.0454C146.604 43.0454 146.749 43.0247 146.904 42.9833C147.446 42.8435 148.081 42.3465 148.789 41.5129C149.517 40.6535 150.241 39.442 150.927 37.9043C151.62 36.3666 152.105 34.9377 152.384 33.079C152.389 33.0531 152.394 33.0324 152.405 33.0065C152.518 32.7321 152.808 32.4059 153.546 32.4059C153.608 32.4059 153.681 32.4059 153.748 32.4111C154.373 32.4525 154.889 32.6079 155.272 32.8667C155.426 32.9703 155.55 33.0686 155.654 33.1722C155.876 33.3948 155.974 33.7158 155.922 34.0109C155.318 37.2261 154.977 38.8362 154.91 39.3695C154.843 39.908 154.801 40.2859 154.796 40.4878C154.724 41.3732 154.755 42.0255 154.9 42.4449C155.008 42.7607 155.173 42.8953 155.473 42.8953C155.897 42.8953 156.398 42.6468 156.961 42.1549C157.56 41.6372 158.2 40.8347 158.861 39.7682C159.481 38.7741 160.003 37.6299 160.421 36.3718C160.798 33.9954 161.181 31.6138 161.573 29.1856C161.661 28.7766 162.033 28.5281 162.679 28.4297C162.828 28.409 162.978 28.3935 163.128 28.3935C163.551 28.3935 163.97 28.4867 164.368 28.673C165.132 29.0303 165.297 29.5273 165.303 29.8794C165.303 29.9053 165.297 29.9311 165.292 29.957L165.22 30.2729C165.788 29.7965 166.398 29.4859 167.147 29.2374C168.634 28.7352 169.709 28.9009 170.664 29.1287C171.62 29.3565 172.24 29.6257 173.149 30.3039C174.192 31.0805 174.864 32.0487 175.158 33.0479C175.483 34.1559 175.458 34.7875 175.37 35.9058C175.251 37.3814 174.951 38.5359 174.781 39.0951C174.569 39.7941 174.177 40.8658 173.763 41.5854C173.412 42.1964 173.236 42.4034 172.942 42.7451L172.751 42.973C171.914 43.9618 171.026 44.7022 170.106 45.1785C169.538 45.4736 168.588 45.9603 167.193 46.0224C167.09 46.0276 166.986 46.0276 166.888 46.0276C166.041 46.0276 165.22 45.8723 164.45 45.5616C163.934 45.3545 163.453 45.0801 163.035 44.754C162.988 44.7177 162.937 44.7022 162.885 44.7022C162.797 44.7022 162.694 44.7591 162.679 44.8834C162.487 46.2709 162.307 47.5756 161.935 50.1022C161.718 51.5777 161.361 53.1672 161.356 53.2086C161.124 54.4357 160.478 55 159.383 55ZM166.687 32.38C165.736 32.7787 164.776 33.3016 164.564 34.0627C164.554 34.0989 164.528 34.1248 164.523 34.1611C164.104 36.5116 163.681 39.0382 163.267 41.6683C163.257 41.7459 163.273 41.8184 163.319 41.8702C163.758 42.3672 164.352 42.7348 165.075 42.973C165.334 43.0558 165.597 43.1127 165.86 43.1438C166 43.1593 166.134 43.1645 166.263 43.1645C166.878 43.1645 167.348 43.0092 167.57 42.9315C168.614 42.5795 169.001 42.2585 169.569 41.5233C170.153 40.7726 170.39 40.4567 170.68 39.7008C170.917 39.0796 171.222 38.2098 171.413 37.2312C171.687 35.8489 171.718 35.2587 171.671 34.6995C171.599 33.8608 171.434 33.3637 170.798 32.789C169.585 31.6914 167.699 31.9555 166.687 32.38ZM63.4324 20.9536C62.9778 20.9536 62.0171 21.6163 60.6948 26.0481C60.1008 28.0828 59.6204 29.9622 59.264 31.6241C59.2485 31.7018 59.264 31.7691 59.3105 31.8261C59.3621 31.8882 59.4448 31.9296 59.5223 31.9296C59.5791 31.9296 59.6256 31.9089 59.672 31.8623C60.1576 31.3394 60.6173 30.7595 61.0512 30.1382C61.8518 28.994 62.4768 27.7981 62.9107 26.5866C63.4892 24.9609 63.825 23.5526 63.9024 22.3981C63.9644 21.4817 63.8043 21.1555 63.7062 21.0468C63.67 21.0053 63.6132 20.9588 63.4892 20.9536H63.4324Z" fill="#330066"/>
  <path d="M209.71 29.8121C211.337 31.443 211.337 34.0938 209.71 35.7247C208.083 37.3555 205.438 37.3555 203.811 35.7247C202.184 34.0938 198.806 24.7952 198.806 24.7952C198.806 24.7952 208.083 28.1812 209.71 29.8121Z" fill="#FF0066"/>
  <path d="M196.368 24.7952C196.368 24.7952 192.99 34.0886 191.363 35.7247C189.736 37.3555 187.091 37.3555 185.464 35.7247C183.837 34.0938 183.837 31.443 185.464 29.8121C187.091 28.1812 196.368 24.7952 196.368 24.7952Z" fill="#FF0066"/>
  <path d="M209.71 11.4221C211.337 13.053 211.337 15.7038 209.71 17.3347C208.083 18.9655 198.806 22.3515 198.806 22.3515C198.806 22.3515 202.184 13.0582 203.811 11.4221C205.444 9.78605 208.083 9.78605 209.71 11.4221Z" fill="#FF0066"/>
  <path d="M191.363 11.4221C192.99 13.053 196.368 22.3515 196.368 22.3515C196.368 22.3515 187.096 18.9655 185.464 17.3347C183.837 15.7038 183.837 13.053 185.464 11.4221C187.091 9.78605 189.736 9.78605 191.363 11.4221Z" fill="#FF0066"/>
  <path d="M220 23.5731C220 25.8822 218.135 27.7512 215.832 27.7512C213.528 27.7512 199.984 23.5731 199.984 23.5731C199.984 23.5731 213.528 19.3949 215.832 19.3949C218.135 19.3949 220 21.2639 220 23.5731Z" fill="#FF0066"/>
  <path d="M194.979 23.5731C194.979 23.5731 181.435 27.7512 179.132 27.7512C176.828 27.7512 174.963 25.8822 174.963 23.5731C174.963 21.2639 176.828 19.3949 179.132 19.3949C181.435 19.3949 194.979 23.5731 194.979 23.5731Z" fill="#FF0066"/>
  <path d="M197.478 46.1469C195.174 46.1469 193.31 44.2779 193.31 41.9688C193.31 39.6597 197.478 26.0846 197.478 26.0846C197.478 26.0846 201.646 39.6597 201.646 41.9688C201.646 44.2779 199.782 46.1469 197.478 46.1469Z" fill="#FF0066"/>
  <path d="M197.478 21.0623C197.478 21.0623 193.31 7.48725 193.31 5.17814C193.31 2.86904 195.174 1 197.478 1C199.782 1 201.646 2.86904 201.646 5.17814C201.646 7.48725 197.478 21.0623 197.478 21.0623Z" fill="#FF0066"/>
</svg>
