<svg xmlns="http://www.w3.org/2000/svg" fill="none" viewBox="0 0 240 70"><path fill="#306" d="M64.864 46.255c-1.374 0-2.557-.316-3.528-.947-.976-.632-1.699-1.543-2.154-2.703-.449-1.139-.604-2.578-.46-4.271.078-.948.295-1.962.646-3.013.357-1.056.904-2.071 1.622-3.008.724-.937 1.648-1.75 2.748-2.413 1.116-.668 2.392-1.035 3.797-1.087q.153-.006.3-.005c1.508 0 2.742.398 3.677 1.19.987.834 1.643 1.947 1.953 3.309.408 1.801.232 3.329.061 4.323-.196 1.139-.697 2.583-1.379 3.966-.206.43-.599.978-.914 1.424l-.201.284a7.7 7.7 0 0 1-3.378 2.47c-1.292.481-2.418.481-2.79.481m2.852-14.522q-.095-.001-.197.005c-.61.026-1.27.305-1.968.834-.707.538-1.353 1.387-1.906 2.531-.563 1.15-.893 2.315-.991 3.459-.104 1.6.072 2.837.526 3.665.43.777 1.06 1.15 1.937 1.15.734 0 1.25-.28 1.591-.466a4.3 4.3 0 0 0 1.349-1.165c.263-.275.464-.56.624-.865.254-.502.383-.833.45-1.04.274-.793.553-2.04.739-3.34.123-.87.123-1.641.005-2.506-.093-.673-.346-1.242-.754-1.693-.352-.383-.811-.57-1.405-.57M47.39 24.8c.304.006 1.074.083 1.466.575.434.544.341 1.388.305 1.678s-.119.605-.232 1.045c-.093.363-.445 2.351-.527 2.827-.114.678.041 1.238.506 1.802.45.538 1.188.813 1.854.834.114.005.197.005.28.005.914 0 1.786-.057 2.608-.332.924-.31 1.777-.792 2.36-1.693.584-.9 1.085-2.36 1.126-3.82.037-1.248-.61-2.667-1.183-3.625-.573-.957-1.611-1.755-2.7-2.37-1.096-.617-2.377-.97-3.818-1.042a10 10 0 0 0-.548-.015c-1.818 0-3.476.456-4.932 1.361-1.581.98-2.444 2.232-2.748 3.666s.294 3.055 1.42 4.4c.207.311.222.648.062 1.026-.145.347-.45.632-.904.839-.232.108-.46.16-.666.16-.233 0-.45-.062-.64-.191-.863-.663-1.39-1.528-1.798-2.294-.45-.849-.568-1.843-.651-2.785-.114-1.315.093-2.423.677-3.593.563-1.13.97-1.926 2.22-2.998 1.023-.875 2.103-1.59 3.539-2.014a14.8 14.8 0 0 1 4.256-.606h.269c1.064.026 2.236.197 3.502.502 1.276.311 2.438.803 3.46 1.455 1.023.652 1.783 1.44 2.444 2.242.666.808 1.291 1.802 1.617 2.848.325 1.035.599 2.334.542 3.49-.083 1.718-.501 3.131-1.255 4.384-.755 1.258-1.932 2.325-3.156 2.993-1.22.668-2.64 1.02-4.215 1.046h-.207c-.707 0-1.425-.062-2.143-.181a2.5 2.5 0 0 0-.393-.032c-.723 0-1.405.389-1.767.953-.206.326-.377.673-.377.828l-1.033 6.327c-.005.135-.077 1.113-.867 1.553-.403.223-.801.202-.879.197-.578-.036-1.09-.383-1.368-.766-.455-.621-.336-1.398-.29-1.688l2.893-16.78c.14-1.118.888-2.22 1.89-2.21M179.383 55c-.429 0-.801-.16-1.074-.461-.377-.42-.527-1.082-.434-1.869.589-4.121.769-4.779 1.389-8.827a.23.23 0 0 0-.057-.202.28.28 0 0 0-.206-.099.2.2 0 0 0-.155.073c-1.364 1.465-2.841 2.21-4.391 2.21-.48 0-.997-.16-1.534-.486-.558-.331-1.002-.932-1.322-1.786a4.7 4.7 0 0 1-.217-.777.274.274 0 0 0-.263-.228.2.2 0 0 0-.181.104c-.666 1.061-1.322 1.843-1.953 2.32-.945.719-1.978 1.097-3.058 1.128h-.154c-.946 0-1.793-.249-2.511-.735-.754-.513-1.363-1.305-1.803-2.356a6 6 0 0 1-.335-1.103.27.27 0 0 0-.253-.222.23.23 0 0 0-.135.046 5.4 5.4 0 0 1-.94.6 39 39 0 0 1-1.539.726c-1.069.486-2.076.942-3.275 1.744l-.082.057c-.992.663-1.844 1.238-4.102 1.238h-.155c-1.213-.031-2.174-.482-2.861-1.341a4.35 4.35 0 0 1-.806-1.657.27.27 0 0 0-.258-.212.2.2 0 0 0-.166.083c-.289.367-.604.724-.945 1.05a7.1 7.1 0 0 1-2.412 1.564 6.8 6.8 0 0 1-2.433.477c-.062 0-.129 0-.191-.006-1.271-.057-2.257-.554-2.934-1.47-.553-.75-.847-1.75-.878-2.972-.413.388-.842.684-1.369 1.051l-.268.187c-.755.528-1.586.89-2.392 1.237a32 32 0 0 0-1.162.523 3 3 0 0 0-.248.15c-.222.14-.563.357-1.183.673a6.4 6.4 0 0 1-2.949.71h-.176c-.615 0-1.255-.146-1.896-.425a4.7 4.7 0 0 1-1.668-1.222c-.46-.528-.79-1.175-.981-1.926-.192-.735-.228-1.543-.109-2.397.088-.321.279-.56.568-.756q.341-.227.806-.228a2 2 0 0 1 .537.067c.429.12.723.55.687 1.005-.072.864.078 1.563.45 2.081.397.549.914.818 1.591.818.526 0 .883-.228 1.141-.398.093-.063.155-.099.212-.13.196-.119.227-.135.615-.694.485-.704.413-1.884.356-2.36l-.036-.306a9 9 0 0 0-.15-.968c-.181-.844-.403-1.346-.847-2.34-.129-.285-.269-.611-.434-.995-.754-1.75-1.209-2.956-1.384-3.696q-.056-.24-.104-.45a.265.265 0 0 0-.258-.213.18.18 0 0 0-.16.083 18 18 0 0 0-1.265 1.993c-.538.974-1.188 2.444-1.927 4.375a1 1 0 0 1-.031.124c-.155.43-.32.85-.486 1.253l-.072.197c-.01.02-.026.057-.046.083-.884 2.097-1.87 3.748-2.945 4.898-1.363 1.465-2.841 2.205-4.39 2.205-.481 0-.997-.16-1.534-.486-.558-.332-1.002-.932-1.323-1.787a4.7 4.7 0 0 1-.217-.776.274.274 0 0 0-.263-.228.2.2 0 0 0-.181.104c-.666 1.06-1.322 1.843-1.952 2.319-.946.72-1.973 1.098-3.058 1.129h-.155c-.945 0-1.792-.249-2.51-.736-.755-.512-1.364-1.304-1.803-2.355a5.5 5.5 0 0 1-.284-.875c-.837 1.217-1.756 2.174-2.722 2.858-1.075.756-2.196 1.139-3.332 1.139-1.188 0-2.195-.383-3.001-1.14-1.333-1.257-2.082-3.484-2.288-6.797a.805.805 0 0 1 .496-.808c1.1-.455 2.045-.978 2.82-1.548.847-.621 1.477-1.242 1.875-1.843.382-.575.568-1.087.553-1.522-.016-.378-.16-.637-.465-.813a1.4 1.4 0 0 0-.744-.202c-.232 0-.496.047-.775.135-.677.212-1.379.626-2.092 1.232a9.3 9.3 0 0 0-1.906 2.262 7.9 7.9 0 0 0-1.069 2.78c-.465 2.776-.816 5.126-1.043 6.985-.057.3-.264.533-.636.735-.33.181-.78.275-1.327.275-.563 0-1.002-.094-1.338-.285a1.1 1.1 0 0 1-.444-.44c-.12.083-.243.155-.362.227-.899.529-1.932.793-3.073.793q-.49 0-1.002-.062c-2.16-.254-3.621-1.564-4.344-3.889-.692-2.226-.662-5.659.077-10.194.46-2.904 1.152-5.612 2.061-8.046.92-2.464 2.02-4.209 3.26-5.187.624-.503 1.296-.823 2.004-.948.206-.036.423-.057.63-.057.516 0 1.038.114 1.555.337.743.32 1.343.911 1.776 1.75.419.807.651 1.703.692 2.671.042.953-.093 1.983-.402 3.065a16.9 16.9 0 0 1-2.02 4.463c-.914 1.44-1.968 2.672-3.135 3.66-1.08.917-2.123 1.673-3.1 2.242a.19.19 0 0 0-.098.145 27 27 0 0 0-.155 3.003c0 1.129.192 2.107.569 2.9.346.724.867 1.113 1.585 1.18.13.016.248.026.367.026.444 0 .92-.109 1.405-.316.63-.27 1.27-.777 1.911-1.507.072-.082.14-.17.212-.253l.026-.031c.263-1.61.552-3.314.862-5.064.553-3.132 1.276-6.808 2.144-10.924.873-4.142 1.348-6.529 1.426-6.87l.015-.052c.145-.352.615-.45.956-.492q.138-.016.284-.016.605 0 1.358.296c.914.357 1.075.849 1.054 1.2-.01.104-.041.446-.186 1.083l-1.276 5.731a272 272 0 0 0-.966 4.515c-.015.078 0 .14.047.197a.27.27 0 0 0 .201.098q.087.002.15-.067a8.09 8.09 0 0 1 2.805-1.942c.78-.331 1.539-.497 2.257-.497q.32.002.63.041c.92.13 1.632.42 2.113.865.475.44.831 1.03 1.069 1.755.238.735.191 1.657-.13 2.74-.32 1.076-1.037 2.106-2.138 3.064a11.4 11.4 0 0 1-3.507 2.056.22.22 0 0 0-.144.222c.093 1.19.346 2.185.748 2.951.409.777.972 1.17 1.71 1.191 1.106 0 2.216-.6 3.296-1.781.883-.968 1.668-2.304 2.334-3.971.439-1.853 1.312-3.593 2.593-5.188 1.7-2.117 3.704-3.396 5.966-3.8a9.5 9.5 0 0 1 1.741-.14c1.658.026 2.691.57 3.228 1.062.016.01.026.025.042.041.242.305.211.72-.088 1.222-.258.435-.543.72-.858.88-.191.093-.361.14-.521.14s-.29-.088-.434-.14a4.1 4.1 0 0 0-1.989-.176c-.465.073-1.007.29-1.627.637-.62.352-1.245.906-1.859 1.651-.62.751-1.142 1.6-1.545 2.522a10 10 0 0 0-.899 3.97c-.02 1.306.222 2.212.718 2.688a.97.97 0 0 0 .713.285q.201 0 .434-.062c.542-.14 1.178-.637 1.885-1.47.729-.86 1.452-2.072 2.139-3.61.692-1.537 1.178-2.966 1.456-4.825a1 1 0 0 1 .021-.072c.114-.275.403-.6 1.142-.6q.1-.001.201.004c.625.042 1.142.197 1.524.456a3 3 0 0 1 .382.305c.222.223.32.544.264.844-.605 3.215-.941 4.826-1.008 5.359a14 14 0 0 0-.113 1.118c-.073.886-.036 1.543.103 1.952.108.321.274.45.573.45q.636-.001 1.488-.74c.599-.518 1.24-1.32 1.901-2.387a15.6 15.6 0 0 0 1.183-2.366c1.632-4.747 3.404-8.04 5.268-9.77.548-.507 1.121-.833 1.705-.978q.373-.093.707-.093c.326 0 .631.067.899.197.481.233.796.61.904 1.097.093.414.01.844-.253 1.274a.27.27 0 0 0-.041.15c.067.388.165.828.294 1.31.15.564.32 1.098.506 1.59.186.496.734 1.78 1.627 3.815.693 1.58.997 3.34.863 4.955a.23.23 0 0 0 .062.176.27.27 0 0 0 .191.088.2.2 0 0 0 .098-.02c1.627-.726 3.26-2.688 4.164-4.997.201-1.03.464-2.175.779-3.443.445-1.765.718-2.879.811-3.313a.8.8 0 0 1 .093-.244c.171-.269.476-.46.93-.59a2.4 2.4 0 0 1 .62-.083c.325 0 .692.062 1.074.186 1.018.322 1.09.85 1.044 1.14-1.054 4.131-1.731 7.486-2.004 9.987-.202 1.615-.052 2.298.103 2.588.207.383.511.58.956.622h.087c.754 0 1.622-.503 2.588-1.497 1.033-1.066 1.823-2.568 2.35-4.463l1.808-7.698.016-.047c.088-.223.273-.409.558-.575.273-.16.63-.238 1.084-.238.434 0 .863.083 1.281.239.703.264.806.73.801.983q-.001.045-.01.083c-.042.145-.233.86-.899 3.433a42 42 0 0 0-1.131 6.124c-.161 1.352-.155 2.33.015 2.915.181.611.511.689.811.689q.76-.002 1.565-.507c.491-.311.92-.71 1.271-1.191.129-.197.217-.332.305-.461.17-.249.346-.508.898-1.419.806-1.33 1.447-3.23 1.7-4.437.346-1.646.604-4.406.64-5.659.016-.585.78-.756 1.028-.812a3.1 3.1 0 0 1 1.751.108c.821.295 1.028.777 1.059 1.134.067 1.103-.021 2.299-.253 3.562-.491 2.677-.615 3.148-1.198 4.603-.135.336-.3.699-.486 1.077a.22.22 0 0 0 .01.233c.052.077.14.13.222.13q.08 0 .15-.063.357-.32.636-.694c.408-.549.676-1.196.914-1.77.108-.26.206-.492.305-.694.485-1.393 1.239-2.729 2.236-3.976 1.7-2.118 3.704-3.397 5.966-3.8.553-.094 1.136-.182 1.741-.14 1.689.113 2.768.295 3.306.792q.021.017.036.041c.243.306.217.72-.088 1.222-.263.435-.542.725-.857.88-.192.093-.362.155-.522.14-.486-.047-.765-.098-1.617-.124a4.4 4.4 0 0 0-.883.083c-.465.072-1.007.29-1.627.636-.62.353-1.245.906-1.86 1.652a10.7 10.7 0 0 0-1.544 2.521 9.95 9.95 0 0 0-.899 3.971c-.021 1.305.222 2.211.718 2.688a.97.97 0 0 0 .713.284q.201 0 .434-.062c.542-.14 1.177-.637 1.885-1.47.728-.86 1.452-2.071 2.138-3.609.693-1.538 1.178-2.967 1.457-4.825a.3.3 0 0 1 .021-.073c.113-.274.403-.6 1.141-.6.062 0 .135 0 .202.005.625.041 1.141.197 1.524.456.154.103.278.201.382.305.222.223.32.544.268.839-.604 3.215-.945 4.825-1.012 5.358-.067.539-.109.917-.114 1.119-.072.885-.041 1.537.104 1.957.108.316.273.45.573.45.424 0 .925-.248 1.488-.74.599-.518 1.239-1.32 1.9-2.387.62-.994 1.142-2.138 1.56-3.396.377-2.377.76-4.758 1.152-7.187.088-.409.46-.657 1.106-.755a3 3 0 0 1 .449-.037c.423 0 .842.093 1.24.28.764.357.929.854.935 1.206q-.002.039-.011.078l-.072.316c.568-.477 1.178-.787 1.927-1.036 1.487-.502 2.562-.336 3.517-.108.956.227 1.576.496 2.485 1.175 1.043.776 1.715 1.744 2.009 2.744.325 1.108.3 1.74.212 2.858a15.6 15.6 0 0 1-.589 3.189c-.212.699-.604 1.77-1.018 2.49a6 6 0 0 1-.821 1.16l-.191.228c-.837.989-1.725 1.729-2.645 2.205-.568.295-1.518.782-2.913.844q-.156.006-.305.005a6.5 6.5 0 0 1-2.438-.466 5.9 5.9 0 0 1-1.415-.807.24.24 0 0 0-.15-.052.203.203 0 0 0-.206.181c-.192 1.388-.372 2.692-.744 5.219-.217 1.476-.574 3.065-.579 3.106-.232 1.227-.878 1.792-1.973 1.792m7.304-22.62c-.951.398-1.911.921-2.123 1.682-.01.037-.036.063-.041.099-.419 2.35-.842 4.877-1.256 7.507a.25.25 0 0 0 .052.202c.439.497 1.033.865 1.756 1.103q.39.125.785.17.21.022.403.021c.615 0 1.085-.155 1.307-.233 1.044-.352 1.431-.673 1.999-1.408.584-.75.821-1.067 1.111-1.822.237-.622.542-1.491.733-2.47.274-1.382.305-1.973.258-2.532-.072-.838-.237-1.335-.873-1.91-1.213-1.098-3.099-.834-4.111-.41M83.432 20.953c-.454 0-1.415.663-2.737 5.095a80 80 0 0 0-1.431 5.576.23.23 0 0 0 .047.202.29.29 0 0 0 .211.103.2.2 0 0 0 .15-.067c.486-.523.945-1.103 1.38-1.724.8-1.144 1.425-2.34 1.859-3.552.578-1.625.914-3.034.991-4.188.062-.916-.098-1.243-.196-1.351-.036-.042-.093-.088-.217-.094z"/><path fill="#F06" d="M229.71 29.812a4.19 4.19 0 0 1 0 5.913 4.17 4.17 0 0 1-5.899 0c-1.627-1.631-5.005-10.93-5.005-10.93s9.277 3.386 10.904 5.017M216.368 24.795s-3.378 9.294-5.005 10.93a4.17 4.17 0 0 1-5.899 0 4.19 4.19 0 0 1 0-5.913c1.627-1.63 10.904-5.017 10.904-5.017M229.71 11.422a4.19 4.19 0 0 1 0 5.912c-1.627 1.631-10.904 5.017-10.904 5.017s3.378-9.293 5.005-10.93a4.16 4.16 0 0 1 5.899 0M211.363 11.422c1.627 1.63 5.005 10.93 5.005 10.93s-9.272-3.387-10.904-5.018a4.19 4.19 0 0 1 0-5.912 4.16 4.16 0 0 1 5.899 0M240 23.573a4.17 4.17 0 0 1-4.168 4.178c-2.304 0-15.848-4.178-15.848-4.178s13.544-4.178 15.848-4.178A4.17 4.17 0 0 1 240 23.573M214.979 23.573s-13.544 4.178-15.847 4.178a4.17 4.17 0 0 1-4.169-4.178 4.17 4.17 0 0 1 4.169-4.178c2.303 0 15.847 4.178 15.847 4.178M217.478 46.147a4.17 4.17 0 0 1-4.168-4.178c0-2.31 4.168-15.885 4.168-15.885s4.168 13.576 4.168 15.885a4.17 4.17 0 0 1-4.168 4.178M217.478 21.062S213.31 7.487 213.31 5.178A4.17 4.17 0 0 1 217.478 1a4.17 4.17 0 0 1 4.168 4.178c0 2.31-4.168 15.884-4.168 15.884"/></svg>