<svg viewBox="0 0 240 70" fill="none"
  xmlns="http://www.w3.org/2000/svg">
  <path d="M64.8643 46.2553C63.4903 46.2553 62.3075 45.9395 61.3364 45.3079C60.3602 44.6762 59.637 43.765 59.1825 42.6053C58.7331 41.4663 58.5781 40.027 58.7228 38.3339C58.8002 37.3865 59.0172 36.3717 59.3684 35.3207C59.7248 34.2645 60.2724 33.2498 60.9903 32.3127C61.7135 31.3756 62.6381 30.5627 63.7383 29.9C64.854 29.2321 66.1298 28.8645 67.5348 28.8127C67.6381 28.8076 67.7362 28.8076 67.8344 28.8076C69.3426 28.8076 70.5772 29.2062 71.5121 29.9984C72.4986 30.8319 73.1546 31.9451 73.4646 33.3067C73.8726 35.1084 73.697 36.6358 73.5265 37.6298C73.3303 38.7688 72.8292 40.2133 72.1474 41.5957C71.9408 42.0254 71.5482 42.5742 71.2331 43.0195L71.0317 43.3042C70.1329 44.4433 68.9656 45.2923 67.6536 45.7738C66.3623 46.2553 65.2362 46.2553 64.8643 46.2553ZM67.7156 31.7328C67.6536 31.7328 67.5864 31.7328 67.5193 31.738C66.9098 31.7638 66.2486 32.0434 65.5513 32.5715C64.8437 33.11 64.198 33.9591 63.6453 35.1033C63.0823 36.2526 62.7517 37.4176 62.6536 38.5618C62.5503 40.1616 62.7259 41.3989 63.1804 42.2273C63.6092 43.0039 64.2393 43.3767 65.1174 43.3767C65.8509 43.3767 66.3674 43.0971 66.7083 42.9107C67.23 42.626 67.6846 42.2325 68.0565 41.7458C68.3199 41.4714 68.5214 41.1867 68.6815 40.8812C68.9346 40.379 69.0637 40.0477 69.1309 39.8406C69.4046 39.0484 69.6836 37.8007 69.8695 36.5011C69.9935 35.6314 69.9935 34.8599 69.8747 33.9953C69.7817 33.3222 69.5286 32.7527 69.1205 32.3023C68.7693 31.9192 68.3096 31.7328 67.7156 31.7328Z" fill="#330066"/>
  <path d="M47.3895 24.8004C47.6942 24.8056 48.4639 24.8833 48.8564 25.3751C49.2903 25.9188 49.1973 26.7627 49.1612 27.0526C49.125 27.3425 49.0424 27.6583 48.9287 28.0984C48.8358 28.4608 48.4845 30.449 48.4019 30.9253C48.2882 31.6035 48.4432 32.1627 48.9081 32.727C49.3574 33.2654 50.0961 33.5399 50.7624 33.5606C50.876 33.5657 50.9587 33.5657 51.0413 33.5657C51.9556 33.5657 52.8285 33.5088 53.6498 33.2344C54.5744 32.9237 55.4267 32.4423 56.0104 31.5414C56.594 30.6405 57.0951 29.1805 57.1364 27.7205C57.1726 26.4727 56.5269 25.0541 55.9535 24.0963C55.3802 23.1385 54.342 22.3412 53.2521 21.7251C52.157 21.109 50.876 20.7569 49.4349 20.6844C49.249 20.6741 49.0682 20.6689 48.8874 20.6689C47.0692 20.6689 45.4112 21.1245 43.9545 22.0305C42.374 23.0091 41.5113 24.262 41.2066 25.6961C40.9018 27.1303 41.501 28.7508 42.6271 30.0969C42.8337 30.4075 42.8492 30.7441 42.689 31.122C42.5444 31.4689 42.2397 31.7537 41.7851 31.9608C41.5527 32.0695 41.3254 32.1213 41.1188 32.1213C40.8863 32.1213 40.6694 32.0591 40.4783 31.9297C39.6157 31.267 39.0888 30.4024 38.6808 29.6361C38.2314 28.787 38.1126 27.793 38.0299 26.8507C37.9163 25.5356 38.1229 24.4277 38.7066 23.2576C39.2696 22.1289 39.6777 21.3316 40.9277 20.2599C41.9504 19.3849 43.0299 18.6704 44.4659 18.2459C45.814 17.8421 47.2448 17.6401 48.7221 17.6401H48.9907C50.0548 17.666 51.2273 17.8369 52.4928 18.1423C53.7686 18.453 54.9308 18.9448 55.9535 19.5972C56.9763 20.2495 57.7356 21.0365 58.3967 21.839C59.0631 22.6467 59.6881 23.6407 60.0135 24.6865C60.3389 25.722 60.6127 27.0215 60.5558 28.1761C60.4732 29.895 60.0548 31.3084 59.3007 32.5613C58.5465 33.8194 57.3688 34.886 56.1447 35.5539C54.9257 36.2217 53.5052 36.5738 51.9298 36.5997H51.7232C51.0155 36.5997 50.2975 36.5375 49.5796 36.4185C49.4504 36.3978 49.3161 36.3874 49.187 36.3874C48.4639 36.3874 47.782 36.7757 47.4205 37.34C47.2138 37.6662 47.0434 38.0131 47.0434 38.1684L46.0103 44.4952C46.0052 44.6298 45.9329 45.6083 45.1426 46.0484C44.7397 46.271 44.3419 46.2503 44.2645 46.2451C43.6859 46.2089 43.1746 45.862 42.8956 45.4789C42.4411 44.8576 42.5599 44.081 42.6064 43.791L45.499 27.0112C45.6384 25.8929 46.3874 24.7901 47.3895 24.8004Z" fill="#330066"/>
  <path d="M179.383 54.9998C178.954 54.9998 178.582 54.8393 178.309 54.539C177.932 54.1196 177.782 53.4569 177.875 52.67C178.464 48.5488 178.644 47.8913 179.264 43.8426C179.275 43.7649 179.259 43.6976 179.207 43.6406C179.156 43.5785 179.073 43.5423 179.001 43.5423C178.944 43.5423 178.887 43.5681 178.846 43.6147C177.482 45.0799 176.005 45.8255 174.455 45.8255C173.975 45.8255 173.458 45.665 172.921 45.3388C172.363 45.0075 171.919 44.4069 171.599 43.5526C171.506 43.3093 171.434 43.0452 171.382 42.776C171.351 42.6207 171.222 42.5482 171.119 42.5482C171.067 42.5482 170.995 42.5637 170.938 42.6518C170.272 43.7131 169.616 44.4949 168.985 44.9712C168.04 45.6909 167.007 46.0688 165.927 46.0999H165.773C164.827 46.0999 163.98 45.8514 163.262 45.3647C162.508 44.8521 161.899 44.06 161.459 43.009C161.315 42.6725 161.206 42.2997 161.124 41.9062C161.093 41.7612 160.974 41.6836 160.871 41.6836C160.824 41.6836 160.778 41.6991 160.736 41.7302C160.442 41.9632 160.127 42.1651 159.796 42.3308C159.259 42.6 158.753 42.833 158.257 43.0556C157.188 43.5423 156.181 43.9979 154.982 44.8004L154.9 44.8573C153.908 45.52 153.056 46.0947 150.798 46.0947H150.643C149.43 46.0636 148.469 45.6132 147.782 44.7538C147.405 44.2826 147.136 43.7235 146.976 43.097C146.94 42.9469 146.816 42.8847 146.718 42.8847C146.651 42.8847 146.599 42.9106 146.552 42.9676C146.263 43.3352 145.948 43.6924 145.607 44.0186C144.889 44.7175 144.078 45.2405 143.195 45.5822C142.374 45.898 141.558 46.0585 140.762 46.0585C140.7 46.0585 140.633 46.0585 140.571 46.0533C139.3 45.9963 138.314 45.4993 137.637 44.5829C137.084 43.8322 136.79 42.833 136.759 41.6111C136.346 41.9994 135.917 42.2945 135.39 42.6621L135.122 42.8485C134.367 43.3766 133.536 43.739 132.73 44.0859C132.348 44.2516 131.955 44.4224 131.568 44.6088C131.501 44.645 131.423 44.6916 131.32 44.759C131.098 44.8987 130.757 45.1162 130.137 45.432C129.218 45.9032 128.226 46.1413 127.188 46.1413H127.012C126.397 46.1413 125.757 45.9963 125.116 45.7168C124.466 45.432 123.908 45.023 123.448 44.4949C122.988 43.9668 122.658 43.3196 122.467 42.5689C122.275 41.8337 122.239 41.0261 122.358 40.1718C122.446 39.8508 122.637 39.6126 122.926 39.4159C123.154 39.2658 123.422 39.1881 123.732 39.1881C123.83 39.1881 123.934 39.1933 124.037 39.2088C124.119 39.2192 124.197 39.2347 124.269 39.2554C124.698 39.3745 124.992 39.8042 124.956 40.2598C124.884 41.1244 125.034 41.8234 125.406 42.3411C125.803 42.8899 126.32 43.1591 126.997 43.1591C127.523 43.1591 127.88 42.9313 128.138 42.7605C128.231 42.6984 128.293 42.6621 128.35 42.631C128.546 42.512 128.577 42.4964 128.965 41.9373C129.45 41.2332 129.378 40.0527 129.321 39.5764L129.285 39.2709C129.238 38.8619 129.223 38.7377 129.135 38.3028C128.954 37.4589 128.732 36.9566 128.288 35.9626C128.159 35.6778 128.019 35.3517 127.854 34.9685C127.1 33.2186 126.645 32.0122 126.47 31.2719C126.434 31.1114 126.397 30.9612 126.366 30.8215C126.335 30.6817 126.217 30.6092 126.108 30.6092C126.041 30.6092 125.984 30.6351 125.948 30.692C125.53 31.2564 125.101 31.9242 124.683 32.6853C124.145 33.6587 123.495 35.129 122.756 37.0602C122.751 37.0964 122.74 37.1379 122.725 37.1845C122.57 37.6142 122.405 38.0335 122.239 38.4374L122.167 38.6341C122.157 38.6548 122.141 38.6911 122.121 38.717C121.237 40.8138 120.251 42.4654 119.176 43.6147C117.813 45.0799 116.335 45.8203 114.786 45.8203C114.305 45.8203 113.789 45.6598 113.252 45.3336C112.694 45.0023 112.25 44.4017 111.929 43.5474C111.836 43.3041 111.764 43.0401 111.712 42.7708C111.681 42.6155 111.552 42.543 111.449 42.543C111.397 42.543 111.325 42.5586 111.268 42.6466C110.602 43.7079 109.946 44.4897 109.316 44.966C108.37 45.6857 107.343 46.0636 106.258 46.0947H106.103C105.158 46.0947 104.311 45.8462 103.593 45.3595C102.838 44.847 102.229 44.0548 101.79 43.0038C101.676 42.7294 101.578 42.4395 101.506 42.1288C100.669 43.3455 99.7496 44.3033 98.7837 44.9868C97.7093 45.7427 96.5884 46.1258 95.4521 46.1258C94.264 46.1258 93.2568 45.7427 92.451 44.9868C91.1184 43.7287 90.3694 41.5024 90.1628 38.1889C90.1421 37.8316 90.3332 37.5158 90.6586 37.3812C91.7589 36.9256 92.7041 36.4027 93.4789 35.8331C94.326 35.2119 94.9562 34.5906 95.3539 33.99C95.7361 33.4153 95.9221 32.9028 95.9066 32.4679C95.8911 32.0899 95.7465 31.8311 95.4417 31.655C95.2196 31.5204 94.982 31.4531 94.6979 31.4531C94.4655 31.4531 94.202 31.4997 93.9231 31.5877C93.2465 31.8 92.544 32.2142 91.8312 32.8199C91.1132 33.4309 90.4675 34.1919 89.9252 35.0824C89.3828 35.9678 89.0212 36.9049 88.856 37.8627C88.3911 40.6378 88.0398 42.9883 87.8126 44.847C87.7557 45.1472 87.5491 45.3802 87.1772 45.5822C86.8466 45.7634 86.3973 45.8566 85.8497 45.8566C85.2867 45.8566 84.8477 45.7634 84.5119 45.5718C84.3105 45.4579 84.1607 45.3078 84.0677 45.1317C83.9489 45.2146 83.825 45.287 83.7062 45.3595C82.8074 45.8876 81.7743 46.1517 80.6328 46.1517C80.3074 46.1517 79.9716 46.1309 79.6307 46.0895C77.4716 45.8358 76.0098 44.526 75.2867 42.2013C74.5946 39.9751 74.6255 36.5425 75.3642 32.0071C75.8239 29.1026 76.516 26.3948 77.4251 23.9614C78.3446 21.497 79.4448 19.7522 80.6844 18.7737C81.3094 18.2715 81.9809 17.9505 82.6886 17.8262C82.8952 17.79 83.1121 17.7693 83.3188 17.7693C83.8353 17.7693 84.357 17.8832 84.8735 18.1058C85.6173 18.4268 86.2165 19.017 86.6504 19.8558C87.0688 20.6634 87.3012 21.5591 87.3425 22.5273C87.3838 23.4799 87.2495 24.5102 86.9396 25.5923C86.5109 27.1144 85.8343 28.6159 84.92 30.0552C84.0057 31.4945 82.952 32.7267 81.7847 33.7156C80.7051 34.632 79.6617 35.3879 78.6855 35.9574C78.6441 35.9781 78.5977 36.0247 78.5873 36.1024C78.484 37.0188 78.4324 38.0284 78.4324 39.1053C78.4324 40.2339 78.6235 41.2124 79.0006 42.0046C79.3466 42.7294 79.8683 43.1177 80.5863 43.185C80.7154 43.2006 80.8342 43.2109 80.953 43.2109C81.3973 43.2109 81.8725 43.1022 82.358 42.8951C82.9882 42.6259 83.6287 42.1185 84.2692 41.3885C84.3415 41.3056 84.4086 41.2176 84.4809 41.1348L84.5068 41.1037C84.7702 39.4936 85.0595 37.7902 85.3694 36.0402C85.9221 32.9079 86.6452 29.232 87.513 25.116C88.3859 20.9741 88.8611 18.5873 88.9386 18.2456C88.9438 18.2301 88.9489 18.2094 88.9541 18.1938C89.0987 17.8418 89.5688 17.7434 89.9097 17.702C90.0027 17.6916 90.0956 17.6865 90.1938 17.6865C90.5967 17.6865 91.0512 17.7848 91.5522 17.9816C92.4665 18.3388 92.6266 18.8306 92.606 19.1827C92.5956 19.2863 92.5646 19.628 92.42 20.2648C92.3167 20.7256 91.8932 22.636 91.1442 25.9961C90.7465 27.7927 90.4211 29.3148 90.1783 30.5108C90.1628 30.5885 90.1783 30.6506 90.2248 30.7076C90.2764 30.7697 90.3539 30.8059 90.4262 30.8059C90.483 30.8059 90.5347 30.7852 90.576 30.7386C90.6586 30.6506 90.7413 30.5678 90.8291 30.4797C91.5316 29.786 92.389 29.2165 93.3808 28.7971C94.1607 28.4657 94.92 28.3001 95.638 28.3001C95.8498 28.3001 96.0616 28.3156 96.2682 28.3415C97.1876 28.4709 97.9004 28.7609 98.3808 29.2061C98.856 29.6462 99.2124 30.2364 99.45 30.9612C99.6876 31.6964 99.6411 32.618 99.3209 33.7001C99.0006 34.777 98.2826 35.8073 97.1824 36.7651C96.1855 37.6297 95.0078 38.3235 93.6752 38.8205C93.5822 38.8567 93.5202 38.9448 93.5306 39.0431C93.6235 40.2339 93.8766 41.228 94.2795 41.9942C94.6876 42.7708 95.2506 43.1643 95.9892 43.185C97.0946 43.185 98.2052 42.5845 99.2847 41.404C100.168 40.4358 100.953 39.1001 101.619 37.433C102.058 35.5795 102.931 33.8399 104.212 32.2452C105.912 30.1277 107.916 28.8489 110.178 28.445C110.731 28.3518 111.315 28.2949 111.919 28.3053C113.577 28.3311 114.61 28.8748 115.147 29.3666C115.163 29.377 115.173 29.3925 115.189 29.408C115.431 29.7135 115.4 30.1277 115.101 30.6299C114.843 31.0648 114.558 31.3495 114.243 31.51C114.052 31.6032 113.882 31.6498 113.722 31.6498C113.562 31.6498 113.432 31.5618 113.288 31.51C112.399 31.1942 111.583 31.2822 111.299 31.334C110.834 31.4065 110.292 31.6239 109.672 31.9708C109.052 32.3229 108.427 32.8769 107.813 33.6224C107.193 34.3731 106.671 35.2222 106.268 36.1438C105.69 37.4226 105.39 38.7584 105.369 40.1148C105.349 41.4195 105.591 42.3256 106.087 42.8019C106.284 42.9935 106.516 43.0867 106.8 43.0867C106.934 43.0867 107.079 43.066 107.234 43.0245C107.776 42.8847 108.412 42.3877 109.119 41.5542C109.848 40.6947 110.571 39.4832 111.258 37.9455C111.95 36.4078 112.436 34.9789 112.714 33.1202C112.72 33.0943 112.725 33.0736 112.735 33.0477C112.849 32.7733 113.138 32.4472 113.877 32.4472C113.944 32.4472 114.011 32.4471 114.078 32.4523C114.703 32.4937 115.22 32.6491 115.602 32.9079C115.757 33.0115 115.881 33.115 115.984 33.2134C116.206 33.436 116.304 33.757 116.248 34.0573C115.643 37.2725 115.307 38.8826 115.24 39.4159C115.173 39.9543 115.132 40.3323 115.127 40.5342C115.054 41.4195 115.091 42.0771 115.23 42.4861C115.338 42.8071 115.504 42.9365 115.803 42.9365C116.227 42.9365 116.723 42.688 117.291 42.1961C117.89 41.6784 118.531 40.8759 119.192 39.8094C119.626 39.1104 120.023 38.3131 120.375 37.4433C122.007 32.6957 123.779 29.4029 125.643 27.6736C126.191 27.1662 126.764 26.8401 127.348 26.6951C127.596 26.633 127.833 26.6019 128.055 26.6019C128.381 26.6019 128.686 26.6692 128.954 26.7986C129.435 27.0316 129.75 27.4096 129.858 27.8962C129.951 28.3104 129.868 28.7401 129.605 29.1699C129.584 29.2061 129.559 29.2631 129.564 29.32C129.631 29.7083 129.729 30.1484 129.858 30.6299C130.008 31.1942 130.178 31.7275 130.364 32.2194C130.55 32.7164 131.098 34.0004 131.991 36.0351C132.684 37.6142 132.988 39.3745 132.854 40.9898C132.849 41.0727 132.885 41.1348 132.916 41.1659C132.968 41.2228 133.04 41.2539 133.107 41.2539C133.138 41.2539 133.174 41.2487 133.205 41.2332C134.832 40.5083 136.465 38.5461 137.369 36.237C137.57 35.2067 137.833 34.0625 138.148 32.794C138.593 31.0285 138.866 29.9154 138.959 29.4805C138.975 29.4132 138.996 29.3252 139.052 29.2372C139.223 28.968 139.528 28.7764 139.982 28.647C140.173 28.5952 140.38 28.5641 140.602 28.5641C140.927 28.5641 141.294 28.6262 141.676 28.7505C142.694 29.0715 142.766 29.5996 142.72 29.8895C141.666 34.0211 140.989 37.376 140.716 39.8767C140.514 41.492 140.664 42.1754 140.819 42.4654C141.026 42.8485 141.33 43.0452 141.775 43.0867C141.795 43.0867 141.862 43.0867 141.862 43.0867C142.616 43.0867 143.484 42.5844 144.45 41.5904C145.483 40.5238 146.273 39.0224 146.8 37.1275L148.608 29.4287C148.613 29.4132 148.619 29.3977 148.624 29.3821C148.712 29.1595 148.897 28.9731 149.182 28.8075C149.455 28.647 149.812 28.5693 150.266 28.5693C150.7 28.5693 151.129 28.6521 151.547 28.8075C152.25 29.0715 152.353 29.5375 152.348 29.7912C152.348 29.8222 152.343 29.8481 152.338 29.874C152.296 30.019 152.105 30.7334 151.439 33.3066C150.902 35.362 150.525 37.4226 150.308 39.4314C150.147 40.7827 150.153 41.7613 150.323 42.3463C150.504 42.9572 150.834 43.0349 151.134 43.0349C151.64 43.0349 152.162 42.864 152.699 42.5275C153.19 42.2169 153.619 41.8182 153.97 41.3367C154.099 41.14 154.187 41.0054 154.275 40.8759C154.445 40.6274 154.621 40.3685 155.173 39.4573C155.979 38.1267 156.62 36.2266 156.873 35.0203C157.219 33.3739 157.477 30.6144 157.513 29.3614C157.529 28.7764 158.293 28.6055 158.541 28.5486C158.768 28.4968 159.001 28.4709 159.228 28.4709C159.584 28.4709 159.941 28.5331 160.292 28.6573C161.113 28.9524 161.32 29.4339 161.351 29.7912C161.418 30.8939 161.33 32.0899 161.098 33.3532C160.607 36.0299 160.483 36.501 159.9 37.9559C159.765 38.2924 159.6 38.6548 159.414 39.0328C159.373 39.1156 159.378 39.1933 159.424 39.2658C159.476 39.3434 159.564 39.3952 159.646 39.3952C159.698 39.3952 159.75 39.3745 159.796 39.3331C160.034 39.1208 160.246 38.8878 160.432 38.6393C160.84 38.0905 161.108 37.4433 161.346 36.8686C161.454 36.6098 161.552 36.3768 161.651 36.1749C162.136 34.7821 162.89 33.4464 163.887 32.1986C165.587 30.0811 167.591 28.8023 169.853 28.3984C170.406 28.3053 170.989 28.2172 171.594 28.2586C173.283 28.3725 174.362 28.5538 174.9 29.0508C174.915 29.0611 174.925 29.0767 174.936 29.0922C175.179 29.3977 175.153 29.8119 174.848 30.3141C174.585 30.749 174.306 31.0389 173.991 31.1942C173.799 31.2874 173.629 31.3495 173.469 31.334C172.983 31.2874 172.704 31.2356 171.852 31.2098C171.547 31.2098 171.248 31.2356 170.969 31.2926C170.504 31.3651 169.962 31.5825 169.342 31.9294C168.722 32.2815 168.097 32.8354 167.482 33.581C166.857 34.3369 166.341 35.186 165.938 36.1024C165.359 37.3812 165.06 38.7169 165.039 40.0734C165.018 41.3781 165.261 42.2842 165.757 42.7605C165.953 42.952 166.186 43.0452 166.47 43.0452C166.604 43.0452 166.749 43.0245 166.904 42.9831C167.446 42.8433 168.081 42.3463 168.789 41.5127C169.517 40.6533 170.241 39.4418 170.927 37.9041C171.62 36.3664 172.105 34.9375 172.384 33.0788C172.389 33.0529 172.394 33.0322 172.405 33.0063C172.518 32.7319 172.808 32.4057 173.546 32.4057C173.608 32.4057 173.681 32.4057 173.748 32.4109C174.373 32.4523 174.889 32.6077 175.272 32.8665C175.426 32.9701 175.55 33.0684 175.654 33.172C175.876 33.3946 175.974 33.7156 175.922 34.0107C175.318 37.2259 174.977 38.836 174.91 39.3693C174.843 39.9078 174.801 40.2857 174.796 40.4876C174.724 41.373 174.755 42.0253 174.9 42.4447C175.008 42.7605 175.173 42.8951 175.473 42.8951C175.897 42.8951 176.398 42.6466 176.961 42.1547C177.56 41.637 178.2 40.8345 178.861 39.768C179.481 38.7739 180.003 37.6297 180.421 36.3716C180.798 33.9952 181.181 31.6136 181.573 29.1854C181.661 28.7764 182.033 28.5279 182.679 28.4295C182.828 28.4088 182.978 28.3933 183.128 28.3933C183.551 28.3933 183.97 28.4865 184.368 28.6728C185.132 29.0301 185.297 29.5271 185.303 29.8792C185.303 29.9051 185.297 29.9309 185.292 29.9568L185.22 30.2727C185.788 29.7963 186.398 29.4857 187.147 29.2372C188.634 28.735 189.709 28.9007 190.664 29.1285C191.62 29.3563 192.24 29.6255 193.149 30.3037C194.192 31.0803 194.864 32.0485 195.158 33.0477C195.483 34.1557 195.458 34.7873 195.37 35.9056C195.251 37.3812 194.951 38.5357 194.781 39.0949C194.569 39.7939 194.177 40.8656 193.763 41.5852C193.412 42.1962 193.236 42.4032 192.942 42.7449L192.751 42.9728C191.914 43.9616 191.026 44.702 190.106 45.1783C189.538 45.4734 188.588 45.9601 187.193 46.0222C187.09 46.0274 186.986 46.0274 186.888 46.0274C186.041 46.0274 185.22 45.8721 184.45 45.5614C183.934 45.3543 183.453 45.0799 183.035 44.7538C182.988 44.7175 182.937 44.702 182.885 44.702C182.797 44.702 182.694 44.7589 182.679 44.8832C182.487 46.2707 182.307 47.5754 181.935 50.102C181.718 51.5775 181.361 53.167 181.356 53.2084C181.124 54.4355 180.478 54.9998 179.383 54.9998ZM186.687 32.3798C185.736 32.7785 184.776 33.3014 184.564 34.0625C184.554 34.0987 184.528 34.1246 184.523 34.1609C184.104 36.5114 183.681 39.038 183.267 41.6681C183.257 41.7457 183.273 41.8182 183.319 41.87C183.758 42.367 184.352 42.7346 185.075 42.9728C185.334 43.0556 185.597 43.1125 185.86 43.1436C186 43.1591 186.134 43.1643 186.263 43.1643C186.878 43.1643 187.348 43.009 187.57 42.9313C188.614 42.5793 189.001 42.2583 189.569 41.5231C190.153 40.7724 190.39 40.4565 190.68 39.7006C190.917 39.0794 191.222 38.2096 191.413 37.231C191.687 35.8487 191.718 35.2585 191.671 34.6993C191.599 33.8606 191.434 33.3635 190.798 32.7888C189.585 31.6912 187.699 31.9553 186.687 32.3798ZM83.4324 20.9534C82.9778 20.9534 82.0171 21.6161 80.6948 26.0479C80.1008 28.0826 79.6204 29.962 79.264 31.6239C79.2485 31.7016 79.264 31.7689 79.3105 31.8259C79.3621 31.888 79.4448 31.9294 79.5223 31.9294C79.5791 31.9294 79.6256 31.9087 79.672 31.8621C80.1576 31.3392 80.6173 30.7593 81.0512 30.138C81.8518 28.9938 82.4768 27.7979 82.9107 26.5864C83.4892 24.9607 83.825 23.5524 83.9024 22.3979C83.9644 21.4815 83.8043 21.1553 83.7062 21.0466C83.67 21.0051 83.6132 20.9586 83.4892 20.9534H83.4324Z" fill="#330066"/>
  <path d="M229.71 29.8123C231.337 31.4432 231.337 34.094 229.71 35.7249C228.083 37.3557 225.438 37.3557 223.811 35.7249C222.184 34.094 218.806 24.7954 218.806 24.7954C218.806 24.7954 228.083 28.1814 229.71 29.8123Z" fill="#FF0066"/>
  <path d="M216.368 24.7954C216.368 24.7954 212.99 34.0888 211.363 35.7249C209.736 37.3557 207.091 37.3557 205.464 35.7249C203.837 34.094 203.837 31.4432 205.464 29.8123C207.091 28.1814 216.368 24.7954 216.368 24.7954Z" fill="#FF0066"/>
  <path d="M229.71 11.4219C231.337 13.0528 231.337 15.7036 229.71 17.3345C228.083 18.9653 218.806 22.3513 218.806 22.3513C218.806 22.3513 222.184 13.058 223.811 11.4219C225.444 9.78581 228.083 9.78581 229.71 11.4219Z" fill="#FF0066"/>
  <path d="M211.363 11.4219C212.99 13.0528 216.368 22.3513 216.368 22.3513C216.368 22.3513 207.096 18.9653 205.464 17.3345C203.837 15.7036 203.837 13.0528 205.464 11.4219C207.091 9.78581 209.736 9.78581 211.363 11.4219Z" fill="#FF0066"/>
  <path d="M240 23.5732C240 25.8823 238.135 27.7513 235.832 27.7513C233.528 27.7513 219.984 23.5732 219.984 23.5732C219.984 23.5732 233.528 19.395 235.832 19.395C238.135 19.395 240 21.264 240 23.5732Z" fill="#FF0066"/>
  <path d="M214.979 23.5732C214.979 23.5732 201.435 27.7513 199.132 27.7513C196.828 27.7513 194.963 25.8823 194.963 23.5732C194.963 21.264 196.828 19.395 199.132 19.395C201.435 19.395 214.979 23.5732 214.979 23.5732Z" fill="#FF0066"/>
  <path d="M217.478 46.1468C215.174 46.1468 213.31 44.2778 213.31 41.9687C213.31 39.6596 217.478 26.0845 217.478 26.0845C217.478 26.0845 221.646 39.6596 221.646 41.9687C221.646 44.2778 219.782 46.1468 217.478 46.1468Z" fill="#FF0066"/>
  <path d="M217.478 21.0623C217.478 21.0623 213.31 7.48725 213.31 5.17814C213.31 2.86904 215.174 1 217.478 1C219.782 1 221.646 2.86904 221.646 5.17814C221.646 7.48725 217.478 21.0623 217.478 21.0623Z" fill="#FF0066"/>
</svg>
