<svg width="636" height="265" viewBox="0 0 634 265" fill="none"
  xmlns="http://www.w3.org/2000/svg">
  <path fill-rule="evenodd" clip-rule="evenodd" d="M352 0H359V38H352V0ZM335 9V11H337V34H330V11H332V9H335ZM297 13H304V19H297V13ZM260 19H253V27H260V19ZM29 84H22V102H29V84ZM51 96H44V104H51V96ZM55 102H62V123H55V102ZM73 121H66V141H73V121ZM93 131H95V137H88V131H90V129H93V131ZM110 107H117V174H110V107ZM128 172H121V185H128V172ZM132 172H139V246H132V172ZM161 229H154V246H156V265H159V246H161V229ZM269 25H271V35H264V25H266V22H269V25ZM315 17H308V21H315V17ZM381 33H374V107H381V33ZM396 98H403V121H396V98ZM425 65H418V91H425V65ZM429 89H436V97H429V89ZM447 95H440V112H447V95ZM462 97H469V125H462V97ZM480 123H473V132H475V134H478V132H480V123ZM524 52H517V56H524V52ZM533 54H535V83H528V54H530V52H533V54ZM539 81H546V132H539V81ZM557 130H550V171H557V130ZM572 152H579V174H572V152ZM623 124H616V160H623V124Z" fill="#F154A3"/>
  <path fill-rule="evenodd" clip-rule="evenodd" d="M348 0H341V34H343V35H346V34H348V0ZM319 11H326V21H319V11ZM293 13H286V32H293V13ZM242 19H249V30H242V19ZM238 28H231V43H238V28ZM220 41H227V47H220V41ZM216 45H209V60H216V45ZM198 58H205V101H198V58ZM18 84H11V87H18V84ZM7 85H0V121H7V85ZM33 96H40V102H33V96ZM106 107H99V137H106V107ZM148 229H150V246H143V229H145V226H148V229ZM165 173H172V246H165V173ZM183 121H176V175H178V188H181V175H183V121ZM194 99H187V123H194V99ZM282 30H280V28H277V30H275V35H282V30ZM370 33H368V18H365V33H363V38H370V33ZM392 98H385V107H392V98ZM407 65H414V121H407V65ZM458 97H451V112H458V97ZM484 120H491V132H484V120ZM502 87H495V122H502V87ZM506 52H513V89H506V52ZM568 152H561V171H568V152ZM583 163H590V174H583V163ZM601 150H594V165H601V150ZM605 124H612V152H605V124ZM634 119H627V160H629V174H632V160H634V119ZM84 131H77V141H84V131Z" fill="#34AD87"/>
</svg>
